<svg xmlns="http://www.w3.org/2000/svg" viewBox="0 0 225.57 126.88" xmlns:v="https://vecta.io/nano"><style><![CDATA[.JC{stroke-miterlimit:10}.JD{fill:none}.JE{stroke:#000}.JF{stroke:#f30}.JG{fill:#f30}.JH{fill:#231f20}.JI{stroke-width:.4}.JJ{stroke-width:.25}.JK{stroke-width:.5}]]></style><g class="JC JE"><path d="M132.88 30.11v69.33h69.33V30.11h-69.33zm58.16 58.17h-47v-47h47v47z" fill="#8294c4" class="JK"/><path d="M144.04 41.28h47v47h-47z" class="JJ"/></g><path d="M144.04 41.28h47v47h-47z" fill="#010101"/><path d="M144.05 41.28h46.99v46.99h-46.99z" fill="#020202"/><path d="M144.05 41.28h46.99v46.99h-46.99z" fill="#030303"/><use href="#B" fill="#040404"/><use href="#B" fill="#050505"/><use href="#B" y="0.01" fill="#060606"/><use href="#C" fill="#070707"/><use href="#C" fill="#080808"/><use href="#D" fill="#090909"/><use href="#D" fill="#0a0a0a"/><use href="#D" y="0.01" fill="#0b0b0b"/><use href="#E" fill="#0c0c0c"/><use href="#E" fill="#0d0d0d"/><use href="#E" fill="#0e0e0e"/><path d="M144.07 41.3h46.94v46.94h-46.94z" fill="#0f0f0f"/><path d="M144.07 41.31h46.94v46.94h-46.94z" fill="#101010"/><use href="#F" fill="#111"/><use href="#F" fill="#121212"/><use href="#F" fill="#131313"/><path d="M144.08 41.31H191v46.92h-46.92z" fill="#141414"/><path d="M144.08 41.32H191v46.92h-46.92z" fill="#151515"/><use href="#G" fill="#161616"/><use href="#G" fill="#171717"/><use href="#G" fill="#181818"/><path d="M144.09 41.32h46.9v46.9h-46.9z" fill="#191919"/><path d="M144.09 41.33h46.9v46.9h-46.9z" fill="#1a1a1a"/><use href="#H" fill="#1b1b1b"/><use href="#H" fill="#1c1c1c"/><use href="#H" fill="#1d1d1d"/><path d="M144.1 41.33h46.88v46.88H144.1z" fill="#1e1e1e"/><path d="M144.1 41.34h46.88v46.88H144.1z" fill="#1f1f1f"/><path d="M144.1 41.34h46.87v46.87H144.1z" fill="#202020"/><use href="#I" fill="#212121"/><use href="#I" fill="#222"/><path d="M144.11 41.34h46.86V88.2h-46.86z" fill="#232323"/><path d="M144.11 41.35h46.86v46.86h-46.86z" fill="#242424"/><use href="#J" fill="#252525"/><use href="#J" x="0.01" fill="#262626"/><use href="#J" x="0.01" fill="#272727"/><path d="M144.12 41.35h46.84v46.84h-46.84z" fill="#282828"/><use href="#K" fill="#292929"/><use href="#K" fill="#2a2a2a"/><use href="#L" fill="#2b2b2b"/><use href="#L" fill="#2c2c2c"/><use href="#M" fill="#2d2d2d"/><use href="#M" y="0.01" fill="#2e2e2e"/><use href="#M" y="0.01" fill="#2f2f2f"/><use href="#N" fill="#303030"/><use href="#N" fill="#313131"/><use href="#O" fill="#323232"/><use href="#O" y="0.01" fill="#333"/><use href="#O" y="0.01" fill="#343434"/><use href="#P" fill="#353535"/><use href="#P" fill="#363636"/><use href="#Q" fill="#373737"/><use href="#Q" fill="#383838"/><use href="#Q" y="0.01" fill="#393939"/><use href="#R" fill="#3a3a3a"/><use href="#R" fill="#3b3b3b"/><use href="#S" fill="#3c3c3c"/><use href="#S" fill="#3d3d3d"/><use href="#S" y="0.01" fill="#3e3e3e"/><use href="#T" fill="#3f3f3f"/><use href="#T" fill="#404040"/><use href="#T" fill="#414141"/><path d="M144.17 41.4h46.74v46.74h-46.74z" fill="#424242"/><path d="M144.17 41.41h46.74v46.74h-46.74z" fill="#434343"/><use href="#U" fill="#444"/><use href="#U" fill="#454545"/><use href="#U" fill="#464646"/><path d="M144.18 41.41h46.72v46.72h-46.72z" fill="#474747"/><path d="M144.18 41.42h46.72v46.72h-46.72z" fill="#484848"/><use href="#V" fill="#494949"/><use href="#V" fill="#4a4a4a"/><use href="#V" fill="#4b4b4b"/><path d="M144.19 41.42h46.7v46.7h-46.7z" fill="#4c4c4c"/><path d="M144.19 41.43h46.7v46.7h-46.7z" fill="#4d4d4d"/><use href="#W" fill="#4e4e4e"/><use href="#W" fill="#4f4f4f"/><use href="#W" fill="#505050"/><path d="M144.2 41.43h46.68v46.68H144.2z" fill="#515151"/><path d="M144.2 41.44h46.68v46.68H144.2z" fill="#525252"/><path d="M144.2 41.44h46.67v46.67H144.2z" fill="#535353"/><use href="#X" fill="#545454"/><use href="#X" fill="#555"/><path d="M144.21 41.44h46.66V88.1h-46.66z" fill="#565656"/><path d="M144.21 41.45h46.66v46.66h-46.66z" fill="#575757"/><use href="#Y" fill="#585858"/><use href="#Y" x="0.01" fill="#595959"/><use href="#Y" x="0.01" fill="#5a5a5a"/><path d="M144.22 41.45h46.64v46.64h-46.64z" fill="#5b5b5b"/><use href="#Z" fill="#5c5c5c"/><use href="#Z" fill="#5d5d5d"/><use href="#a" fill="#5e5e5e"/><use href="#a" fill="#5f5f5f"/><use href="#b" fill="#606060"/><use href="#b" y="0.01" fill="#616161"/><use href="#b" y="0.01" fill="#626262"/><use href="#c" fill="#636363"/><use href="#c" fill="#646464"/><use href="#d" fill="#656565"/><use href="#d" y="0.01" fill="#666"/><use href="#d" y="0.01" fill="#676767"/><use href="#e" fill="#686868"/><use href="#e" fill="#696969"/><use href="#f" fill="#6a6a6a"/><use href="#f" fill="#6b6b6b"/><use href="#f" y="0.01" fill="#6c6c6c"/><use href="#g" fill="#6d6d6d"/><use href="#g" fill="#6e6e6e"/><use href="#h" fill="#6f6f6f"/><use href="#h" fill="#707070"/><use href="#h" y="0.01" fill="#717171"/><use href="#i" fill="#727272"/><use href="#i" fill="#737373"/><use href="#i" fill="#747474"/><path d="M144.27 41.5h46.54v46.54h-46.54z" fill="#757575"/><path d="M144.27 41.51h46.54v46.54h-46.54z" fill="#767676"/><use href="#j" fill="#777"/><use href="#j" fill="#787878"/><use href="#j" fill="#797979"/><path d="M144.28 41.51h46.52v46.52h-46.52z" fill="#7a7a7a"/><path d="M144.28 41.52h46.52v46.52h-46.52z" fill="#7b7b7b"/><use href="#k" fill="#7c7c7c"/><use href="#k" fill="#7d7d7d"/><use href="#k" fill="#7e7e7e"/><path d="M144.29 41.52h46.5v46.5h-46.5z" fill="#7f7f7f"/><path d="M144.29 41.53h46.5v46.5h-46.5z" fill="gray"/><use href="#l" fill="#818181"/><use href="#l" fill="#828282"/><use href="#l" fill="#838383"/><path d="M144.3 41.53h46.48v46.48H144.3z" fill="#848484"/><path d="M144.3 41.54h46.48v46.48H144.3z" fill="#858585"/><path d="M144.3 41.54h46.47v46.47H144.3z" fill="#868686"/><use href="#m" fill="#878787"/><use href="#m" fill="#888"/><path d="M144.31 41.54h46.46V88h-46.46z" fill="#898989"/><path d="M144.31 41.55h46.46v46.46h-46.46z" fill="#8a8a8a"/><use href="#n" fill="#8b8b8b"/><use href="#n" x="0.01" fill="#8c8c8c"/><use href="#n" x="0.01" fill="#8d8d8d"/><path d="M144.32 41.55h46.44v46.44h-46.44z" fill="#8e8e8e"/><use href="#o" fill="#8f8f8f"/><use href="#o" fill="#909090"/><use href="#p" fill="#919191"/><use href="#p" fill="#929292"/><use href="#q" fill="#939393"/><use href="#q" y="0.01" fill="#949494"/><use href="#q" y="0.01" fill="#959595"/><use href="#r" fill="#969696"/><use href="#r" fill="#979797"/><use href="#s" fill="#989898"/><use href="#s" y="0.01" fill="#999"/><use href="#s" y="0.01" fill="#9a9a9a"/><use href="#t" fill="#9b9b9b"/><use href="#t" fill="#9c9c9c"/><use href="#u" fill="#9d9d9d"/><use href="#u" fill="#9e9e9e"/><use href="#u" y="0.01" fill="#9f9f9f"/><use href="#v" fill="#a0a0a0"/><use href="#v" fill="#a1a1a1"/><use href="#w" fill="#a2a2a2"/><use href="#w" fill="#a3a3a3"/><use href="#w" y="0.01" fill="#a4a4a4"/><use href="#x" fill="#a5a5a5"/><use href="#x" fill="#a6a6a6"/><use href="#x" fill="#a7a7a7"/><path d="M144.37 41.6h46.34v46.34h-46.34z" fill="#a8a8a8"/><path d="M144.37 41.61h46.34v46.34h-46.34z" fill="#a9a9a9"/><use href="#y" fill="#aaa"/><use href="#y" fill="#ababab"/><use href="#y" fill="#acacac"/><path d="M144.38 41.61h46.32v46.32h-46.32z" fill="#adadad"/><path d="M144.38 41.62h46.32v46.32h-46.32z" fill="#aeaeae"/><use href="#z" fill="#afafaf"/><use href="#z" fill="#b0b0b0"/><use href="#z" fill="#b1b1b1"/><path d="M144.39 41.62h46.3v46.3h-46.3z" fill="#b2b2b2"/><path d="M144.39 41.63h46.3v46.3h-46.3z" fill="#b3b3b3"/><use href="#AA" fill="#b4b4b4"/><use href="#AA" fill="#b5b5b5"/><use href="#AA" fill="#b6b6b6"/><path d="M144.4 41.63h46.28v46.28H144.4z" fill="#b7b7b7"/><path d="M144.4 41.64h46.28v46.28H144.4z" fill="#b8b8b8"/><path d="M144.4 41.64h46.27v46.27H144.4z" fill="#b9b9b9"/><use href="#AB" fill="#bababa"/><use href="#AB" fill="#bbb"/><path d="M144.41 41.64h46.26V87.9h-46.26z" fill="#bcbcbc"/><path d="M144.41 41.65h46.26v46.26h-46.26z" fill="#bdbdbd"/><use href="#AC" fill="#bebebe"/><use href="#AC" x="0.01" fill="#bfbfbf"/><use href="#AC" x="0.01" fill="silver"/><path d="M144.42 41.65h46.24v46.24h-46.24z" fill="#c1c1c1"/><use href="#AD" fill="#c2c2c2"/><use href="#AD" fill="#c3c3c3"/><use href="#AE" fill="#c4c4c4"/><use href="#AE" fill="#c5c5c5"/><use href="#AF" fill="#c6c6c6"/><use href="#AF" y="0.01" fill="#c7c7c7"/><use href="#AF" y="0.01" fill="#c8c8c8"/><use href="#AG" fill="#c9c9c9"/><use href="#AG" fill="#cacaca"/><use href="#AH" fill="#cbcbcb"/><use href="#AH" y="0.01" fill="#ccc"/><use href="#AH" y="0.01" fill="#cdcdcd"/><use href="#AI" fill="#cecece"/><use href="#AI" fill="#cfcfcf"/><use href="#AJ" fill="#d0d0d0"/><use href="#AJ" fill="#d1d1d1"/><use href="#AJ" y="0.01" fill="#d2d2d2"/><use href="#AK" fill="#d3d3d3"/><use href="#AK" fill="#d4d4d4"/><use href="#AL" fill="#d5d5d5"/><use href="#AL" fill="#d6d6d6"/><use href="#AL" y="0.01" fill="#d7d7d7"/><use href="#AM" fill="#d8d8d8"/><use href="#AM" fill="#d9d9d9"/><use href="#AM" fill="#dadada"/><path d="M144.47 41.7h46.14v46.14h-46.14z" fill="#dbdbdb"/><path d="M144.47 41.71h46.14v46.14h-46.14z" fill="#dcdcdc"/><use href="#AN" fill="#ddd"/><use href="#AN" fill="#dedede"/><use href="#AN" fill="#dfdfdf"/><path d="M144.48 41.71h46.12v46.12h-46.12z" fill="#e0e0e0"/><path d="M144.48 41.72h46.12v46.12h-46.12z" fill="#e1e1e1"/><use href="#AO" fill="#e2e2e2"/><use href="#AO" fill="#e3e3e3"/><use href="#AO" fill="#e4e4e4"/><path d="M144.49 41.72h46.1v46.1h-46.1z" fill="#e5e5e5"/><path d="M144.49 41.73h46.1v46.1h-46.1z" fill="#e6e6e6"/><use href="#AP" fill="#e7e7e7"/><use href="#AP" fill="#e8e8e8"/><use href="#AP" fill="#e9e9e9"/><path d="M144.5 41.73h46.08v46.08H144.5z" fill="#eaeaea"/><path d="M144.5 41.74h46.08v46.08H144.5z" fill="#ebebeb"/><path d="M144.5 41.74h46.07v46.07H144.5z" fill="#ececec"/><use href="#AQ" fill="#ededed"/><use href="#AQ" fill="#eee"/><path d="M144.51 41.74h46.06V87.8h-46.06z" fill="#efefef"/><path d="M144.51 41.75h46.06v46.06h-46.06z" fill="#f0f0f0"/><use href="#AR" fill="#f1f1f1"/><use href="#AR" x="0.01" fill="#f2f2f2"/><use href="#AR" x="0.01" fill="#f3f3f3"/><path d="M144.52 41.75h46.04v46.04h-46.04z" fill="#f4f4f4"/><use href="#AS" fill="#f5f5f5"/><use href="#AS" fill="#f6f6f6"/><use href="#AT" fill="#f7f7f7"/><use href="#AT" fill="#f8f8f8"/><use href="#AU" fill="#f9f9f9"/><use href="#AU" y="0.01" fill="#fafafa"/><use href="#AU" y="0.01" fill="#fbfbfb"/><use href="#AV" fill="#fcfcfc"/><use href="#AV" fill="#fdfdfd"/><path d="M144.54 41.77h46v46h-46z" fill="#fefefe"/><path d="M144.54 41.78h46v46h-46z" fill="#fff"/><g class="JC JE"><g stroke-width="0"><path d="M144.54 41.78h46v46h-46z" fill="#fefefe"/><use href="#AW" fill="#fdfdfd"/><use href="#AW" fill="#fcfcfc"/><use href="#AX" fill="#fbfbfb"/><use href="#AX" fill="#fafafa"/><use href="#AX" y="0.01" fill="#f9f9f9"/><use href="#AY" fill="#f8f8f8"/><use href="#AY" fill="#f7f7f7"/><use href="#AZ" fill="#f6f6f6"/><use href="#AZ" fill="#f5f5f5"/><use href="#AZ" y="0.01" fill="#f4f4f4"/><use href="#Aa" fill="#f3f3f3"/><use href="#Aa" fill="#f2f2f2"/><use href="#Aa" fill="#f1f1f1"/><path d="M144.57 41.8h45.94v45.94h-45.94z" fill="#f0f0f0"/><path d="M144.57 41.81h45.94v45.94h-45.94z" fill="#efefef"/><use href="#Ab" fill="#eee"/><use href="#Ab" fill="#ededed"/><use href="#Ab" fill="#ececec"/><path d="M144.58 41.81h45.92v45.92h-45.92z" fill="#ebebeb"/><path d="M144.58 41.82h45.92v45.92h-45.92z" fill="#eaeaea"/><use href="#Ac" fill="#e9e9e9"/><use href="#Ac" fill="#e8e8e8"/><use href="#Ac" fill="#e7e7e7"/><path d="M144.59 41.82h45.9v45.9h-45.9z" fill="#e6e6e6"/><path d="M144.59 41.83h45.9v45.9h-45.9z" fill="#e5e5e5"/><use href="#Ad" fill="#e4e4e4"/><use href="#Ad" fill="#e3e3e3"/><use href="#Ad" fill="#e2e2e2"/><path d="M144.6 41.83h45.88v45.88H144.6z" fill="#e1e1e1"/><path d="M144.6 41.84h45.88v45.88H144.6z" fill="#e0e0e0"/><path d="M144.6 41.84h45.87v45.87H144.6z" fill="#dfdfdf"/><use href="#Ae" fill="#dedede"/><use href="#Ae" fill="#ddd"/><path d="M144.61 41.84h45.86V87.7h-45.86z" fill="#dcdcdc"/><path d="M144.61 41.85h45.86v45.86h-45.86z" fill="#dbdbdb"/><use href="#Af" fill="#dadada"/><use href="#Af" x="0.01" fill="#d9d9d9"/><use href="#Af" x="0.01" fill="#d8d8d8"/><path d="M144.62 41.85h45.84v45.84h-45.84z" fill="#d7d7d7"/><use href="#Ag" fill="#d6d6d6"/><use href="#Ag" fill="#d5d5d5"/><use href="#Ah" fill="#d4d4d4"/><use href="#Ah" fill="#d3d3d3"/><use href="#Ai" fill="#d2d2d2"/><use href="#Ai" y="0.01" fill="#d1d1d1"/><use href="#Ai" y="0.01" fill="#d0d0d0"/><use href="#Aj" fill="#cfcfcf"/><use href="#Aj" fill="#cecece"/><use href="#Ak" fill="#cdcdcd"/></g><g stroke-width=".01"><use href="#Ak" y="0.01" fill="#ccc"/><use href="#Ak" y="0.01" fill="#cbcbcb"/><use href="#Al" fill="#cacaca"/><use href="#Al" fill="#c9c9c9"/><use href="#Am" fill="#c8c8c8"/><use href="#Am" fill="#c7c7c7"/><use href="#Am" y="0.01" fill="#c6c6c6"/><use href="#An" fill="#c5c5c5"/><use href="#An" fill="#c4c4c4"/><use href="#Ao" fill="#c3c3c3"/><use href="#Ao" fill="#c2c2c2"/><use href="#Ao" y="0.01" fill="#c1c1c1"/><use href="#Ap" fill="silver"/><use href="#Ap" fill="#bfbfbf"/><use href="#Ap" fill="#bebebe"/><path d="M144.67 41.9h45.74v45.74h-45.74z" fill="#bdbdbd"/><path d="M144.67 41.91h45.74v45.74h-45.74z" fill="#bcbcbc"/><use href="#Aq" fill="#bbb"/><use href="#Aq" fill="#bababa"/><use href="#Aq" fill="#b9b9b9"/><path d="M144.68 41.91h45.72v45.72h-45.72z" fill="#b8b8b8"/><path d="M144.68 41.92h45.72v45.72h-45.72z" fill="#b7b7b7"/><use href="#Ar" fill="#b6b6b6"/><use href="#Ar" fill="#b5b5b5"/><use href="#Ar" fill="#b4b4b4"/><path d="M144.69 41.92h45.7v45.7h-45.7z" fill="#b3b3b3"/></g><g stroke-width=".02"><path d="M144.69 41.93h45.7v45.7h-45.7z" fill="#b2b2b2"/><use href="#As" fill="#b1b1b1"/><use href="#As" fill="#b0b0b0"/><use href="#As" fill="#afafaf"/><path d="M144.7 41.93h45.68v45.68H144.7z" fill="#aeaeae"/><path d="M144.7 41.94h45.68v45.68H144.7z" fill="#adadad"/><path d="M144.7 41.94h45.67v45.67H144.7z" fill="#acacac"/><use href="#At" fill="#ababab"/><use href="#At" fill="#aaa"/><path d="M144.71 41.94h45.66V87.6h-45.66z" fill="#a9a9a9"/><path d="M144.71 41.95h45.66v45.66h-45.66z" fill="#a8a8a8"/><use href="#Au" fill="#a7a7a7"/><use href="#Au" x="0.01" fill="#a6a6a6"/><use href="#Au" x="0.01" fill="#a5a5a5"/><path d="M144.72 41.95h45.64v45.64h-45.64z" fill="#a4a4a4"/><use href="#Av" fill="#a3a3a3"/><use href="#Av" fill="#a2a2a2"/><use href="#Aw" fill="#a1a1a1"/><use href="#Aw" fill="#a0a0a0"/><use href="#Ax" fill="#9f9f9f"/><use href="#Ax" y="0.01" fill="#9e9e9e"/><use href="#Ax" y="0.01" fill="#9d9d9d"/><use href="#Ay" fill="#9c9c9c"/><use href="#Ay" fill="#9b9b9b"/><use href="#Az" fill="#9a9a9a"/><use href="#Az" y="0.01" fill="#999"/><use href="#Az" y="0.01" fill="#989898"/><use href="#BA" fill="#979797"/><use href="#BA" fill="#969696"/><use href="#BB" fill="#959595"/><use href="#BB" fill="#949494"/><use href="#BB" y="0.01" fill="#939393"/><use href="#BC" fill="#929292"/><use href="#BC" fill="#919191"/><use href="#BD" fill="#909090"/><use href="#BD" fill="#8f8f8f"/><use href="#BD" y="0.01" fill="#8e8e8e"/><use href="#BE" fill="#8d8d8d"/><use href="#BE" fill="#8c8c8c"/><use href="#BE" fill="#8b8b8b"/><path d="M144.77 42h45.54v45.54h-45.54z" fill="#8a8a8a"/><path d="M144.77 42.01h45.54v45.54h-45.54z" fill="#898989"/><use href="#BF" fill="#888"/><use href="#BF" fill="#878787"/><use href="#BF" fill="#868686"/><path d="M144.78 42.01h45.52v45.52h-45.52z" fill="#858585"/><path d="M144.78 42.02h45.52v45.52h-45.52z" fill="#848484"/><use href="#BG" fill="#838383"/><use href="#BG" fill="#828282"/><use href="#BG" fill="#818181"/><path d="M144.79 42.02h45.5v45.5h-45.5z" fill="gray"/></g><g stroke-width=".03"><path d="M144.79 42.03h45.5v45.5h-45.5z" fill="#7f7f7f"/><use href="#BH" fill="#7e7e7e"/><use href="#BH" fill="#7d7d7d"/><use href="#BH" fill="#7c7c7c"/><path d="M144.8 42.03h45.48v45.48H144.8z" fill="#7b7b7b"/><path d="M144.8 42.04h45.48v45.48H144.8z" fill="#7a7a7a"/><path d="M144.8 42.04h45.47v45.47H144.8z" fill="#797979"/><use href="#BI" fill="#787878"/><use href="#BI" fill="#777"/><path d="M144.81 42.04h45.46V87.5h-45.46z" fill="#767676"/><path d="M144.81 42.05h45.46v45.46h-45.46z" fill="#757575"/><use href="#BJ" fill="#747474"/><use href="#BJ" x="0.01" fill="#737373"/><use href="#BJ" x="0.01" fill="#727272"/><path d="M144.82 42.05h45.44v45.44h-45.44z" fill="#717171"/><use href="#BK" fill="#707070"/><use href="#BK" fill="#6f6f6f"/><use href="#BL" fill="#6e6e6e"/><use href="#BL" fill="#6d6d6d"/><use href="#BM" fill="#6c6c6c"/><use href="#BM" y="0.01" fill="#6b6b6b"/><use href="#BM" y="0.01" fill="#6a6a6a"/><use href="#BN" fill="#696969"/><use href="#BN" fill="#686868"/><use href="#BO" fill="#676767"/><use href="#BO" y="0.01" fill="#666"/><use href="#BO" y="0.01" fill="#656565"/><use href="#BP" fill="#646464"/><use href="#BP" fill="#636363"/><use href="#BQ" fill="#626262"/><use href="#BQ" fill="#616161"/><use href="#BQ" y="0.01" fill="#606060"/><use href="#BR" fill="#5f5f5f"/><use href="#BR" fill="#5e5e5e"/><use href="#BS" fill="#5d5d5d"/><use href="#BS" fill="#5c5c5c"/><use href="#BS" y="0.01" fill="#5b5b5b"/><use href="#BT" fill="#5a5a5a"/><use href="#BT" fill="#595959"/><use href="#BT" fill="#585858"/><path d="M144.87 42.1h45.34v45.34h-45.34z" fill="#575757"/><path d="M144.87 42.11h45.34v45.34h-45.34z" fill="#565656"/><use href="#BU" fill="#555"/><use href="#BU" fill="#545454"/><use href="#BU" fill="#535353"/><path d="M144.88 42.11h45.32v45.32h-45.32z" fill="#525252"/><path d="M144.88 42.12h45.32v45.32h-45.32z" fill="#515151"/><use href="#BV" fill="#505050"/><use href="#BV" fill="#4f4f4f"/><use href="#BV" fill="#4e4e4e"/><path d="M144.89 42.12h45.3v45.3h-45.3z" fill="#4d4d4d"/></g><g stroke-width=".04"><path d="M144.89 42.13h45.3v45.3h-45.3z" fill="#4c4c4c"/><use href="#BW" fill="#4b4b4b"/><use href="#BW" fill="#4a4a4a"/><use href="#BW" fill="#494949"/><path d="M144.9 42.13h45.28v45.28H144.9z" fill="#484848"/><path d="M144.9 42.14h45.28v45.28H144.9z" fill="#474747"/><path d="M144.9 42.14h45.27v45.27H144.9z" fill="#464646"/><use href="#BX" fill="#454545"/><use href="#BX" fill="#444"/><path d="M144.91 42.14h45.26V87.4h-45.26z" fill="#434343"/><path d="M144.91 42.15h45.26v45.26h-45.26z" fill="#424242"/><use href="#BY" fill="#414141"/><use href="#BY" x="0.01" fill="#404040"/><use href="#BY" x="0.01" fill="#3f3f3f"/><path d="M144.92 42.15h45.24v45.24h-45.24z" fill="#3e3e3e"/><use href="#BZ" fill="#3d3d3d"/><use href="#BZ" fill="#3c3c3c"/><use href="#Ba" fill="#3b3b3b"/><use href="#Ba" fill="#3a3a3a"/><use href="#Bb" fill="#393939"/><use href="#Bb" y="0.01" fill="#383838"/><use href="#Bb" y="0.01" fill="#373737"/><use href="#Bc" fill="#363636"/><use href="#Bc" fill="#353535"/><use href="#Bd" fill="#343434"/><use href="#Bd" y="0.01" fill="#333"/><use href="#Bd" y="0.01" fill="#323232"/><use href="#Be" fill="#313131"/><use href="#Be" fill="#303030"/><use href="#Bf" fill="#2f2f2f"/><use href="#Bf" fill="#2e2e2e"/><use href="#Bf" y="0.01" fill="#2d2d2d"/><use href="#Bg" fill="#2c2c2c"/><use href="#Bg" fill="#2b2b2b"/><use href="#Bh" fill="#2a2a2a"/><use href="#Bh" fill="#292929"/><use href="#Bh" y="0.01" fill="#282828"/><use href="#Bi" fill="#272727"/><use href="#Bi" fill="#262626"/><use href="#Bi" fill="#252525"/><path d="M144.97 42.2h45.14v45.14h-45.14z" fill="#242424"/><path d="M144.97 42.21h45.14v45.14h-45.14z" fill="#232323"/><use href="#Bj" fill="#222"/><use href="#Bj" fill="#212121"/><use href="#Bj" fill="#202020"/><path d="M144.98 42.21h45.12v45.12h-45.12z" fill="#1f1f1f"/><path d="M144.98 42.22h45.12v45.12h-45.12z" fill="#1e1e1e"/><use href="#Bk" fill="#1d1d1d"/><use href="#Bk" fill="#1c1c1c"/><use href="#Bk" fill="#1b1b1b"/><path d="M144.99 42.22h45.1v45.1h-45.1z" fill="#1a1a1a"/></g><g stroke-width=".05"><path d="M144.99 42.23h45.1v45.1h-45.1z" fill="#191919"/><use href="#Bl" fill="#181818"/><use href="#Bl" fill="#171717"/><use href="#Bl" fill="#161616"/><path d="M145 42.23h45.08v45.08H145z" fill="#151515"/><path d="M145 42.24h45.08v45.08H145z" fill="#141414"/><path d="M145 42.24h45.07v45.07H145z" fill="#131313"/><use href="#Bm" fill="#121212"/><use href="#Bm" fill="#111"/><path d="M145.01 42.24h45.06V87.3h-45.06z" fill="#101010"/><path d="M145.01 42.25h45.06v45.06h-45.06z" fill="#0f0f0f"/><use href="#Bn" fill="#0e0e0e"/><use href="#Bn" x="0.01" fill="#0d0d0d"/><use href="#Bn" x="0.01" fill="#0c0c0c"/><path d="M145.02 42.25h45.04v45.04h-45.04z" fill="#0b0b0b"/><use href="#Bo" fill="#0a0a0a"/><use href="#Bo" fill="#090909"/><use href="#Bp" fill="#080808"/><use href="#Bp" fill="#070707"/><use href="#Bq" fill="#060606"/><use href="#Bq" y="0.01" fill="#050505"/><use href="#Bq" y="0.01" fill="#040404"/><use href="#Br" fill="#030303"/><use href="#Br" fill="#020202"/><path d="M145.04 42.27h45v45h-45z" fill="#010101"/><path d="M145.04 42.28h45v45h-45z"/></g></g><path d="M145.04 42.28h45v45h-45z" fill="#fff"/><g class="JC JE"><g class="JD JJ"><path d="M140.54 37.78h54v54h-54z"/><path d="M132.88 30.11l10.99 11m58.34-11l-11.17 11.17m11.17 58.16l-11.17-11.16m-58.16 11.16l11.16-11.16"/></g><path d="M28.92 30.22h69.33v69.33H28.92z" fill="#fff"/><path d="M38.8 40.1h49.57v49.57H38.8zm72.25 47.44l-9.54 3 1.2 3.82 9.54-3" class="JD"/></g><path d="M112.32 89.24l8.59-2.7" class="JH"/><path d="M115.7 88.18l5.21-1.64" class="JC JD JF JI"/><path d="M116.81 89.05l-4.49.19 3.79-2.41.7 2.22z" class="JG"/><path d="M89.46 112.58l3.9-9.21-3.68-1.55-3.9 9.2" class="JC JD JE"/><path d="M87.35 112.45l-3.51 8.29" class="JH"/><path d="M85.97 115.72l-2.13 5.02" class="JC JD JF JI"/><path d="M84.59 115.99l2.76-3.54-.62 4.45-2.14-.91z" class="JG"/><path d="M90.45 82.39v9.44h-9.44v4.94h14.38V82.39h-4.94zm-3.96-65.34l3 9.54 3.81-1.2-2.99-9.54" class="JC JD JE"/><path d="M88.19 15.78l-2.7-8.59" class="JH"/><path d="M87.13 12.39l-1.64-5.2" class="JC JD JF JI"/><path d="M88 11.29l.19 4.49-2.41-3.79 2.22-.7z" class="JG"/><path d="M111.53 38.63l-9.21-3.89-1.56 3.68 9.21 3.9" class="JC JD JE"/><path d="M111.4 40.75l8.29 3.51" class="JH"/><path d="M114.66 42.13l5.03 2.13" class="JC JD JF JI"/><path d="M114.94 43.51l-3.54-2.76 4.45.62-.91 2.14z" class="JG"/><path d="M81.34 37.65h9.44v9.44h4.94V32.71H81.34v4.94zm-65.59 4.32l9.54-3-1.2-3.82-9.54 3" class="JC JD JE"/><path d="M14.48 40.27l-8.59 2.7" class="JH"/><path d="M11.1 41.33l-5.21 1.64" class="JC JD JF JI"/><path d="M9.99 40.46l4.49-.19-3.79 2.41-.7-2.22z" class="JG"/><path d="M37.33 16.93l-3.89 9.2 3.68 1.56 3.9-9.2" class="JC JD JE"/><path d="M39.45 17.06l3.51-8.29" class="JH"/><path d="M40.83 13.79l2.13-5.02" class="JC JD JF JI"/><path d="M42.21 13.52l-2.76 3.54.62-4.45 2.14.91z" class="JG"/><path d="M36.35 47.12v-9.44h9.44v-4.94H31.41v14.38h4.94zm4.49 65.34l-2.99-9.54-3.82 1.2 2.99 9.54" class="JC JD JE"/><path d="M39.14 113.73l2.7 8.59" class="JH"/><path d="M40.21 117.11l1.63 5.21" class="JC JD JF JI"/><path d="M39.33 118.22l-.19-4.49 2.41 3.79-2.22.7z" class="JG"/><path d="M15.8 90.88l9.21 3.89 1.56-3.68-9.21-3.9" class="JC JD JE"/><path d="M15.93 88.76l-8.29-3.51" class="JH"/><path d="M12.67 87.38l-5.03-2.13" class="JC JD JF JI"/><path d="M12.39 86l3.54 2.76-4.44-.62.9-2.14z" class="JG"/><g class="JC JD"><path d="M46 91.86h-9.44v-9.44h-4.94V96.8H46v-4.94z" class="JE"/><path d="M132.88 24.86v-14.3m69.33 14.3v-14.3" stroke="#666" class="JJ"/><path d="M197.78 19.56h-60.47" class="JF JK"/></g><path d="M196.78 18.1l5.43 1.46-5.43 1.45V18.1zm-58.48 0l-5.42 1.46 5.42 1.45V18.1z" class="JG"/><g class="JC JD"><path d="M207.46 30.11h15.35m-15.35 69.33h15.35" stroke="#666" class="JJ"/><path d="M213.81 95.01V34.54" stroke="red" class="JK"/></g><path d="M215.26 94.02l-1.45 5.42-1.46-5.42h2.91zm0-58.49l-1.45-5.42-1.46 5.42h2.91z" fill="red"/><defs ><path id="B" d="M144.05 41.28h46.98v46.98h-46.98z"/><path id="C" d="M144.06 41.29h46.97v46.97h-46.97z"/><path id="D" d="M144.06 41.29h46.96v46.96h-46.96z"/><path id="E" d="M144.07 41.3h46.95v46.95h-46.95z"/><path id="F" d="M144.08 41.31h46.93v46.93h-46.93z"/><path id="G" d="M144.09 41.32H191v46.91h-46.91z"/><path id="H" d="M144.1 41.33h46.89v46.89H144.1z"/><path id="I" d="M144.11 41.34h46.87v46.87h-46.87z"/><path id="J" d="M144.11 41.35h46.85V88.2h-46.85z"/><path id="K" d="M144.12 41.36h46.84V88.2h-46.84z"/><path id="L" d="M144.13 41.36h46.83v46.83h-46.83z"/><path id="M" d="M144.13 41.36h46.82v46.82h-46.82z"/><path id="N" d="M144.14 41.37h46.81v46.81h-46.81z"/><path id="O" d="M144.14 41.37h46.8v46.8h-46.8z"/><path id="P" d="M144.15 41.38h46.79v46.79h-46.79z"/><path id="Q" d="M144.15 41.38h46.78v46.78h-46.78z"/><path id="R" d="M144.16 41.39h46.77v46.77h-46.77z"/><path id="S" d="M144.16 41.39h46.76v46.76h-46.76z"/><path id="T" d="M144.17 41.4h46.75v46.75h-46.75z"/><path id="U" d="M144.18 41.41h46.73v46.73h-46.73z"/><path id="V" d="M144.19 41.42h46.71v46.71h-46.71z"/><path id="W" d="M144.2 41.43h46.69v46.69H144.2z"/><path id="X" d="M144.21 41.44h46.67v46.67h-46.67z"/><path id="Y" d="M144.21 41.45h46.65V88.1h-46.65z"/><path id="Z" d="M144.22 41.46h46.64V88.1h-46.64z"/><path id="a" d="M144.23 41.46h46.63v46.63h-46.63z"/><path id="b" d="M144.23 41.46h46.62v46.62h-46.62z"/><path id="c" d="M144.24 41.47h46.61v46.61h-46.61z"/><path id="d" d="M144.24 41.47h46.6v46.6h-46.6z"/><path id="e" d="M144.25 41.48h46.59v46.59h-46.59z"/><path id="f" d="M144.25 41.48h46.58v46.58h-46.58z"/><path id="g" d="M144.26 41.49h46.57v46.57h-46.57z"/><path id="h" d="M144.26 41.49h46.56v46.56h-46.56z"/><path id="i" d="M144.27 41.5h46.55v46.55h-46.55z"/><path id="j" d="M144.28 41.51h46.53v46.53h-46.53z"/><path id="k" d="M144.29 41.52h46.51v46.51h-46.51z"/><path id="l" d="M144.3 41.53h46.49v46.49H144.3z"/><path id="m" d="M144.31 41.54h46.47v46.47h-46.47z"/><path id="n" d="M144.31 41.55h46.45V88h-46.45z"/><path id="o" d="M144.32 41.56h46.44V88h-46.44z"/><path id="p" d="M144.33 41.56h46.43v46.43h-46.43z"/><path id="q" d="M144.33 41.56h46.42v46.42h-46.42z"/><path id="r" d="M144.34 41.57h46.41v46.41h-46.41z"/><path id="s" d="M144.34 41.57h46.4v46.4h-46.4z"/><path id="t" d="M144.35 41.58h46.39v46.39h-46.39z"/><path id="u" d="M144.35 41.58h46.38v46.38h-46.38z"/><path id="v" d="M144.36 41.59h46.37v46.37h-46.37z"/><path id="w" d="M144.36 41.59h46.36v46.36h-46.36z"/><path id="x" d="M144.37 41.6h46.35v46.35h-46.35z"/><path id="y" d="M144.38 41.61h46.33v46.33h-46.33z"/><path id="z" d="M144.39 41.62h46.31v46.31h-46.31z"/><path id="AA" d="M144.4 41.63h46.29v46.29H144.4z"/><path id="AB" d="M144.41 41.64h46.27v46.27h-46.27z"/><path id="AC" d="M144.41 41.65h46.25V87.9h-46.25z"/><path id="AD" d="M144.42 41.66h46.24V87.9h-46.24z"/><path id="AE" d="M144.43 41.66h46.23v46.23h-46.23z"/><path id="AF" d="M144.43 41.66h46.22v46.22h-46.22z"/><path id="AG" d="M144.44 41.67h46.21v46.21h-46.21z"/><path id="AH" d="M144.44 41.67h46.2v46.2h-46.2z"/><path id="AI" d="M144.45 41.68h46.19v46.19h-46.19z"/><path id="AJ" d="M144.45 41.68h46.18v46.18h-46.18z"/><path id="AK" d="M144.46 41.69h46.17v46.17h-46.17z"/><path id="AL" d="M144.46 41.69h46.16v46.16h-46.16z"/><path id="AM" d="M144.47 41.7h46.15v46.15h-46.15z"/><path id="AN" d="M144.48 41.71h46.13v46.13h-46.13z"/><path id="AO" d="M144.49 41.72h46.11v46.11h-46.11z"/><path id="AP" d="M144.5 41.73h46.09v46.09H144.5z"/><path id="AQ" d="M144.51 41.74h46.07v46.07h-46.07z"/><path id="AR" d="M144.51 41.75h46.05V87.8h-46.05z"/><path id="AS" d="M144.52 41.76h46.04V87.8h-46.04z"/><path id="AT" d="M144.53 41.76h46.03v46.03h-46.03z"/><path id="AU" d="M144.53 41.76h46.02v46.02h-46.02z"/><path id="AV" d="M144.54 41.77h46.01v46.01h-46.01z"/><path id="AW" d="M144.55 41.78h45.99v45.99h-45.99z"/><path id="AX" d="M144.55 41.78h45.98v45.98h-45.98z"/><path id="AY" d="M144.56 41.79h45.97v45.97h-45.97z"/><path id="AZ" d="M144.56 41.79h45.96v45.96h-45.96z"/><path id="Aa" d="M144.57 41.8h45.95v45.95h-45.95z"/><path id="Ab" d="M144.58 41.81h45.93v45.93h-45.93z"/><path id="Ac" d="M144.59 41.82h45.91v45.91h-45.91z"/><path id="Ad" d="M144.6 41.83h45.89v45.89H144.6z"/><path id="Ae" d="M144.61 41.84h45.87v45.87h-45.87z"/><path id="Af" d="M144.61 41.85h45.85V87.7h-45.85z"/><path id="Ag" d="M144.62 41.86h45.84V87.7h-45.84z"/><path id="Ah" d="M144.63 41.86h45.83v45.83h-45.83z"/><path id="Ai" d="M144.63 41.86h45.82v45.82h-45.82z"/><path id="Aj" d="M144.64 41.87h45.81v45.81h-45.81z"/><path id="Ak" d="M144.64 41.87h45.8v45.8h-45.8z"/><path id="Al" d="M144.65 41.88h45.79v45.79h-45.79z"/><path id="Am" d="M144.65 41.88h45.78v45.78h-45.78z"/><path id="An" d="M144.66 41.89h45.77v45.77h-45.77z"/><path id="Ao" d="M144.66 41.89h45.76v45.76h-45.76z"/><path id="Ap" d="M144.67 41.9h45.75v45.75h-45.75z"/><path id="Aq" d="M144.68 41.91h45.73v45.73h-45.73z"/><path id="Ar" d="M144.69 41.92h45.71v45.71h-45.71z"/><path id="As" d="M144.7 41.93h45.69v45.69H144.7z"/><path id="At" d="M144.71 41.94h45.67v45.67h-45.67z"/><path id="Au" d="M144.71 41.95h45.65V87.6h-45.65z"/><path id="Av" d="M144.72 41.96h45.64V87.6h-45.64z"/><path id="Aw" d="M144.73 41.96h45.63v45.63h-45.63z"/><path id="Ax" d="M144.73 41.96h45.62v45.62h-45.62z"/><path id="Ay" d="M144.74 41.97h45.61v45.61h-45.61z"/><path id="Az" d="M144.74 41.97h45.6v45.6h-45.6z"/><path id="BA" d="M144.75 41.98h45.59v45.59h-45.59z"/><path id="BB" d="M144.75 41.98h45.58v45.58h-45.58z"/><path id="BC" d="M144.76 41.99h45.57v45.57h-45.57z"/><path id="BD" d="M144.76 41.99h45.56v45.56h-45.56z"/><path id="BE" d="M144.77 42h45.55v45.55h-45.55z"/><path id="BF" d="M144.78 42.01h45.53v45.53h-45.53z"/><path id="BG" d="M144.79 42.02h45.51v45.51h-45.51z"/><path id="BH" d="M144.8 42.03h45.49v45.49H144.8z"/><path id="BI" d="M144.81 42.04h45.47v45.47h-45.47z"/><path id="BJ" d="M144.81 42.05h45.45V87.5h-45.45z"/><path id="BK" d="M144.82 42.06h45.44V87.5h-45.44z"/><path id="BL" d="M144.83 42.06h45.43v45.43h-45.43z"/><path id="BM" d="M144.83 42.06h45.42v45.42h-45.42z"/><path id="BN" d="M144.84 42.07h45.41v45.41h-45.41z"/><path id="BO" d="M144.84 42.07h45.4v45.4h-45.4z"/><path id="BP" d="M144.85 42.08h45.39v45.39h-45.39z"/><path id="BQ" d="M144.85 42.08h45.38v45.38h-45.38z"/><path id="BR" d="M144.86 42.09h45.37v45.37h-45.37z"/><path id="BS" d="M144.86 42.09h45.36v45.36h-45.36z"/><path id="BT" d="M144.87 42.1h45.35v45.35h-45.35z"/><path id="BU" d="M144.88 42.11h45.33v45.33h-45.33z"/><path id="BV" d="M144.89 42.12h45.31v45.31h-45.31z"/><path id="BW" d="M144.9 42.13h45.29v45.29H144.9z"/><path id="BX" d="M144.91 42.14h45.27v45.27h-45.27z"/><path id="BY" d="M144.91 42.15h45.25V87.4h-45.25z"/><path id="BZ" d="M144.92 42.16h45.24V87.4h-45.24z"/><path id="Ba" d="M144.93 42.16h45.23v45.23h-45.23z"/><path id="Bb" d="M144.93 42.16h45.22v45.22h-45.22z"/><path id="Bc" d="M144.94 42.17h45.21v45.21h-45.21z"/><path id="Bd" d="M144.94 42.17h45.2v45.2h-45.2z"/><path id="Be" d="M144.95 42.18h45.19v45.19h-45.19z"/><path id="Bf" d="M144.95 42.18h45.18v45.18h-45.18z"/><path id="Bg" d="M144.96 42.19h45.17v45.17h-45.17z"/><path id="Bh" d="M144.96 42.19h45.16v45.16h-45.16z"/><path id="Bi" d="M144.97 42.2h45.15v45.15h-45.15z"/><path id="Bj" d="M144.98 42.21h45.13v45.13h-45.13z"/><path id="Bk" d="M144.99 42.22h45.11v45.11h-45.11z"/><path id="Bl" d="M145 42.23h45.09v45.09H145z"/><path id="Bm" d="M145.01 42.24h45.07v45.07h-45.07z"/><path id="Bn" d="M145.01 42.25h45.05V87.3h-45.05z"/><path id="Bo" d="M145.02 42.26h45.04V87.3h-45.04z"/><path id="Bp" d="M145.03 42.26h45.03v45.03h-45.03z"/><path id="Bq" d="M145.03 42.26h45.02v45.02h-45.02z"/><path id="Br" d="M145.04 42.27h45.01v45.01h-45.01z"/></defs></svg>