<svg xmlns="http://www.w3.org/2000/svg" version="1.1" xmlns:xlink="http://www.w3.org/1999/xlink" width="45.35" height="45.35"><svg id="SvgjsSvg1017" data-name="圖層 1" xmlns="http://www.w3.org/2000/svg" xmlns:xlink="http://www.w3.org/1999/xlink" viewBox="0 0 45.35 45.35">
  <defs>
    <style>
      .cls-1 {
        fill: #182a88;
      }

      .cls-2 {
        fill: none;
        stroke: #fff;
        stroke-linecap: round;
        stroke-miterlimit: 10;
        stroke-width: .09px;
      }

      .cls-3 {
        fill: url(#_未命名漸層_3);
      }

      .cls-4 {
        fill: #9fa0a0;
      }

      .cls-5 {
        fill: #e60013;
      }
    </style>
    <radialGradient id="SvgjsRadialGradient1016" data-name="未命名漸層 3" cx="20.95" cy="13.57" fx="20.95" fy="13.57" r="23.27" gradientTransform="translate(21.06 -13.37) rotate(45)" gradientUnits="userSpaceOnUse">
      <stop offset="0" stop-color="#fff"></stop>
      <stop offset=".06" stop-color="#fffef9"></stop>
      <stop offset=".13" stop-color="#fffce9"></stop>
      <stop offset=".21" stop-color="#fff9ce"></stop>
      <stop offset=".3" stop-color="#fff5a9"></stop>
      <stop offset=".4" stop-color="#fff079"></stop>
      <stop offset=".49" stop-color="#ffe93f"></stop>
      <stop offset=".59" stop-color="#ffe300"></stop>
      <stop offset=".75" stop-color="#ffe100"></stop>
      <stop offset=".86" stop-color="#ffe000"></stop>
      <stop offset=".93" stop-color="#fff794"></stop>
    </radialGradient>
  </defs>
  <rect class="cls-1" x="3.99" y="27.13" width="14.49" height="14.49"></rect>
  <rect class="cls-5" x="19.71" y="27.13" width="14.49" height="14.49"></rect>
  <rect class="cls-4" x="3.99" y="11.49" width="14.49" height="14.49"></rect>
  <circle class="cls-3" cx="26.68" cy="18.74" r="14.88" transform="translate(-5.44 24.35) rotate(-45)"></circle>
  <g id="SvgjsG1015">
    <path class="cls-2" d="M32.96,32.16c-.77-.34-1.76-.83-2.86-1.48"></path>
    <path class="cls-2" d="M18.33,6.5c-.15,1.36-.29,3.57-.04,6.16"></path>
    <path class="cls-2" d="M18.29,12.66c.16,1.57.46,3.28,1,5.01"></path>
    <path class="cls-2" d="M25.08,26.93c-1.3-1.24-2.55-2.69-3.6-4.39"></path>
    <path class="cls-2" d="M21.48,22.54c-.1-.17-.21-.34-.31-.51-.83-1.43-1.44-2.91-1.89-4.36"></path>
    <path class="cls-2" d="M30.1,30.68c-1.55-.91-3.33-2.14-5.02-3.74"></path>
    <path class="cls-2" d="M19.88,28.13c2.08,2.13,4.38,3.36,6.53,4.05"></path>
    <path class="cls-2" d="M16.56,23.44c-.85-1.66-1.37-3.26-1.65-4.78"></path>
    <path class="cls-2" d="M30.85,32.98c-1.29-.07-2.82-.29-4.43-.8"></path>
    <path class="cls-2" d="M14.77,13.78c-.19,1.49-.19,3.13.14,4.88"></path>
    <path class="cls-2" d="M16.79,7.67c-.83,1.51-1.7,3.6-2.02,6.11"></path>
    <path class="cls-2" d="M16.56,23.44c.16.32.33.64.52.96.85,1.48,1.8,2.71,2.8,3.73"></path>
    <path class="cls-2" d="M32.27,16.35c.94,1.75,1.57,3.55,1.99,5.29"></path>
    <path class="cls-2" d="M25.32,8.65c-2.13-1.53-4.13-2.53-5.4-3.08"></path>
    <path class="cls-2" d="M32.27,16.35c-.1-.18-.2-.37-.3-.55-.82-1.42-1.78-2.67-2.8-3.78"></path>
    <path class="cls-2" d="M34.25,21.64c.53,2.23.71,4.35.73,6.14"></path>
    <path class="cls-2" d="M34.98,27.78c.01,1.32-.06,2.45-.15,3.3"></path>
    <path class="cls-2" d="M25.32,8.65c1.28.92,2.61,2.04,3.84,3.38"></path>
    <path class="cls-2" d="M38.19,25.1c.42-2.14.46-4.63-.3-7.35"></path>
    <path class="cls-2" d="M38.19,25.1c-.35,1.81-.97,3.36-1.6,4.6"></path>
    <path class="cls-2" d="M37.89,17.75c-.39-1.38-.98-2.83-1.84-4.32-.17-.29-.34-.58-.52-.85"></path>
    <path class="cls-2" d="M21.67,4.83c1.75.03,4.06.33,6.45,1.35"></path>
    <path class="cls-2" d="M32.26,8.77c1.16,1.01,2.27,2.26,3.27,3.81"></path>
    <path class="cls-2" d="M32.26,8.77c-1.34-1.16-2.75-2-4.13-2.59"></path>
    <line class="cls-2" x1="32.54" y1="29.36" x2="29.83" y2="24.67"></line>
    <line class="cls-2" x1="32.54" y1="29.36" x2="33.88" y2="31.67"></line>
    <line class="cls-2" x1="27.12" y1="19.98" x2="24.42" y2="15.29"></line>
    <line class="cls-2" x1="21.88" y1="10.89" x2="24.42" y2="15.29"></line>
    <line class="cls-2" x1="27.12" y1="19.98" x2="29.83" y2="24.67"></line>
    <line class="cls-2" x1="21.88" y1="10.89" x2="19.07" y2="6.03"></line>
    <line class="cls-2" x1="12.89" y1="13.65" x2="29.32" y2="4.16"></line>
    <line class="cls-2" x1="35.72" y1="6.99" x2="11.97" y2="20.7"></line>
    <line class="cls-2" x1="39.59" y1="11.28" x2="13.76" y2="26.19"></line>
    <line class="cls-2" x1="41.38" y1="16.77" x2="17.62" y2="30.49"></line>
    <line class="cls-2" x1="40.63" y1="23.74" x2="24.03" y2="33.32"></line>
  </g>
</svg><style>@media (prefers-color-scheme: light) { :root { filter: none; } }
@media (prefers-color-scheme: dark) { :root { filter: none; } }
</style></svg>