<svg xmlns="http://www.w3.org/2000/svg" viewBox="0 0 595.3 283.3" xmlns:v="https://vecta.io/nano"><style><![CDATA[.M{font-family:ArialMT,Arial}.N{font-size:12px}]]></style><path d="M0 0h595.3v283.3H0z" fill="#fff"/><g stroke-miterlimit="10" fill="none"><g stroke="#231f20" stroke-width=".25"><path d="M84.15 257.13V19.48"/><path d="M62.89 251.73h509.97M62.89 224.71h509.97M62.89 197.72h509.97M62.89 170.7h509.97M62.89 143.71h509.97M62.89 116.69h509.97M62.89 89.7h509.97M62.89 62.68h509.97M62.89 35.69h509.97"/><path d="M190.37 257.13V19.48m106.29 237.65V19.48m106.21 237.65V19.48m106.29 237.65V19.48"/></g><g stroke="#333" stroke-width=".1"><path d="M105.41 251.73V19.48m21.18 232.25V19.48m21.26 232.25V19.48m21.26 232.25V19.48m42.52 232.25V19.48m21.25 232.25V19.48m21.26 232.25V19.48m21.26 232.25V19.48m42.52 232.25V19.48m21.25 232.25V19.48m21.18 232.25V19.48m21.26 232.25V19.48m42.52 232.25V19.48m21.26 232.25V19.48m21.25 232.25V19.48m21.26 232.25V19.48m42.52 232.25V19.48m21.26 232.25V19.48"/><use href="#B"/><use href="#B" y="-5.4"/><use href="#B" y="-10.8"/><use href="#B" y="-16.2"/><use href="#B" y="-27.01"/><use href="#B" y="-32.41"/><use href="#B" y="-37.82"/><use href="#B" y="-43.22"/><use href="#B" y="-54.01"/><use href="#B" y="-59.41"/><use href="#B" y="-64.81"/><use href="#B" y="-70.21"/><use href="#B" y="-81.02"/><use href="#B" y="-86.42"/><use href="#B" y="-91.83"/><use href="#B" y="-97.23"/><use href="#B" y="-108.01"/><use href="#B" y="-113.42"/><use href="#B" y="-118.82"/><use href="#B" y="-124.22"/><use href="#B" y="-135.03"/><use href="#B" y="-140.43"/><use href="#B" y="-145.83"/><use href="#B" y="-151.24"/><use href="#B" y="-162.02"/><use href="#B" y="-167.43"/><use href="#B" y="-172.83"/><use href="#B" y="-178.23"/><use href="#B" y="-189.04"/><use href="#B" y="-194.44"/><use href="#B" y="-199.84"/><use href="#B" y="-205.25"/><use href="#B" y="-216.03"/><use href="#B" y="-221.44"/><path d="M348.95 143.63h4.96m4.89 0h4.97m31.88 0h4.97m-91.32-32.34h4.97"/></g></g><g stroke-linecap="round" stroke-linejoin="round"><path d="M477.2 251.73c12.06-8.14 24.75-16.13 34.71-26.97 15.29-15.69 23.09-37.22 12.69-57.77-13.3-27.73-48.52-46.38-75.32-58.96-10.66-5.17-23-9.49-34.21-13.87a269.21 269.21 0 0 0-19.98-6.87l-23.85-7.33c-15.16-4.65-31.74-8.28-47.14-12.25-15.96-4.01-33.51-7.05-49.65-10.44a452.24 452.24 0 0 0-23.12-4.19c-31.68-5.45-64.92-10-96.96-13.83-22.24-2.66-47.79-4.64-70.22-6.89" fill="none" stroke="#00f"/><path d="M476.89,251.73c9.03-4.56,19.23-8.4,27.62-13.97,25.04-15.41,36.35-35.49,9.91-57.15-7.57-5.36-14.42-10.17-23.08-14.02-7.68-3.4-15.16-7.3-23.04-9.96-8.8-2.91-20.27-7.3-29.38-9.87-12.66-3.3-28.52-8.11-41.24-10.76-101.86-23.21-211.12-33.02-313.53-39.42" fill="none" stroke="#090"/><path d="M418.7 251.73c9.95-6.28 20.77-11.84 29.86-19.37 22.31-17.36 37.61-42.01 20.71-68.95-5.02-8.43-12.49-15.32-20.01-21.57-4.45-3.79-9.1-6.87-14.13-9.93-7.55-4.61-14.4-9.07-22.46-12.69l-18.75-8.59c-10.71-4.93-24.22-9.13-35.55-13.34-14.37-5.24-30.7-9.16-45.33-13.48-6.92-2-10.43-2.78-17.6-4.4-16.77-3.65-33.67-8-49.54-10.71l-49.67-8.65-44.65-6.22c-21.1-2.75-47.6-5.05-67.43-7.26" fill="none" stroke="red"/><path d="M418.47 251.73c12.18-5.27 25.51-10.3 36.76-17.84 19.6-12.25 29.82-30.25 10.28-48.51-14.08-12.44-31.86-19.55-49.03-26.16l-20.87-6.85c-11.64-3.86-24.99-6.76-36.99-9.89-89.76-20.83-183.46-29.56-274.46-35.9" fill="none" stroke="#90c"/></g><text class="M N"><tspan x="44.84" y="255.69">0</tspan><tspan x="38.43" y="227.65">50</tspan><tspan x="32.37" y="200.91">100</tspan><tspan x="32.37" y="173.91">150</tspan><tspan x="32.37" y="146.78">200</tspan><tspan x="32.37" y="119.39">250</tspan><tspan x="32.37" y="91.48">300</tspan><tspan x="32.37" y="66.36">350</tspan><tspan x="32.37" y="39.7">400</tspan><tspan x="78" y="268.7">0</tspan><tspan x="184.29" y="268.7">50</tspan><tspan x="288.78" y="268.7">100</tspan><tspan x="389.87" y="268.7">150</tspan><tspan x="500.7" y="268.7">200</tspan></text><text fill="#00f" class="M N"><tspan x="446.51" y="101.85">Ø600 (90°)</tspan></text><text fill="#090" class="M N"><tspan x="197.16" y="103.31">Ø600 (45°)</tspan></text><text fill="red" class="M N"><tspan x="317.62" y="113.23">Ø550 (90°)</tspan></text><text fill="#90c" class="M N"><tspan x="338.9" y="163.79">Ø550 (45°)</tspan></text><defs ><path id="B" d="M84.15 246.32h488.71"/></defs></svg>