<svg xmlns="http://www.w3.org/2000/svg" viewBox="0 0 170 132" xmlns:v="https://vecta.io/nano"><style><![CDATA[.G{stroke-linecap:round}.H{stroke-linejoin:round}.I{stroke-width:.5}.J{fill-rule:evenodd}.K{fill:#636363}.L{font-family:ArialMT,Arial}]]></style><g fill="none" class="G H"><g stroke="#000" stroke-width=".1"><path d="M137.36 32.19l-14.58 14.58m-7.95 7.94l-13.26 13.24m-2.64 2.66l-2.66 2.65m-2.65 2.65L80.36 89.15m-2.64 2.66l-2.65 2.64m-2.65 2.65l-14.59 14.57M8.96 57.72l19.05 7.88m3.46 1.44l3.47 1.43m3.47 1.44l17.31 7.17"/><path d="M59.18 78.51l3.46 1.44m3.47 1.42l17.32 7.18m3.46 1.44l3.46 1.42m3.47 1.44l19.05 7.89M81.7 9.14v20.62"/><path d="M81.7 33.5v3.75m0 3.75v18.73m0 3.75v3.75m0 3.74v18.74m0 3.74v3.75m0 3.75v20.6M2.96 87.83h15m3.76 0h3.74m3.75 0h18.75m3.74 0h3.75m3.76 0h18.74m3.75 0h3.74m3.75 0h18.75m3.74 0h3.76m3.75 0h18.74m3.75 0h3.74m3.75 0h18.76"/></g><path d="M112.89,84.09c-.69-5.18-3.3-11.53-6.49-15.66" stroke="#08bee9" class="I"/></g><path d="M113.51 84.05l-1.25.07.85 3.71.4-3.78m-7.59-15.2l.94-.83-2.95-2.39 2.01 3.22" class="J"/><path d="M112.03 79.7h.01v.01h-.01zm25.32-47.52h.01v.01h-.01zm-79.52 79.49h.01v.01h-.01zM2.96 87.83h.01v.01h-.01z"/><path d="M127.69,84.08c-1.99-22.38-19.86-40.25-42.25-42.21" fill="none" stroke="#00de1e" class="G H I"/><path d="M128.31 84.05l-1.24.06.76 3.72.48-3.78m-42.9-41.56l.06-1.25-3.77.47 3.71.78" class="J"/><path d="M121.65 64.77h.01v.01h-.01zM81.69 9.14h.01v.01h-.01zm0 112.4h.01v.01h-.01zM2.96 87.83h.01v.01h-.01z"/><path d="M142.25 84.08c-1.38-23.3-17.21-44.74-39.05-52.95m-19.33-3.89c-23.44-.91-46.43 12.87-56.68 33.97" fill="none" stroke="#ee3328" class="G H I"/><path d="M142.87 84.07l-1.24.04.74 3.72.5-3.76M27.76 61.47l-1.14-.52-.98 3.68 2.12-3.16" class="J"/><path d="M118.63 39.72h.01v.01h-.01zM8.96 57.71h.01v.01h-.01zm103.91 43.02h.01v.01h-.01zM2.96 87.83h.01v.01h-.01z"/><path d="M2.96 87.83h.01v.01h-.01z"/><path d="M2.96 87.83h.01v.01h-.01z"/><path d="M2.96 87.83h.01v.01h-.01z"/><text font-size="9" class="K L"><tspan x="83.47" y="29.52">157.5°</tspan></text><text transform="matrix(.681998 .731354 -.731354 .681998 112.34 50.53)" font-size="9" class="K L"><tspan x="0" y="0">90°</tspan></text><text transform="matrix(.422618 .906308 -.906308 .422618 110.37 69.55)" font-size="9" class="K L"><tspan x="0" y="0">45°</tspan></text></svg>