<svg xmlns="http://www.w3.org/2000/svg" viewBox="0 0 170 132" xmlns:v="https://vecta.io/nano"><style><![CDATA[.G{stroke-linecap:round}.H{stroke-linejoin:round}.I{stroke-width:.5}.J{fill-rule:evenodd}.K{fill:#636363}.L{font-family:ArialMT,Arial}]]></style><g fill="none" stroke="#000" stroke-width=".1" class="G H"><path d="M1.74 87.83h18.75m3.74 0h3.75m3.76 0h18.74m3.75 0h3.74m3.75 0h18.75m3.74 0h3.76m3.75 0h18.74m3.75 0h3.74m3.75 0h18.76m3.74 0h3.75m3.75 0h14.99M32.29 32.19l14.59 14.58m7.96 7.94l13.25 13.24"/><path d="M70.74 70.61l2.65 2.65m2.64 2.65l13.26 13.24m2.65 2.66l2.65 2.64m2.65 2.65l14.58 14.57m48.88-53.95l-19.05 7.88m-3.47 1.44l-3.46 1.43m-3.46 1.44l-17.31 7.17"/><path d="M110.49 78.51l-3.48 1.44m-3.46 1.42l-17.31 7.18m-3.47 1.44l-3.46 1.42m-3.46 1.44l-19.06 7.89m31.18-91.6v20.62"/><path d="M87.97 33.5v3.75m0 3.75v18.73m0 3.75v3.75m0 3.74v18.74m0 3.74v3.75m0 3.75v20.6"/></g><use href="#B"/><use href="#B"/><use href="#B"/><path d="M62.21,67.39c-3.49,4.54-6.18,11.04-6.92,16.71" fill="none" stroke="#08bee9" class="G H I"/><path d="M61.75 66.96l.92.84 2.04-3.21-2.96 2.37m-5.84 17.16l-1.24-.07.41 3.78.83-3.71" class="J"/><use href="#B" x="-107.21" y="-16.45"/><use href="#B"/><use href="#B" x="-134.39" y="-55.65"/><use href="#B" x="-54.87" y="23.84"/><path d="M84.23 41.16C61.44 43.17 43.28 61.3 41.27 84.08" fill="none" stroke="#00de1e" class="G H I"/><path d="M84.2 40.54l.04 1.24 3.73-.77-3.77-.47M41.9 84.11l-1.26-.06.48 3.78.78-3.72" class="J"/><use href="#B" x="-102.14" y="-40.55"/><use href="#B"/><use href="#B" x="-78.72" y="-78.69"/><use href="#B" x="-78.72" y="33.71"/><path d="M143.14 60.93c-10.47-21.47-33.62-35.33-57.49-34.41m-19.33 3.9c-22.17 8.29-38.24 30.03-39.63 53.66" fill="none" stroke="#ee3328" class="G H I"/><path d="M143.71 60.68l-1.14.51 2.12 3.16-.98-3.67M27.32 84.11l-1.25-.04.51 3.76.74-3.72" class="J"/><use href="#B" x="-62.84" y="-59.27"/><use href="#B"/><use href="#B" x="-5.98" y="-30.12"/><use href="#B" x="-109.89" y="12.9"/><text font-size="9" class="K L"><tspan x="63.19" y="28.77">157.5°</tspan></text><text transform="matrix(.694658 -.71934 .71934 .694658 49.01 55.37)" font-size="9" class="K L"><tspan x="0" y="0">90°</tspan></text><text transform="matrix(.34202 -.939693 .939693 .34202 53.68 79.44)" font-size="9" class="K L"><tspan x="0" y="0">45°</tspan></text><defs ><path id="B" d="M166.68 87.83h.01v.01h-.01z"/></defs></svg>