<svg xmlns="http://www.w3.org/2000/svg" viewBox="0 0 1985.91 858.43" xmlns:v="https://vecta.io/nano"><path d="M893.73 412.07l-26-60.4h-117.2l-26 60.4h-66.4l120.8-279.6h60.4l120.8 279.6h-66.4zm-84.4-196.4l-35.2 81.2h70l-34.8-81.2zm183.2 196.4V132.46h62.4v224h119.2v55.6h-181.6zm295.2-72.21c10.4 12.94 24.4 19.4 42 19.4s31.53-6.46 41.8-19.4c10.26-12.93 15.4-30.6 15.4-53v-154.4h62.4v156.4c0 40.54-11.2 71.67-33.6 93.4-22.4 21.74-51.07 32.6-86 32.6s-63.67-10.93-86.2-32.8c-22.54-21.86-33.8-52.93-33.8-93.2v-156.4h62.4v154.4c0 22.4 5.2 40.07 15.6 53zm476.79-103.79l-75.6 152.8h-37.2l-75.2-152.8v176h-62.4V132.46h84.4l72 153.6 72.4-153.6h84v279.6h-62.4v-176zm-982.79 384.2l49.6-160.8h65.2l49.2 160.8 55.6-160.8h67.6l-97.6 279.6h-46.4l-61.2-194.4-60.8 194.4h-46.4l-97.6-279.6h67.6l55.2 160.8zm320.4-160.81h62.4v279.6h-62.4v-279.6zm326.8 0h62.4v279.6h-62.4l-133.2-175.2v175.2h-62.4v-279.6h58.4l137.2 180v-180zm344.79 36.61c26.66 24.4 40 58.34 40 101.8s-13 77.87-39 103.2c-26 25.34-65.67 38-119 38h-95.6v-279.6h98.8c49.86 0 88.13 12.2 114.8 36.6zm-45.8 166.2c15.33-14.4 23-35.33 23-62.8s-7.67-48.6-23-63.4c-15.34-14.8-38.87-22.2-70.6-22.2h-34.8v170h39.6c28.53 0 50.46-7.2 65.8-21.6z" fill="#231f20"/><g fill="#6d6e70"><path d="M135.83 160.22l279.78 108.52L105.3 109.09v635.48l310.31-159.66-279.78 108.52V160.22z"/><circle cx="178.09" cy="429.22" r="18.52" transform="matrix(.382683 -.92388 .92388 .382683 -286.61 429.49)"/></g><path d="M267.3 109.09v635.48l310.96-159.13V269.79L267.3 109.09zm148.31 524.87l-116.22 60.52V440.65h116.22v193.3zm0-221.09H299.39V160.09l116.22 59.87v192.91zm132.65 152.22l-102.52 53.22V440.66h102.52v124.43zm0-152.22H445.74V234.83l102.52 51.65v126.39z" fill="#26a9e0"/></svg>