<?xml version="1.0" encoding="UTF-8"?>
<svg id="Layer_1" data-name="Layer 1" xmlns="http://www.w3.org/2000/svg" viewBox="0 0 464.31 233.48">
  <defs>
    <style>
      .cls-1 {
        fill: #85d8de;
      }

      .cls-2 {
        fill: #fff;
      }

      .cls-3 {
        fill: #3fc2cb;
      }

      .cls-4 {
        stroke-linejoin: round;
        stroke-width: 2px;
      }

      .cls-4, .cls-5 {
        fill: #404040;
        stroke: #404040;
      }

      .cls-5 {
        fill-rule: evenodd;
        stroke-miterlimit: 10;
      }

rect#romb30,
rect#romb20,
rect#romb10 {
  animation: pulse-circle 5s infinite linear;
}
rect#romb60{animation: pulse-romb60 15s infinite linear;transform-origin: -13% 44%;}
rect#romb30{animation: pulse-romb30 8s infinite linear;transform-origin: 3% 62%;}
rect#romb20{animation: pulse-romb20 11s infinite linear;transform-origin: -15% 78%;}
rect#romb10{animation: pulse-romb10 6s infinite linear;transform-origin: -4% 82%;}

@keyframes pulse-romb60 {
    0% {transform: rotate(-45deg) scale(0.95) translate(-67.04px, 107.58px);}
    50% {transform: rotate(-45deg) scale(1) translate(-67.04px, 107.58px);}
    100% {transform: rotate(-45deg) scale(0.95) translate(-67.04px, 107.58px);}
}
@keyframes pulse-romb30 {
    0% {transform: rotate(-45deg) scale(0.95) translate(9.69px, 155.93px);}
    50% {transform: rotate(-45deg) scale(1) translate(9.69px, 155.93px);}
    100% {transform: rotate(-45deg) scale(0.95) translate(9.69px, 155.93px);}
}
@keyframes pulse-romb20 {
    0% {transform: rotate(-45deg) scale(0.95) translate(-74.28px, 189.95px);}
    50% {transform: rotate(-45deg) scale(1) translate(-74.28px, 189.95px);}
    100% {transform: rotate(-45deg) scale(0.95) translate(-74.28px, 189.95px);}
}
@keyframes pulse-romb10 {
    0% {transform: rotate(-45deg) scale(0.95) translate(-26.5px, 204.37px);}
    50% {transform: rotate(-45deg) scale(1) translate(-26.5px, 204.37px);}
    100% {transform: rotate(-45deg) scale(0.95) translate(-26.5px, 204.37px);}
}
    </style>
  </defs>
  <g>
    <rect id="romb60" class="cls-1" x="31.47" y="69.84" width="129.76" height="129.76" rx="17.47" ry="17.47"/>
    <rect id="romb30" class="cls-3" x="147.65" y="20.86" width="90.83" height="90.83" rx="12.23" ry="12.23"/>
    <rect id="romb20" class="cls-3" x="159.71" y="152.2" width="64.88" height="64.88" rx="8.74" ry="8.74"/>
    <rect id="romb10" class="cls-1" x="209.12" y="109.84" width="48.66" height="48.66" rx="6.55" ry="6.55"/>
  </g>
  <g id="arrows">
    <g>
      <line class="cls-4" x1="284.24" y1="50.47" x2="168.1" y2="111.76"/>
      <polygon class="cls-5" points="167.59 108.64 163.68 114.09 170.39 113.94 167.59 108.64 167.59 108.64"/>
    </g>
    <g>
      <line class="cls-4" x1="297.11" y1="158.35" x2="234.98" y2="175.55"/>
      <polygon class="cls-5" points="235.14 172.39 230.16 176.88 236.75 178.17 235.14 172.39 235.14 172.39"/>
    </g>
    <g>
      <line class="cls-4" x1="289.9" y1="104.19" x2="230.22" y2="98.91"/>
      <polygon class="cls-5" points="230.95 101.98 225.24 98.47 231.48 96.01 230.95 101.98 230.95 101.98"/>
    </g>
    <g>
      <line class="cls-4" x1="290.48" y1="215.05" x2="251.84" y2="159.1"/>
      <polygon class="cls-5" points="249.94 161.63 249 154.99 254.88 158.22 249.94 161.63 249.94 161.63"/>
    </g>
  </g>
  <g id="TEXT">
    <g>
      <path d="M376.19,220.33l-1.29.03v-1.22h-10.03v1.34h-1.29v-13.32h12.62v13.17ZM374.89,217.86v-9.49h-10.03v9.49h10.03ZM373.01,215.96h-6.32v-5.69h6.32v5.69ZM371.71,214.73v-3.25h-3.73v3.25h3.73Z"/>
      <path d="M386.27,208.43l-.85,1.05c-.63-.65-1.42-1.21-2.38-1.68-.2.44-.44.87-.71,1.29h2.37v1.23h-3.07c-.19.29-.36.52-.52.7h4.27v5.32h-3.41v.8h3.41v1.22h-3.41v.77h3.52v1.24h-3.52v.73h-1.28v-9.49c-.09.13-.24.3-.44.53l-1.05-.87c1.47-1.62,2.57-3.5,3.31-5.62l1.21.51-.21.51c.97.42,1.89,1,2.76,1.77ZM384.09,213.05v-.83h-2.12v.83h2.12ZM384.09,215.09v-.81h-2.12v.81h2.12ZM394.73,211.75h-9.23v-1.18h3.96v-.54h-3v-3.08h3v-1.14h1.28v1.14h3.02v3.08h-3.02v.54h3.99v1.18ZM394.46,220.23l-.85,1.02c-.92-.85-1.98-1.51-3.18-1.98l.68-.9h-1.99l.71.72c-.77.86-1.93,1.54-3.47,2.05l-.76-1.2c1.26-.17,2.27-.69,3.01-1.57h-2.11v-6.13h7.21v6.13h-2.28c1,.39,2.01,1.01,3.03,1.86ZM389.46,208.86v-.73h-1.79v.73h1.79ZM392.42,213.87v-.53h-4.62v.53h4.62ZM392.42,215.48v-.59h-4.62v.59h4.62ZM392.42,217.2v-.7h-4.62v.7h4.62ZM392.47,208.86v-.73h-1.73v.73h1.73Z"/>
      <path d="M411.94,214.73l-.56,1.33c-3.45-.53-5.82-1.15-7.11-1.87-1.33.64-2.65,1.1-3.96,1.38h7.99v5.39h-1.29v-.96h-5.69v1h-1.29v-5.4c-.67.18-1.68.36-3.04.54l-.65-1.22c2.69-.29,4.89-.81,6.62-1.57-.71-.52-1.32-1.05-1.83-1.59-.37.42-1.12,1.04-2.26,1.85l-1.12-.81c1.93-1.12,3.24-2.48,3.93-4.07l1.09.42c-.04.21-.15.47-.31.79h5.85v1.12c-.67.85-1.57,1.64-2.71,2.37,1.59.68,3.71,1.12,6.34,1.3ZM410.73,210.79h-1.29v-2.12h-10.59v2.12h-1.29v-3.36h5.94v-1.54h1.33v1.54h5.92v3.36ZM407,218.77v-1.98h-5.69v1.98h5.69ZM406.37,211.18h-4.03c.65.73,1.29,1.24,1.92,1.54.87-.48,1.58-.99,2.11-1.54Z"/>
      <path d="M427.08,213.89h-1.29v-.7h-8.67c.03,2.08-.14,3.69-.52,4.83-.37,1.14-1,2.16-1.88,3.07l-1.17-.91c1.51-1.28,2.26-3.13,2.26-5.53v-6.21h5.45c-.43-.71-1.13-1.36-2.09-1.95l.95-.83c1.01.61,1.85,1.39,2.53,2.34l-.56.39v.05h4.98v5.45ZM425.79,211.96v-2.29h-8.68v2.29h8.68Z"/>
    </g>
    <path d="M355.23,217.64h2.33v1.67c0,.67-.06,1.21-.17,1.6-.12.39-.34.74-.66,1.05-.32.31-.73.55-1.23.73l-.46-.96c.47-.16.81-.37,1-.64s.3-.64.32-1.11h-1.13v-2.33Z"/>
    <g>
      <path d="M313.73,220.28h-15.2v-1.17h2.77v-2.32h1.29v2.32h2.77v-3.03h-5.8v-1.24h13.2v1.24h-6.11v.81h5.3v1.18h-5.3v1.04h7.07v1.17ZM313.74,213.8l-.61.98c-1.43-.33-2.53-.86-3.32-1.59-.86.61-1.8,1.14-2.81,1.59l-.64-.96c.99-.4,1.87-.92,2.63-1.55-.32-.48-.59-1-.81-1.58l-.63.97-.9-.52v.85h-2.24c.79.24,1.56.67,2.3,1.29l-.81.95c-.48-.48-1.15-.9-2.02-1.26v1.72h-1.29v-2.48c-.5,1.08-1.61,1.98-3.31,2.67l-.6-1.05c1.27-.46,2.19-1.07,2.76-1.84h-1.75v-3.23h2.91v-.52h-3.64v-1.25h3.64v-1.19h1.29v1.19h3.57v1.25h-3.57v.52h2.76v2.06c.95-1.36,1.59-3.07,1.93-5.13l1.31.37c-.2.74-.37,1.33-.51,1.77h3.89v1.24h-.97c-.48,1.58-1,2.67-1.58,3.26.63.65,1.64,1.14,3.02,1.47ZM302.6,210.83v-.88h-1.68v.88h1.68ZM305.37,210.83v-.88h-1.48v.88h1.48ZM304.07,212h-.18v.27l.18-.27ZM311.03,209.07h-2.06l-.08.29c.4,1.07.73,1.76.98,2.06.57-.71.96-1.49,1.16-2.35Z"/>
      <path d="M331.05,212.2l-.85,1.14c-.48-.19-1.17-.58-2.08-1.16-.9-.59-1.62-1.14-2.17-1.65s-1.43-1.49-2.66-2.93c-1.56,1.92-3.86,3.9-6.9,5.95l-.92-1.02c3.49-2.3,6.08-4.69,7.75-7.16l1.25.85-.52.53c.96,1.19,2.16,2.32,3.59,3.4,1.43,1.08,2.6,1.76,3.5,2.05ZM328.25,221.13h-1.34v-1.05h-7.22v1.15h-1.34v-6.31h9.91v6.22ZM327.26,213.07h-8.11v-1.29h8.11v1.29ZM326.9,218.79v-2.64h-7.22v2.64h7.22Z"/>
      <path d="M337.48,210.13c-1.06,1.09-2.3,1.99-3.73,2.71l-.78-1.07c1.35-.39,2.56-1.2,3.64-2.43l.87.8ZM347.95,210.95l-.65,1.19c-2.25-.33-3.92-1.04-5.03-2.14-.88.95-2.1,1.55-3.67,1.8v.02h6.91v6.75h-2.31l-.03.02c1.54.21,3.11.71,4.71,1.51l-.71,1.07c-1.72-.93-3.65-1.47-5.79-1.63l.66-.97h-3.05l.71.81c-1.79,1-3.8,1.58-6.04,1.75l-.66-1.22c2.25-.11,4.15-.55,5.71-1.33v-.02h-3.16v-6.75h2.37l-.6-1.07c2.65-.22,4.2-1.05,4.66-2.48h-1.82c-.52.71-1.06,1.25-1.63,1.61l-1.09-.76c1.13-.64,2.05-1.76,2.75-3.36l.99.44c-.07.33-.16.61-.27.83h6.26c-.19.88-.58,1.84-1.15,2.86l-1.1-.56c.34-.45.54-.8.61-1.05h-2.26c-.15.34-.27.59-.36.75,1.05,1.12,2.73,1.77,5.05,1.94ZM337.13,208.04l-.77.97c-1-.97-1.97-1.55-2.91-1.74l.81-.97c1.01.32,1.96.9,2.87,1.74ZM344.23,213.7v-.65h-7.38v.65h7.38ZM344.23,215.59v-.82h-7.38v.82h7.38ZM344.23,217.39v-.73h-7.38v.73h7.38Z"/>
      <path d="M353.11,211.98l-.95.86c-.62-1.06-1.41-1.8-2.4-2.24l.91-.87c.91.43,1.72,1.18,2.45,2.26ZM353.49,214.2c-.48,2.67-1.34,4.83-2.58,6.47l-1.16-.71c1.37-1.62,2.19-3.71,2.48-6.28l1.26.51ZM353.9,208.63l-1,.81c-.42-.92-1.2-1.67-2.32-2.22l.91-.83c.86.37,1.66,1.11,2.42,2.24ZM364.58,207.87h-3.83c-.16.59-.27.98-.34,1.17h3.25v6h-2.9v4.59c0,1-.39,1.49-1.17,1.49h-1.63l-.44-1.27,1.31.07c.4.02.6-.16.6-.51v-4.37h-2.96v-6h2.61c.19-.35.33-.75.42-1.17h-3.99v7.04c0,2.28-.64,4.36-1.93,6.25l-1.24-.73c1.25-1.84,1.87-3.87,1.87-6.07v-7.74h10.37v1.25ZM358.73,215.96c-.56,1.37-1.48,2.61-2.76,3.74l-1.07-.85c1.37-.98,2.25-2.14,2.66-3.47l1.16.58ZM362.37,211.25v-.96h-4.61v.96h4.61ZM362.37,213.8v-1.31h-4.61v1.31h4.61ZM364.97,219l-1.15.7c-.47-1.6-1.27-2.85-2.4-3.75l1.18-.56c.88.72,1.67,1.93,2.38,3.62Z"/>
    </g>
    <g>
      <path d="M312.53,155.9h-11.53c-.02,1.71-.05,2.93-.11,3.66s-.23,1.5-.51,2.32-.75,1.58-1.4,2.31l-1.09-.71c.75-.95,1.24-1.81,1.46-2.58.22-.77.34-1.8.34-3.08v-3.15h1.1l-.77-1.14c.26.01.52.02.79.02,1.48,0,2.93-.19,4.33-.56v-.03c-1.39-.19-2.72-.3-3.99-.34l.62-1.15c2.28.19,3.96.41,5.06.66.43-.23.78-.48,1.07-.75h-9.08v-1.22h6.17c-.35-.27-.84-.51-1.48-.73l1.29-.76c.73.41,1.3.91,1.7,1.49h5.88v1.22h-2.7c-.25.34-.69.74-1.31,1.2,1.2.35,2.22.81,3.06,1.38l-.53.73h1.64v1.24ZM312.85,163.38h-11.9v-1.2h5.29v-1.34h-3.47v-1.17h3.47v-1.26h-2.74c-.4.72-.87,1.29-1.39,1.72l-1.09-.75c1.03-.73,1.7-1.87,2.01-3.42l1.2.5-.23.73h2.24l.02-1.14,1.28.02v1.12h4.22v1.22h-4.22v1.26h3.72v1.19h-3.72v1.33h5.32v1.2ZM309.98,154.66c-.89-.51-1.91-.91-3.06-1.21-1.33.54-2.3.86-2.89.96-.59.1-1.32.18-2.17.21v.03h8.13Z"/>
      <path d="M321.86,163.94h-1.29v-1.15h-3.13v1.22l-1.29-.03v-7.65h5.71v7.62ZM320.57,161.54v-3.98h-3.13v3.98h3.13ZM327.45,155.02h-9.65v-5.59h9.65v5.59ZM326.33,153.91v-3.39h-7.35v3.39h7.35ZM329.2,163.88h-1.29v-1.18h-3.23v1.18h-1.29v-7.6h5.81v7.6ZM327.91,161.46v-3.94h-3.23v3.94h3.23Z"/>
      <path d="M333.96,158.54c-.1,1.36-.43,2.69-1,3.98l-1.02-.12c.6-1.26.98-2.6,1.14-4.02l.88.16ZM347.67,153.96l-.9.9c-.89-.68-1.58-1.28-2.08-1.78v.61h-3.96v-.44h-.04c-.13.21-.8.79-2,1.72l-.19-.21-.02.53h-1.53v1.25h1.7c0,1.39-.06,2.82-.19,4.28s-.33,2.35-.59,2.64-.64.44-1.11.44c-.2,0-.67-.08-1.41-.22l-.18-1.29c.78.2,1.31.3,1.59.3.14,0,.26-.22.34-.66l.24-1.23-.7.19c-.09-.92-.26-1.78-.51-2.57l.88-.25c.25.85.39,1.41.41,1.68h.03c.03-.62.04-1.31.02-2.08h-4.48v-8.25h6.29v1.23h-2.33v1.05h1.69v1.15h-1.69v1.1h1.07l-.12-.08c2.05-1.45,3.47-3.27,4.25-5.48l1.25.51-.17.36c1.2,1.98,2.67,3.51,4.42,4.59ZM335.07,158.54c0,1.26-.12,2.4-.37,3.41h-1.07c.31-1.1.47-2.23.49-3.41h.95ZM335.75,151.8v-1.05h-1.49v1.05h1.49ZM335.75,154.06v-1.1h-1.49v1.1h1.49ZM335.75,156.55v-1.25h-1.49v1.25h1.49ZM336.26,161.38l-.99.2c.01-.35.02-.65.02-.91,0-.8-.06-1.51-.17-2.12l.91-.14c.19.89.26,1.88.22,2.98ZM342.84,161.72l-.7.93c-.43-.17-.88-.53-1.34-1.07-.45,1.06-1.02,1.9-1.7,2.5l-.86-.75c1-.96,1.68-2.35,2.05-4.17l1.1.34c0,.32-.07.63-.2.94.48.52,1.03.94,1.65,1.28ZM342.34,158.91h-3.25v-4.23h3.25v4.23ZM341.22,157.76v-1.93h-.97v1.93h.97ZM344.1,152.47l-1.49-1.96c-.44.84-.88,1.49-1.33,1.96h2.82ZM347.31,163.02l-.81.9c-.97-.71-1.65-1.37-2.06-1.99-.38.78-.91,1.48-1.59,2.09l-.84-.78c1.21-1.22,1.89-2.63,2.04-4.23l1.17.31c-.06.48-.17.97-.34,1.48.85,1.04,1.66,1.78,2.43,2.22ZM346.27,158.91h-3.25v-4.23h3.25v4.23ZM345.13,157.76v-1.93h-.99v1.93h.99Z"/>
      <path d="M364.57,155.71l-1.07.86c-.15-.09-.52-.38-1.1-.88v3.7h-6.14v-3.74c-.27.28-.63.61-1.09,1l-.51-.47v.62h-4.69v-1.23h4.48c.71-.59,1.29-1.19,1.73-1.79-.37-.55-.84-.98-1.41-1.29l.16-.05v-.04h-5.61v-1.22h5.76v1.09l.68-.54c.34.23.7.58,1.09,1.03.34-.51.6-1.12.76-1.82h-2.77v-1.22h4.17c-.08,1.32-.45,2.55-1.1,3.7h2.76c-.7-1.27-1.18-2.71-1.45-4.3l1.22-.36c.05.75.21,1.44.46,2.09.58-.5,1.06-1,1.43-1.51l.9.75c-.46.67-1.12,1.28-1.95,1.83.13.34.24.58.34.71.38-.23.88-.74,1.51-1.54l.88.78c-.75.87-1.36,1.43-1.83,1.68.58.9,1.38,1.62,2.4,2.14ZM354.64,154.58h-4.67v-1.23h4.67v1.23ZM354.67,150.3h-4.54v-1.24h4.54v1.24ZM354.54,163.73h-1.23v-1.12h-1.78v1.18h-1.22v-5.74h4.23v5.68ZM353.31,161.39v-2.11h-1.78v2.11h1.78ZM363.82,163.36h-8.89v-1.22h3.13c-.09-.51-.59-1.23-1.5-2.16l1.2-.46c.76.67,1.27,1.42,1.54,2.23l-.86.36v.03h.81c.81-.92,1.31-1.81,1.49-2.66l1.23.56c-.38.89-.78,1.58-1.2,2.09h3.05v1.22ZM362.22,155.57c-.26-.26-.62-.7-1.09-1.3l.02.39h-3.69v-.56h-.03c-.32.56-.68,1.06-1.1,1.48h5.89ZM361.1,158.18v-1.34h-3.55v1.34h3.55Z"/>
      <path d="M381.38,162.77l-.88,1.2c-1.81-.48-3.58-1.39-5.29-2.74-1.22,1.08-2.99,2-5.29,2.74l-.83-1.14c2.26-.7,3.97-1.52,5.13-2.48-1.38-1.38-2.46-3.06-3.23-5.03-.24,3.56-1.58,6.4-4.01,8.52l-1.05-.96c.99-.75,1.8-1.75,2.44-2.98.64-1.24,1.04-2.51,1.21-3.81.16-1.31.25-2.96.25-4.95h-2.35v-1.29h10.12v1.12l-1.36,3.06h3.29c-.49,2.45-1.6,4.54-3.33,6.28,1.45,1.1,3.18,1.92,5.18,2.47ZM377.86,155.27h-2.11l-.39.82-1.25-.41,1.97-4.54h-4.87v1.19c1.08,3.27,2.43,5.64,4.04,7.11,1.11-1.21,1.98-2.6,2.62-4.17Z"/>
      <path d="M389.51,152.45h-6.31v-1.25h6.31v1.25ZM388.96,150.24h-5.11v-1.24h5.11v1.24ZM388.96,154.74h-5.11v-1.26h5.11v1.26ZM388.96,157.06h-5.11v-1.25h5.11v1.25ZM388.79,163.92h-1.29v-1.17h-2.38v1.17h-1.27v-5.66h4.95v5.66ZM387.5,161.53v-2.04h-2.38v2.04h2.38ZM398.75,162.75l-.92,1.15c-1.75-.66-3.12-1.41-4.13-2.24-1.49,1.12-2.82,1.88-3.99,2.28l-.75-.9c1.21-.44,2.47-1.19,3.79-2.25-.65-.64-1.33-1.82-2.06-3.54h-.71v-1.24h7.22c-.32,1.89-1.18,3.48-2.57,4.79,1,.79,2.38,1.44,4.12,1.94ZM398.4,152.79c-.21,1.41-.66,2.11-1.38,2.11h-1.04c-.88,0-1.31-.42-1.31-1.25v-3.08h-2.34c-.01.98-.04,1.71-.09,2.18s-.22.95-.51,1.43c-.29.48-.7.97-1.22,1.46l-1.04-.94c1.03-.86,1.54-1.75,1.54-2.67v-2.7h4.93v3.98c0,.24.11.36.34.36h.44c.25,0,.41-.44.47-1.33l1.2.46ZM395.52,157.26h-3.45c.54,1.23,1.09,2.13,1.67,2.71.92-1,1.52-1.9,1.79-2.71Z"/>
      <path d="M406.91,152.45h-6.87v-1.25h6.87v1.25ZM406.12,150.24h-5.15v-1.24h5.15v1.24ZM406.12,154.74h-5.15v-1.26h5.15v1.26ZM406.12,157.06h-5.15v-1.25h5.15v1.25ZM405.94,163.92h-1.31v-1.17h-2.39v1.17h-1.28v-5.66h4.98v5.66ZM404.63,161.53v-2.04h-2.39v2.04h2.39ZM415.4,155h-3.83v8.97h-1.29v-8.97h-3.54v-1.25h3.54v-5.06h1.29v5.06h3.83v1.25Z"/>
      <path d="M422.74,153.32h-1.84v3.18c.24-.07.83-.3,1.75-.7v1.28l-1.75.7v4.92c-.13.83-.51,1.25-1.14,1.25h-1.79l-.37-1.28h1.69c.06,0,.13-.07.21-.21s.12-.24.12-.32v-3.94l-1.88.68-.88-1.02c1.43-.48,2.35-.8,2.76-.97v-3.57h-2.28v-1.25h2.28v-3.34h1.29v3.34h1.84v1.25ZM432.17,160c-.21,1.54-.49,2.52-.86,2.93s-.79.62-1.25.62h-5.03c-.36,0-.75-.15-1.17-.44-.42-.29-.63-.61-.63-.94v-12.39h7.82v7.58h-6.52v4.41c0,.36.22.54.67.54h4.56c.24,0,.46-.14.64-.43s.38-1.02.57-2.18l1.2.31ZM426.49,156.12v-5.1h-1.97v5.1h1.97ZM429.76,156.12v-5.1h-1.97v5.1h1.97Z"/>
      <path d="M442.06,159.13l-.71.19c.03,1.55-.28,2.65-.93,3.27-.66.63-1.84.96-3.56.99l-.46-1.2c1.52-.04,2.63-.29,3.32-.76v-.03h-2.71v-1.98h1.29v.83h1.79s.05-.38.08-1.1h.81l-.28-.47c-.8.17-2.02.36-3.64.57-.03-.05-.1-.25-.19-.6-.09-.35-.17-.61-.24-.78h1.05c.05-.08.17-.17.36-.28.19-.11.3-.2.34-.26-.73-.38-1.35-.72-1.85-1.04l.57-.96c.05.04.16.1.32.17.16.07.28.15.34.24.59-.92.94-1.52,1.05-1.78h-2.71v9.93h-1.29v-14.6h6.28v4.67h-1.65v.05l.55.38c-.18.27-.45.6-.8,1-.36.39-.6.66-.71.8l.58.28c.26-.29.78-.93,1.56-1.92l.85.68c-.85.99-1.68,1.87-2.51,2.63l1.46-.07-.52-.49,1.04-.44c.48.61.86,1.3,1.14,2.07ZM439.86,151.24v-.54h-3.75v.54h3.75ZM439.84,152.99l-.02-.6h-3.72v.6h3.74ZM448.41,162.27c0,.43-.16.77-.46,1.02-.31.25-.75.37-1.3.38l-1.27.02-.39-1.15h1.68s.14-.05.27-.16.2-.21.2-.3v-7.98h-2.81v.05l.54.39-1.3,1.77.44.32c.45-.49.98-1.19,1.59-2.09l.92.66c-.75.92-1.57,1.84-2.48,2.76.75,0,1.24-.02,1.46-.05l-.44-.63,1.05-.39c.57.79.94,1.56,1.1,2.3l-1.12.33c-.07-.28-.15-.56-.24-.83l-3.59.47c-.12-.4-.25-.76-.41-1.07h.97l.54-.61-2.06-1.21.75-.91s.22.17.52.47c.55-.65.98-1.23,1.27-1.74h-1.71v-4.67h6.28v12.85ZM446.16,161.59h-2.96v2.11h-1.29v-4.37h1.29v1.1h1.66v-.83h1.29v1.98ZM447.12,151.19v-.55h-3.71v.55h3.71ZM447.12,152.34h-3.71v.6h3.69l.02-.6Z"/>
    </g>
    <g>
      <path d="M312.55,102.8h-2.89c-.62,1.82-1.33,3.12-2.12,3.89,2.1.79,3.71,1.59,4.82,2.4l-.83,1.12c-.77-.68-2.45-1.54-5.03-2.6-2.09,1.56-4.54,2.47-7.33,2.71l-.83-1.2c2.72-.2,4.91-.86,6.57-1.96-1.44-.46-2.87-.83-4.28-1.12,1.1-1.55,1.78-2.63,2.04-3.25h-4.1v-1.24h4.78l1.41-2.69,1.17.58-1.12,2.11h7.74v1.24ZM312.07,100.22h-1.25v-1.85h-10.53v1.85h-1.27v-3.1h5.86v-1.88h1.31v1.88h5.88v3.1ZM308.28,102.8h-4.07l-1.43,2.43c1.34.35,2.48.68,3.4.99,1.07-.98,1.77-2.12,2.09-3.42Z"/>
      <path d="M321.8,106.6l-.97.91c-.4-.71-1.06-1.41-1.97-2.09-.63,1.96-1.6,3.54-2.91,4.73l-1.04-.85c1.11-1.15,1.87-2.15,2.26-3.02.4-.87.65-1.95.75-3.25h-2.32v-1.25h2.37v-2.47h-2.11v-1.24h2.12l-.03-2.74h1.3v2.74h1.86v1.24h-1.86v2.47h2.22v1.25h-2.22c-.03.57-.08.93-.15,1.09,1.04.65,1.94,1.47,2.69,2.48ZM330.4,106.85c-.25,1.93-.74,2.89-1.46,2.89h-1.98c-.38,0-.69-.13-.91-.39s-.34-.59-.34-1v-3.71h-.95c-.27,3.08-1.92,4.91-4.96,5.51l-.58-1.25c2.61-.32,4.01-1.74,4.22-4.27h-1.75v-8.82h7.07v8.82h-1.75v3.47c0,.26.11.39.32.39h1.07c.23,0,.4-.15.51-.44s.2-.84.25-1.64l1.25.43ZM327.45,98.26v-1.2h-4.48v1.2h4.48ZM327.45,100.79v-1.29h-4.48v1.29h4.48ZM327.45,103.4v-1.36h-4.48v1.36h4.48Z"/>
      <path d="M336,101.41l-.95.85c-.6-.94-1.48-1.7-2.66-2.3l.83-.86c1.18.57,2.1,1.34,2.77,2.31ZM336.31,103.58c-.25,2.14-1.09,4.22-2.5,6.23l-1.1-.6c1.28-1.88,2.11-3.9,2.46-6.07l1.14.44ZM336.67,97.6l-.9.87c-.61-.89-1.49-1.58-2.64-2.06l.87-.85c1.06.47,1.95,1.15,2.66,2.03ZM339.27,106.75c-.79,1.62-1.67,2.79-2.63,3.5l-1.02-.83c1.13-.82,1.99-1.92,2.58-3.28l1.07.61ZM342.02,105.93h-5.1v-10.1h5.1v10.1ZM340.74,98.57v-1.49h-2.52v1.49h2.52ZM340.74,101.49v-1.68h-2.52v1.68h2.52ZM340.74,104.69v-1.95h-2.52v1.95h2.52ZM342.77,109.47l-1.17.66c-.28-1.12-.97-2.21-2.08-3.26l1.1-.71c.85.86,1.57,1.97,2.14,3.31ZM344.44,106.53h-1.29v-9.63h1.29v9.63ZM346.77,108.84c0,.42-.14.75-.43,1.02-.29.26-.65.39-1.09.39h-1.43l-.57-1.44,1.75.08c.32.02.47-.17.47-.56v-13.23h1.29v13.74Z"/>
      <path d="M350.96,104.8c-.1,1.36-.43,2.69-1,3.98l-1.02-.12c.6-1.26.98-2.6,1.14-4.02l.88.16ZM364.67,100.22l-.9.9c-.89-.68-1.58-1.28-2.08-1.78v.61h-3.96v-.44h-.04c-.13.22-.8.79-2,1.72l-.19-.21-.02.53h-1.53v1.25h1.7c0,1.39-.06,2.82-.19,4.28s-.33,2.35-.59,2.64-.64.44-1.11.44c-.2,0-.67-.07-1.41-.22l-.18-1.29c.78.2,1.31.3,1.59.3.14,0,.26-.22.34-.66l.24-1.23-.7.19c-.09-.92-.26-1.78-.51-2.57l.88-.25c.25.85.39,1.41.41,1.68h.03c.03-.62.04-1.31.02-2.08h-4.48v-8.25h6.29v1.23h-2.33v1.05h1.69v1.15h-1.69v1.1h1.07l-.12-.08c2.05-1.44,3.47-3.27,4.25-5.48l1.25.51-.17.36c1.2,1.98,2.67,3.51,4.42,4.59ZM352.07,104.8c0,1.26-.12,2.4-.37,3.41h-1.07c.31-1.1.47-2.23.49-3.41h.95ZM352.75,98.06v-1.05h-1.49v1.05h1.49ZM352.75,100.32v-1.1h-1.49v1.1h1.49ZM352.75,102.8v-1.25h-1.49v1.25h1.49ZM353.26,107.63l-.99.2c.01-.35.02-.65.02-.91,0-.8-.06-1.51-.17-2.12l.91-.14c.19.89.26,1.88.22,2.98ZM359.84,107.97l-.7.93c-.43-.17-.88-.53-1.34-1.07-.45,1.06-1.02,1.9-1.7,2.5l-.86-.75c1-.96,1.68-2.35,2.05-4.17l1.1.34c0,.32-.07.63-.2.94.48.51,1.03.94,1.65,1.28ZM359.34,105.17h-3.25v-4.23h3.25v4.23ZM358.22,104.01v-1.93h-.97v1.93h.97ZM361.1,98.73l-1.49-1.96c-.44.84-.88,1.49-1.33,1.96h2.82ZM364.31,109.28l-.81.9c-.97-.71-1.65-1.37-2.06-1.99-.38.78-.91,1.48-1.59,2.09l-.84-.78c1.21-1.22,1.89-2.63,2.04-4.23l1.17.31c-.06.48-.17.97-.34,1.48.85,1.04,1.66,1.78,2.43,2.22ZM363.27,105.17h-3.25v-4.23h3.25v4.23ZM362.13,104.01v-1.93h-.99v1.93h.99Z"/>
    </g>
    <g>
      <path d="M312.17,56.5h-1.29v-.78h-10.69v.83h-1.29v-14.39h13.28v14.34ZM310.88,54.47v-11.08h-10.69v11.08h10.69ZM305.85,52.13l-5.05,1.07-.53-1.14,5.53-1.13.05,1.2ZM310.54,51.21c-.19,1.33-.4,2.19-.61,2.58s-.49.58-.82.58c-.45,0-1.04-.63-1.77-1.88-.81.9-1.54,1.55-2.19,1.93l-1.05-.75c1.39-1.07,2.3-1.89,2.72-2.45-.4-1.16-.67-2.79-.81-4.9h-5.47v-1.24h5.44v-1.57h1.29v1.57h1.14c-.24-.33-.56-.64-.95-.95l1.2-.63c.37.39.79.93,1.25,1.62l.58-.02v1.22h-3.21c.08,1.42.24,2.64.46,3.66.53-.94.98-2.02,1.36-3.25l1.12.64c-.59,1.52-1.27,2.85-2.03,3.98.43.96.71,1.44.85,1.44.11,0,.22-.7.34-2.11l1.15.51ZM305.64,50.67h-4.64v-3.59h4.64v3.59ZM304.35,49.43v-1.1h-2.12v1.1h2.12Z"/>
      <path d="M330.33,49.33l-.81,1.07c-1.19-.74-2.04-1.54-2.56-2.4h-.03v.7h-3.88v-.46h-.03c-.7.88-1.66,1.73-2.89,2.56-.25,1.17-.82,1.75-1.7,1.75-.27,0-.61-.05-1.02-.15l-.34-1.39c.7.21,1.11.32,1.25.32.35,0,.52-.32.52-.96,0-.89-.53-1.91-1.59-3.08l1.38-3.88h-1.57v13.16h-1.29v-14.39h4.23v1.29l-1.3,3.62c.67.79,1.13,1.47,1.36,2.06.55-.27,1.04-.63,1.46-1.09-.26-.31-.6-.6-1.02-.88.07-.1.21-.25.43-.44.21-.2.36-.35.44-.46.34.25.64.56.9.92.13-.14.29-.37.49-.7-.12-.15-.53-.47-1.22-.95l.73-.95c.14.08.44.32.91.7.1-.25.2-.67.29-1.24h-1.33c-.43,1.33-1.09,2.46-1.98,3.4l-1.15-.61c1.4-1.69,2.24-3.6,2.53-5.71l1.22.36c-.06.4-.15.84-.27,1.32h2.35c-.08,2-.5,3.58-1.26,4.73h3.08c-1.08-1.77-1.73-3.86-1.93-6.28h1.2c0,.51.17,1.39.49,2.65.33,1.26.56,1.89.69,1.89.09,0,.28-.33.56-.99s.45-1.01.47-1.05h-1.64v-1.24h3v1.12c0,.24-.19.75-.58,1.51s-.75,1.38-1.08,1.83c.32.63,1.15,1.41,2.5,2.35ZM323.42,52.57c-.6.94-1.66,1.95-3.16,3.03l-.85-1c1.37-.89,2.4-1.84,3.1-2.86l.91.83ZM328.83,51.33h-3.12v3.84c0,.39-.15.7-.45.95s-.66.37-1.07.37h-1.36l-.37-1.22,1.23.03c.29.01.47-.03.56-.12.08-.09.12-.25.12-.46v-3.39h-3.2v-1.24h7.66v1.24ZM330.27,54.68l-.93,1.04c-.74-1.14-1.82-2.17-3.23-3.1l.91-.86c1.32.82,2.4,1.8,3.25,2.92Z"/>
      <path d="M338.39,45.04h-6.17v-1.25h6.17v1.25ZM337.67,42.83h-4.96v-1.24h4.96v1.24ZM337.67,47.22h-4.96v-1.25h4.96v1.25ZM337.67,49.46h-4.96v-1.24h4.96v1.24ZM339.98,51.26c-.29,1.46-.86,2.68-1.71,3.68l-.89-.53v1.82h-1.22v-1.14h-2.01v1.14h-1.26v-5.63h4.49v3.4h.03c.59-.74,1.07-1.78,1.43-3.13l1.14.39ZM336.16,53.85v-2.01h-2.01v2.01h2.01ZM346.85,41.93c-.07,1.42-.18,2.75-.35,4s-.33,2.04-.49,2.36c-.16.32-.36.56-.61.7-.25.14-.56.21-.95.21s-.89-.07-1.51-.22l-.16-1.39c.69.25,1.21.38,1.58.38.33,0,.57-.23.71-.7.14-.47.28-1.84.4-4.1h-2.86c-.09.94-.23,1.71-.41,2.33.46.3.86.62,1.19.94l-.8,1c-.31-.31-.6-.56-.87-.75-.6,1.17-1.66,2.13-3.18,2.87l-.85-.91c1.47-.73,2.46-1.6,2.99-2.64-.72-.43-1.34-.73-1.83-.9l.76-.97c.52.19,1.02.42,1.5.7.12-.46.2-1.02.23-1.67h-2.71v-1.24h8.21ZM345.64,53.58c-.25,1.65-.76,2.48-1.54,2.48h-2.29c-.43,0-.76-.12-1-.35-.24-.24-.36-.56-.36-.96v-3.79h1.25v3.47c0,.1.04.2.13.27.09.08.18.12.27.12h1.6c.17,0,.32-.07.43-.21.12-.14.18-.25.18-.35l.08-1.25,1.24.56ZM344.23,51.92c-.37.24-.75.44-1.14.6-.35-1.06-.96-1.99-1.82-2.81l1.04-.53c.93.83,1.57,1.74,1.92,2.74ZM347.7,54.08l-1.1.71c-.34-1.21-.99-2.33-1.93-3.36l1.09-.6c.9.99,1.55,2.07,1.95,3.25Z"/>
      <path d="M364.57,48.24l-1.07.86c-.15-.09-.52-.38-1.1-.88v3.7h-6.14v-3.74c-.27.28-.63.61-1.09,1l-.51-.47v.61h-4.69v-1.23h4.48c.71-.59,1.29-1.19,1.73-1.78-.37-.55-.84-.98-1.41-1.29l.16-.05v-.04h-5.61v-1.22h5.76v1.09l.68-.54c.34.23.7.58,1.09,1.03.34-.51.6-1.12.76-1.82h-2.77v-1.22h4.17c-.08,1.32-.45,2.55-1.1,3.7h2.76c-.7-1.27-1.18-2.71-1.45-4.3l1.22-.36c.05.75.21,1.44.46,2.09.58-.5,1.06-1,1.43-1.51l.9.75c-.46.67-1.12,1.28-1.95,1.83.13.34.24.58.34.71.38-.23.88-.74,1.51-1.54l.88.78c-.75.87-1.36,1.43-1.83,1.69.58.9,1.38,1.62,2.4,2.14ZM354.64,47.1h-4.67v-1.23h4.67v1.23ZM354.67,42.83h-4.54v-1.24h4.54v1.24ZM354.54,56.26h-1.23v-1.12h-1.78v1.18h-1.22v-5.74h4.23v5.68ZM353.31,53.92v-2.11h-1.78v2.11h1.78ZM363.82,55.88h-8.89v-1.22h3.13c-.09-.51-.59-1.23-1.5-2.16l1.2-.46c.76.68,1.27,1.42,1.54,2.23l-.86.36v.03h.81c.81-.92,1.31-1.81,1.49-2.66l1.23.56c-.38.89-.78,1.58-1.2,2.09h3.05v1.22ZM362.22,48.1c-.26-.26-.62-.69-1.09-1.3l.02.39h-3.69v-.56h-.03c-.32.56-.68,1.06-1.1,1.48h5.89ZM361.1,50.7v-1.34h-3.55v1.34h3.55Z"/>
    </g>
  </g>
  <path class="cls-2" d="M242.19,134.43c0-.77.17-1.34.51-1.71s.8-.56,1.37-.56,1.07.18,1.4.55.51.94.51,1.71-.17,1.34-.51,1.71-.8.56-1.37.56-1.07-.18-1.4-.55-.51-.94-.51-1.71ZM243.47,134.41c0,.56.06.93.19,1.12.1.14.23.21.4.21s.31-.07.41-.21c.12-.19.19-.57.19-1.12s-.06-.93-.19-1.12c-.1-.14-.23-.22-.41-.22s-.31.07-.4.21c-.13.19-.19.57-.19,1.12ZM245.32,141.22h-1.22l4.58-9.06h1.18l-4.54,9.06ZM247.98,138.97c0-.77.17-1.34.51-1.71s.8-.56,1.39-.56,1.05.19,1.39.56.51.94.51,1.71-.17,1.35-.51,1.72-.8.56-1.37.56-1.07-.19-1.4-.56-.51-.94-.51-1.72ZM249.27,138.96c0,.56.06.93.19,1.12.1.14.23.22.4.22s.31-.07.4-.21c.13-.19.19-.57.19-1.12s-.06-.93-.19-1.12c-.1-.14-.23-.21-.41-.21s-.31.07-.4.21c-.13.19-.19.57-.19,1.12Z"/>
  <g>
    <path class="cls-2" d="M228.81,140.88h-2.47v-9.31c-.9.84-1.97,1.47-3.19,1.87v-2.24c.64-.21,1.34-.61,2.1-1.2.76-.59,1.27-1.28,1.56-2.06h2v12.94Z"/>
    <path class="cls-2" d="M236.64,127.94c1.25,0,2.22.45,2.93,1.34.84,1.05,1.26,2.8,1.26,5.25s-.42,4.19-1.27,5.26c-.7.88-1.67,1.32-2.92,1.32s-2.26-.48-3.03-1.45c-.77-.96-1.15-2.68-1.15-5.15s.42-4.17,1.27-5.24c.7-.88,1.67-1.32,2.92-1.32ZM236.64,129.99c-.3,0-.57.1-.8.29s-.42.53-.54,1.02c-.17.64-.25,1.71-.25,3.23s.08,2.55.23,3.12.34.94.58,1.13c.23.19.5.28.79.28s.57-.09.8-.29.42-.53.54-1.02c.17-.63.25-1.71.25-3.22s-.08-2.55-.23-3.12c-.15-.56-.34-.94-.58-1.13s-.5-.29-.79-.29Z"/>
  </g>
  <path class="cls-2" d="M202.55,185.03c0-1.02.23-1.78.67-2.28s1.06-.74,1.83-.74,1.42.25,1.87.74.67,1.25.67,2.28-.23,1.78-.67,2.28c-.45.49-1.06.74-1.83.74s-1.42-.25-1.87-.74-.67-1.25-.67-2.28ZM204.26,185.02c0,.74.09,1.24.26,1.5.13.19.31.28.54.28s.42-.09.55-.28c.17-.25.25-.75.25-1.5s-.08-1.24-.25-1.49c-.13-.19-.31-.29-.55-.29s-.41.09-.54.28c-.17.25-.26.75-.26,1.5ZM206.72,194.07h-1.62l6.09-12.06h1.57l-6.04,12.06ZM210.26,191.07c0-1.02.22-1.78.67-2.28.45-.49,1.06-.74,1.84-.74s1.4.25,1.85.74c.45.49.67,1.25.67,2.28s-.22,1.79-.67,2.28c-.45.49-1.06.74-1.83.74s-1.42-.25-1.87-.74c-.45-.49-.67-1.25-.67-2.28ZM211.97,191.07c0,.74.09,1.24.26,1.49.13.19.31.29.54.29s.41-.09.54-.28c.17-.25.26-.75.26-1.5s-.08-1.24-.25-1.5c-.13-.19-.31-.28-.55-.28s-.41.09-.54.28c-.17.25-.26.75-.26,1.5Z"/>
  <g>
    <path class="cls-2" d="M187.38,190.59v3.06h-11.54c.12-1.16.5-2.25,1.12-3.29s1.86-2.41,3.7-4.12c1.48-1.38,2.39-2.32,2.73-2.81.45-.68.68-1.35.68-2.02,0-.73-.2-1.3-.59-1.69s-.94-.59-1.63-.59-1.23.21-1.64.62-.64,1.1-.7,2.06l-3.28-.33c.2-1.81.81-3.11,1.84-3.9s2.32-1.18,3.87-1.18c1.7,0,3.03.46,4,1.37s1.45,2.05,1.45,3.41c0,.77-.14,1.51-.42,2.21s-.72,1.43-1.32,2.2c-.4.51-1.12,1.24-2.16,2.19s-1.7,1.59-1.97,1.9-.5.62-.67.91h6.54Z"/>
    <path class="cls-2" d="M195.15,176.39c1.66,0,2.96.59,3.9,1.78,1.12,1.41,1.68,3.74,1.68,7s-.56,5.59-1.69,7.01c-.93,1.17-2.23,1.76-3.89,1.76s-3.02-.64-4.04-1.93-1.54-3.58-1.54-6.87.56-5.56,1.69-6.98c.93-1.17,2.23-1.76,3.89-1.76ZM195.15,179.13c-.4,0-.75.13-1.07.38s-.55.71-.73,1.37c-.23.85-.34,2.29-.34,4.3s.1,3.4.3,4.15.46,1.26.77,1.51.66.38,1.06.38.75-.13,1.07-.38.55-.71.73-1.37c.23-.84.34-2.27.34-4.29s-.1-3.4-.3-4.15-.46-1.26-.77-1.51-.66-.38-1.06-.38Z"/>
  </g>
  <path class="cls-2" d="M207.1,68.44c0-1.15.25-2.01.76-2.57s1.19-.83,2.06-.83,1.6.28,2.1.83.76,1.41.76,2.57-.25,2.01-.76,2.57-1.19.83-2.06.83-1.6-.28-2.1-.83-.76-1.41-.76-2.57ZM209.03,68.42c0,.84.1,1.4.29,1.69.15.21.35.32.61.32s.47-.11.62-.32c.19-.29.28-.85.28-1.69s-.09-1.4-.28-1.68c-.15-.22-.35-.33-.62-.33s-.46.11-.61.32c-.19.29-.29.85-.29,1.69ZM211.81,78.64h-1.83l6.86-13.6h1.78l-6.81,13.6ZM215.8,75.25c0-1.15.25-2.01.76-2.57s1.2-.83,2.08-.83,1.58.28,2.09.83.76,1.41.76,2.57-.25,2.02-.76,2.58-1.19.83-2.06.83-1.6-.28-2.11-.83-.76-1.42-.76-2.58ZM217.72,75.24c0,.84.1,1.4.29,1.68.15.22.35.33.61.33s.47-.11.61-.32c.19-.29.29-.85.29-1.69s-.09-1.4-.28-1.69c-.15-.21-.35-.32-.62-.32s-.47.11-.61.32c-.19.29-.29.85-.29,1.69Z"/>
  <g>
    <path class="cls-2" d="M172.01,72.06l4.26-.52c.14,1.08.5,1.91,1.1,2.49.59.57,1.31.86,2.16.86.91,0,1.67-.34,2.29-1.03s.93-1.62.93-2.78c0-1.11-.3-1.98-.89-2.63-.59-.65-1.32-.97-2.17-.97-.56,0-1.24.11-2.02.33l.48-3.58c1.19.03,2.1-.23,2.72-.77.63-.55.94-1.27.94-2.18,0-.77-.23-1.39-.69-1.85s-1.07-.69-1.83-.69-1.39.26-1.92.78c-.53.52-.86,1.28-.97,2.28l-4.05-.69c.28-1.39.71-2.5,1.27-3.32s1.36-1.48,2.38-1.96c1.02-.47,2.16-.71,3.42-.71,2.16,0,3.89.69,5.19,2.06,1.07,1.13,1.61,2.4,1.61,3.82,0,2.01-1.1,3.62-3.3,4.82,1.31.28,2.36.91,3.15,1.89.79.98,1.18,2.16,1.18,3.55,0,2.01-.74,3.73-2.21,5.15-1.47,1.42-3.3,2.13-5.49,2.13-2.08,0-3.8-.6-5.16-1.79-1.37-1.19-2.16-2.76-2.38-4.69Z"/>
    <path class="cls-2" d="M197.39,55.12c2.22,0,3.96.79,5.21,2.38,1.49,1.88,2.24,4.99,2.24,9.34s-.75,7.46-2.25,9.36c-1.24,1.56-2.97,2.35-5.19,2.35s-4.03-.86-5.4-2.57c-1.37-1.72-2.05-4.77-2.05-9.18s.75-7.43,2.25-9.32c1.24-1.56,2.97-2.35,5.19-2.35ZM197.39,58.76c-.53,0-1.01.17-1.42.51-.42.34-.74.95-.97,1.82-.3,1.14-.45,3.05-.45,5.74s.14,4.54.41,5.55c.27,1.01.61,1.68,1.02,2.01.41.33.88.5,1.42.5s1.01-.17,1.42-.51c.42-.34.74-.95.97-1.82.3-1.13.45-3.04.45-5.73s-.14-4.54-.41-5.55c-.27-1.01-.61-1.68-1.02-2.02s-.88-.51-1.42-.51Z"/>
  </g>
  <path class="cls-2" d="M115.15,137.53c0-1.79.39-3.12,1.18-3.99.79-.86,1.85-1.3,3.2-1.3s2.48.43,3.27,1.29,1.18,2.19,1.18,3.99-.39,3.12-1.18,3.99c-.79.87-1.85,1.3-3.2,1.3s-2.48-.43-3.27-1.29c-.79-.86-1.18-2.19-1.18-3.99ZM118.14,137.5c0,1.3.15,2.18.45,2.62.23.33.54.49.94.49s.73-.16.96-.49c.29-.45.44-1.32.44-2.62s-.15-2.17-.44-2.61c-.23-.34-.55-.5-.96-.5s-.71.16-.94.49c-.3.45-.45,1.32-.45,2.62ZM122.45,153.36h-2.84l10.66-21.12h2.76l-10.58,21.12ZM128.65,148.11c0-1.79.39-3.12,1.18-3.99.79-.86,1.86-1.3,3.23-1.3s2.46.43,3.24,1.3c.79.87,1.18,2.19,1.18,3.99s-.39,3.13-1.18,4c-.79.86-1.85,1.3-3.2,1.3s-2.48-.43-3.27-1.3c-.79-.87-1.18-2.2-1.18-4ZM131.64,148.09c0,1.3.15,2.17.45,2.61.23.34.54.5.94.5s.72-.16.94-.49c.3-.45.45-1.32.45-2.62s-.15-2.18-.44-2.62c-.23-.33-.55-.49-.96-.49s-.72.16-.94.49c-.3.45-.45,1.32-.45,2.62Z"/>
  <g>
    <path class="cls-2" d="M84.9,126.65l-6.38.7c-.16-1.31-.56-2.28-1.22-2.91s-1.51-.94-2.55-.94c-1.39,0-2.57.62-3.53,1.88s-1.57,3.85-1.82,7.8c1.64-1.94,3.68-2.91,6.12-2.91,2.75,0,5.11,1.05,7.07,3.14s2.94,4.8,2.94,8.11c0,3.52-1.03,6.34-3.09,8.46s-4.71,3.19-7.95,3.19c-3.47,0-6.32-1.35-8.55-4.04s-3.35-7.11-3.35-13.25,1.16-10.84,3.49-13.62,5.35-4.17,9.07-4.17c2.61,0,4.77.73,6.48,2.19s2.8,3.58,3.27,6.36ZM69.97,141.02c0,2.14.49,3.79,1.48,4.96s2.11,1.75,3.38,1.75,2.23-.48,3.05-1.43,1.22-2.52,1.22-4.69-.44-3.87-1.31-4.91-1.97-1.56-3.28-1.56-2.34.5-3.21,1.49-1.31,2.46-1.31,4.39Z"/>
    <path class="cls-2" d="M100.37,118.1c3.33,0,5.93,1.19,7.8,3.56,2.23,2.81,3.35,7.48,3.35,13.99s-1.12,11.17-3.38,14.02c-1.86,2.34-4.45,3.52-7.78,3.52s-6.04-1.29-8.09-3.86-3.07-7.15-3.07-13.75,1.12-11.12,3.38-13.97c1.86-2.34,4.45-3.52,7.78-3.52ZM100.37,123.56c-.8,0-1.51.25-2.13.76s-1.11,1.42-1.45,2.73c-.45,1.7-.68,4.57-.68,8.6s.2,6.8.61,8.31.92,2.51,1.54,3.01,1.32.75,2.12.75,1.51-.25,2.13-.76,1.11-1.42,1.45-2.73c.45-1.69.68-4.55.68-8.58s-.2-6.8-.61-8.31-.92-2.52-1.54-3.02-1.32-.76-2.12-.76Z"/>
  </g>
</svg>