<?xml version="1.0" encoding="UTF-8"?>
<svg xmlns="http://www.w3.org/2000/svg" xmlns:xlink="http://www.w3.org/1999/xlink" viewBox="0 0 502.43 329.48">
  <defs>
    <style>
      .cls-1 {
        fill: #3fc2cb;
      }

      .cls-1, .cls-2 {
        fill-rule: evenodd;
      }

      .cls-3 {
        fill: red;
      }

      .cls-4 {
        fill: none;
        stroke: #fff;
        stroke-linecap: round;
        stroke-miterlimit: 10;
        stroke-width: .09px;
      }

      .cls-5 {
        fill: url(#radial-gradient);
      }

      .cls-6 {
        fill: #182a87;
      }

      .cls-7 {
        fill: #e50013;
      }

      .cls-2 {
        fill: #85d8de;
      }

      .cls-8 {
        fill: #9e9e9f;
      }

      .cls-9 {
        fill: #595857;
      }
    </style>
    <radialGradient id="radial-gradient" cx="377.46" cy="-42.58" fx="377.46" fy="-42.58" r="11.73" gradientTransform="translate(0 248.74) scale(1 -1)" gradientUnits="userSpaceOnUse">
      <stop offset="0" stop-color="#fff"/>
      <stop offset=".06" stop-color="#fffef9"/>
      <stop offset=".13" stop-color="#fffce9"/>
      <stop offset=".21" stop-color="#fff9ce"/>
      <stop offset=".3" stop-color="#fff5a9"/>
      <stop offset=".4" stop-color="#ffef79"/>
      <stop offset=".49" stop-color="#ffe93f"/>
      <stop offset=".59" stop-color="#ffe200"/>
      <stop offset=".75" stop-color="#ffe100"/>
      <stop offset=".86" stop-color="#ffdf00"/>
      <stop offset=".93" stop-color="#fff693"/>
    </radialGradient>
  </defs>
  <g id="Layer_1" data-name="Layer 1">
    <g id="TEXT">
      <g>
        <path class="cls-3" d="M124.57,37.22h-3.78v2.07c0,.38-.16.67-.49.88s-1.02.31-2.07.31c-.32,0-.76-.01-1.3-.04l-.43-1.29,1.67.02c.84,0,1.27-.18,1.27-.53v-1.42h-6.7v.05c1.24.18,2.34.64,3.3,1.38l-.79,1.01c-.94-.65-2.17-1.15-3.69-1.51l.66-.93h-3.65v-1.25h10.87v-.77h1.36v.77h3.78v1.25ZM124.3,35.06c-.64.45-.98.69-1.03.72-.14-.25-.41-.56-.81-.94l-13.02.63c-.34-.65-.56-1.08-.65-1.3l7-.23v-.87h-5.38v-5.27h5.38v-.68h-6.94v-1.25h6.94v-1.48h1.37v1.48h7.08v1.25h-7.08v.68h5.45v5.27h-.57v.03c.94.49,1.69,1.14,2.25,1.96ZM115.81,29.8v-.76h-4.02v.76h4.02ZM115.81,31.83v-.79h-4.02v.79h4.02ZM121.26,29.8v-.76h-4.09v.76h4.09ZM121.26,31.83v-.79h-4.09v.79h4.09ZM120.87,33.72l-.69-.4.34-.23v-.03h-3.35v.82l3.69-.17Z"/>
        <path class="cls-3" d="M143,38.54c-.37.63-.62,1.02-.74,1.17-2.98-.54-5.24-1.7-6.8-3.49v4.28h-1.36v-4.28c-1.58,1.65-3.84,2.82-6.79,3.52l-.74-1.17c2.15-.41,4.02-1.23,5.62-2.46v-.04h-4.83v-1.32h6.75v-.86h-5.39v-1.25h5.37l-.04-.79h-6.17v-1.31h3.94c-.24-.26-.76-.61-1.55-1.06l.69-.45v-.07h-3.8v-1.25h5.4v-3.38h1.37v3.38h1.68v-3.38h1.36v3.38h5.46l-.04,1.25h-4.25l.62.32c-.42.56-.81.97-1.17,1.23v.04h3.94v1.31h-6.05v.79h5.15v1.25h-5.15v.86h6.84v1.24h-5.26c1.45,1.28,3.44,2.13,5.96,2.54ZM131.68,26.95l-1.05.76c-.56-.76-1.29-1.46-2.21-2.1l.99-.77c.9.54,1.66,1.25,2.27,2.12ZM137.21,28.97h-5.26v.04c.66.49,1.19,1,1.58,1.55h2.27c.62-.51,1.09-1.04,1.41-1.58ZM141.01,25.39c-.64.96-1.36,1.72-2.16,2.29l-1.17-.76c.81-.53,1.58-1.27,2.29-2.21l1.05.69Z"/>
        <path class="cls-3" d="M146.87,35.3c-.13,1.61-.5,3.08-1.1,4.41l-1.24-.54c.59-1.21.95-2.59,1.08-4.12l1.26.25ZM151.59,34.73l-1.32.43c-.04-.19-.12-.46-.23-.81h-1.25v6.06h-1.33v-6.06h-2.34l-.15-1.42h.77c.71-.96,1.26-1.73,1.63-2.3-.75-.6-1.53-1.15-2.35-1.65l.74-1.13.34.23c.8-1.27,1.44-2.57,1.92-3.9l1.27.61c-.68,1.53-1.39,2.85-2.13,3.96.56.39.88.62.96.7.34-.5.84-1.42,1.51-2.74l1.2.65c-1,2-2.19,3.86-3.57,5.58h2.28c-.21-.59-.41-1.05-.62-1.41l1.17-.45c.6.93,1.09,2.15,1.48,3.66ZM160.75,39.57h-10.2v-.84l-.43.09c-.18-1.48-.43-2.58-.74-3.3l1.2-.27c.39.91.65,1.91.77,3.01h3.69v-2.99h-3.33v-1.31h8.19v1.31h-3.44v2.99h4.28v1.32ZM154.24,27.37c-.7,1.25-1.36,2.19-1.98,2.81.43.49,1.01,1.42,1.74,2.79l-1.08.72c-.79-1.6-1.57-2.77-2.34-3.52,1.2-1.23,2.04-2.36,2.52-3.38l1.13.59ZM160.57,26.43h-9.69v-1.32h9.69v1.32ZM157.31,27.33c-.63,1.22-1.28,2.17-1.96,2.83.62.66,1.2,1.62,1.73,2.89-.11.06-.3.17-.55.33s-.45.27-.58.34c-.63-1.51-1.4-2.69-2.33-3.54,1.07-.9,1.9-2.05,2.5-3.45l1.19.61ZM160.41,32.84l-1.05.84c-.47-1.11-1.36-2.26-2.66-3.47.94-.94,1.78-2.05,2.51-3.33l1.13.6c-.61,1.12-1.26,2.01-1.94,2.66.46.38,1.13,1.28,2.01,2.7Z"/>
        <path class="cls-3" d="M164.65,34.66c-.11,1.44-.46,2.84-1.05,4.21l-1.08-.12c.64-1.34,1.04-2.75,1.2-4.25l.93.17ZM179.16,29.82l-.95.95c-.94-.72-1.68-1.35-2.2-1.89v.65h-4.19v-.47h-.04c-.14.23-.85.83-2.12,1.82l-.2-.22-.02.56h-1.62v1.33h1.8c0,1.47-.07,2.98-.2,4.54s-.34,2.48-.63,2.79-.68.47-1.17.47c-.22,0-.71-.08-1.49-.24l-.19-1.36c.83.21,1.39.32,1.69.32.15,0,.27-.23.36-.69l.25-1.3-.74.2c-.09-.97-.27-1.88-.54-2.72l.93-.26c.27.9.41,1.49.43,1.78h.04c.04-.66.04-1.39.02-2.21h-4.75v-8.74h6.66v1.3h-2.47v1.12h1.78v1.22h-1.78v1.17h1.13l-.12-.09c2.17-1.53,3.67-3.46,4.5-5.8l1.33.54-.18.38c1.27,2.1,2.83,3.72,4.68,4.86ZM165.83,34.66c0,1.34-.13,2.54-.4,3.61h-1.13c.33-1.16.5-2.36.52-3.61h1.01ZM166.55,27.53v-1.12h-1.57v1.12h1.57ZM166.55,29.92v-1.17h-1.57v1.17h1.57ZM166.55,32.55v-1.33h-1.57v1.33h1.57ZM167.09,37.67l-1.05.21c.01-.37.02-.69.02-.97,0-.85-.06-1.6-.18-2.25l.97-.15c.2.94.28,2,.24,3.16ZM174.06,38.03l-.74.98c-.46-.18-.93-.56-1.42-1.13-.47,1.12-1.08,2.01-1.8,2.65l-.91-.79c1.05-1.02,1.78-2.49,2.17-4.41l1.17.36c0,.33-.07.67-.21.99.5.54,1.09,1,1.75,1.35ZM173.53,35.06h-3.44v-4.48h3.44v4.48ZM172.34,33.83v-2.04h-1.03v2.04h1.03ZM175.39,28.24l-1.58-2.07c-.46.89-.93,1.58-1.41,2.07h2.99ZM178.79,39.41l-.86.96c-1.03-.75-1.75-1.45-2.18-2.11-.4.83-.97,1.56-1.69,2.21l-.89-.83c1.28-1.29,2-2.79,2.16-4.48l1.24.33c-.06.5-.18,1.03-.36,1.56.9,1.1,1.76,1.89,2.58,2.36ZM177.69,35.06h-3.44v-4.48h3.44v4.48ZM176.48,33.83v-2.04h-1.05v2.04h1.05Z"/>
        <path class="cls-3" d="M196.86,39.14l-.93,1.27c-1.92-.51-3.79-1.48-5.6-2.9-1.29,1.15-3.16,2.12-5.6,2.9l-.88-1.2c2.39-.74,4.2-1.61,5.43-2.63-1.46-1.46-2.6-3.24-3.42-5.33-.26,3.77-1.67,6.77-4.25,9.02l-1.12-1.01c1.04-.8,1.9-1.85,2.58-3.16s1.11-2.66,1.28-4.04.26-3.13.26-5.24h-2.49v-1.37h10.71v1.19l-1.44,3.24h3.49c-.52,2.59-1.69,4.8-3.52,6.64,1.54,1.16,3.36,2.03,5.48,2.61ZM193.13,31.2h-2.23l-.41.87-1.33-.43,2.08-4.81h-5.16v1.26c1.14,3.46,2.57,5.97,4.28,7.52,1.17-1.28,2.09-2.75,2.77-4.41Z"/>
        <path class="cls-3" d="M214.7,27.93h-9.69c-.27.81-.49,1.37-.65,1.67h8.16v9.2c-.07.81-.69,1.22-1.87,1.22h-1.46l-.62-1.39c.55.08,1.15.11,1.79.11.53,0,.79-.11.79-.33v-1.78h-6.77v3.8h-1.43v-8.64c-.32.54-1.32,1.68-3.02,3.44l-1.27-.83c2.5-2.2,4.12-4.36,4.88-6.48h-3.78v-1.32h4.29c.16-.38.39-1.22.69-2.54l1.39.31c-.11.47-.31,1.22-.6,2.23h9.17v1.32ZM211.15,32.37v-1.46h-6.77v1.46h6.77ZM211.15,35.32v-1.63h-6.77v1.63h6.77Z"/>
        <path class="cls-3" d="M220.51,29.03c-.46,1.48-1.29,2.63-2.48,3.44l-1.1-.84c1.07-.54,1.86-1.56,2.39-3.05l1.19.46ZM225.07,37.5l-1.1.98c-.57-.81-1.19-1.55-1.84-2.2-.91,1.49-2.29,2.77-4.12,3.85l-.84-1.15c1.66-.96,2.97-2.19,3.94-3.69-1.12-1.12-1.95-1.83-2.49-2.1l1.01-.83c.15.09.87.67,2.16,1.74.2-.43.45-1.2.74-2.29l1.19.54c-.2,1.05-.49,1.94-.86,2.68.92.89,1.66,1.71,2.21,2.46ZM225.3,28.36h-7.85v-1.32h3.33v-2.36h1.41v2.36h3.11v1.32ZM225.32,31.38l-1.12.7c-.53-1.18-1.29-2.12-2.3-2.79l1.15-.69c1.08.81,1.83,1.74,2.27,2.79ZM233.06,39.37l-1.05,1.05c-1.32-.98-2.38-2.08-3.2-3.28-.94,1.2-2.09,2.29-3.45,3.26l-1.05-.96c1.78-1.21,3.02-2.39,3.74-3.54-.56-1.05-1.01-2.3-1.34-3.76-.36.73-.75,1.37-1.17,1.92l-1.2-.65c.95-1.28,1.61-2.61,1.97-3.99s.54-3.1.54-5.17l1.27.22c.04.9-.02,2.01-.17,3.34h4.63v1.32h-1.08c-.15,2.6-.79,4.86-1.92,6.8,1.07,1.49,2.23,2.63,3.47,3.44ZM230.09,29.13h-2.34l-.18.79c.39,2.03.83,3.54,1.3,4.52.74-1.41,1.15-3.18,1.22-5.31Z"/>
        <path class="cls-3" d="M241.51,38.89c0,.29-.16.56-.47.81s-.67.37-1.06.37h-1.6l-.52-1.39,1.27.04c.67.02,1.01-.18,1.01-.58v-3.4h-2.43c-.11,2.51-.7,4.44-1.79,5.79l-1.12-.84c.42-.54.79-1.26,1.1-2.16s.47-2.25.47-4.06v-8.31h5.14v13.72ZM240.15,29.25v-2.77h-2.42v2.77h2.42ZM240.17,30.57h-2.43v2.86h2.4l.04-2.86ZM250.95,39.35l-.82,1.03c-1.09-.64-1.99-1.33-2.7-2.07-.52.65-1.31,1.42-2.37,2.31l-.94-.99c1.05-.82,1.85-1.61,2.4-2.37-.91-1.32-1.51-2.92-1.82-4.79h-.67v8.02l-1.36.04v-15.35h7.22c-.18,2.31-.42,3.73-.73,4.26-.31.52-.85.79-1.64.79-.46,0-1-.05-1.63-.15l-.4-1.43c1.15.2,1.9.3,2.23.3.28,0,.49-.81.62-2.44h-4.31v4.66h5.87c-.16,2.09-.75,4.07-1.77,5.96.46.59,1.4,1.34,2.81,2.25ZM248.45,32.46h-2.39c.16,1.12.55,2.26,1.19,3.44.45-.89.85-2.04,1.2-3.44Z"/>
        <path class="cls-3" d="M269.33,32.67l-.76,1.27c-1.81-.51-3.33-1.26-4.56-2.25-.36.18-.96.53-1.79,1.06s-1.62.92-2.36,1.17l-.9-1.12.76-.25v-.04l-.77-.14c.03-.21.11-.54.25-.99h-.85v7.42c0,1.14-.59,1.71-1.78,1.71h-1.27l-.48-1.46,1.33.06c.56.02.83-.15.83-.53v-7.2h-.05c-.39,2.81-1.51,5.01-3.37,6.61l-1.05-.94c1.67-1.71,2.7-3.6,3.08-5.67h-2.41v-1.32h4.04c-.62-.58-1.52-1.17-2.72-1.78l.99-.92c.38.16.8.39,1.27.69.94-.83,1.47-1.35,1.6-1.56h-4.54v-1.32h6.2v1.21c0,.18-.24.53-.72,1.06s-.97.99-1.46,1.4l.91.87-.38.35h2.47l-.45,2.18c1-.4,1.88-.91,2.66-1.51-.46-.47-.9-1.21-1.32-2.21-.36.49-.76.93-1.22,1.34-.17-.08-.4-.22-.68-.4s-.47-.31-.58-.37c1.39-1,2.43-2.67,3.11-5.01l1.24.42c-.05.39-.19.86-.43,1.42h5.15v1.32h-1.46c-.36,1.41-.99,2.59-1.87,3.52.93.83,2.37,1.47,4.31,1.92ZM267.43,33.85c0,.64-.07,1.63-.21,2.98s-.39,2.22-.76,2.62c-.37.4-.85.58-1.46.52l-1.67-.15c-.08-.53-.2-1.01-.34-1.45.96.19,1.54.28,1.74.28.51,0,.82-.25.93-.74s.25-1.41.42-2.75h-2c-.43,2.79-1.98,4.58-4.67,5.38l-.77-1.29c2.16-.38,3.51-1.74,4.05-4.09h-2.59v-1.31h2.79v-1.28h1.44c0,.59-.02,1.01-.07,1.28h3.17ZM265.46,27.22h-2.68c.22.89.66,1.75,1.34,2.59.59-.76,1.04-1.62,1.34-2.59Z"/>
      </g>
      <g>
        <path class="cls-3" d="M237.93,286.23l-.9,1.3c-2.56-.69-4.65-1.71-6.27-3.06-1.94,1.36-4.24,2.34-6.91,2.95l-.67-1.35c2.79-.63,4.95-1.49,6.48-2.58-1.16-1.23-2.03-2.76-2.61-4.59-.94,2.01-2.15,3.82-3.62,5.43l-1.27-.9c2.29-2.02,3.78-4.69,4.46-8.01h-4.05v-1.42h4.34l.4-2.75,1.38.25-.3,2.5h9.09v1.42h-9.38c-.21.98-.39,1.67-.54,2.08h7.42c-.3,2.45-1.34,4.45-3.09,6.01,1.42,1.17,3.44,2.07,6.05,2.7ZM233.18,278.94h-4.64c.54,1.38,1.31,2.58,2.29,3.62.9-.74,1.69-1.95,2.36-3.62Z"/>
        <path class="cls-3" d="M255.47,281.79h-15.32v-1.32h4.21c-.25-.34-.63-.65-1.15-.93l.7-.46h-3.42v-1.31h6.67v-1.06h-5.19v-1.24h5.19v-.94h-6.13v-1.31h4.17c-.2-.23-.73-.6-1.6-1.1l1.24-.72c.9.53,1.56,1.14,1.98,1.82h2.09c.62-.49,1.1-1.1,1.46-1.82l1.31.62c-.45.63-.85,1.03-1.2,1.2h4.17v1.31h-6.12v.94h5.06v1.24h-5.06v1.06h6.64v1.31h-3.74l.81.36c-.29.45-.56.79-.81,1.03h4.03v1.32ZM253.24,287.62h-1.37v-1.05h-8.02v1.12h-1.37v-5.16h10.77v5.09ZM251.87,285.26v-1.42h-8.02v1.42h8.02ZM247.17,280.47v-1.39h-2.51c.4.26.81.72,1.22,1.39h1.29ZM250.75,279.08h-2.21v1.39h1.3c.42-.36.72-.83.91-1.39Z"/>
        <path class="cls-3" d="M262.87,271.94c-.09.52-.31,1.26-.65,2.22l-.52,1.43v12.09h-1.37v-9.41h-.04c-.22.46-.7,1.08-1.42,1.87l-1.12-.97c1.95-1.97,3.26-4.51,3.93-7.62l1.19.38ZM267.85,286.05c-1.69.96-3.26,1.51-4.71,1.65l-.69-1.29c1.69-.07,3.23-.49,4.64-1.26l.76.9ZM274.27,273.61h-3.85v.69h3.01v3.4h-10.34v-3.4h2.96v-.69h-3.22v-1.24h11.44v1.24ZM272.69,285.04h-8.91v-6.79h8.91v6.79ZM266.05,276.55v-1.1h-1.6v1.1h1.6ZM271.33,280.09v-.69h-6.18l-.02.69h6.2ZM271.33,281.95v-.7h-6.18v.7h6.18ZM271.33,283.89v-.79h-6.18v.79h6.18ZM269.05,274.3v-.69h-1.63v.69h1.63ZM269.05,276.55v-1.1h-1.63v1.1h1.63ZM274.34,286.5l-.76,1.19c-1.29-.73-2.89-1.19-4.79-1.38l.7-1.12c1.69.14,3.31.58,4.84,1.31ZM272.07,276.55v-1.1h-1.64v1.1h1.64Z"/>
        <path class="cls-3" d="M283.19,279.27l-1.12.79c-.5-.81-.96-1.34-1.37-1.6v9.14h-1.36v-6.93c-.65,1.24-1.34,2.27-2.07,3.11l-1.12-.86c1.71-1.96,2.72-4.14,3.04-6.54h-2.39v-1.31h2.48v-3.52h1.42v3.52h1.82v1.31h-1.82v.94l.18-.22c.94.56,1.71,1.28,2.3,2.16ZM292.78,280.31l-.81,1.13c-1.86-.66-3.48-1.54-4.86-2.66-.94.8-2.54,1.71-4.8,2.73l-.85-1.13c1.62-.54,3.2-1.4,4.72-2.58-.19-.23-.61-.88-1.27-1.94-.59.94-1.13,1.66-1.62,2.16l-1.17-.77c1.42-1.41,2.43-3.36,3.01-5.85l1.32.4c-.02.19-.16.67-.4,1.46h4.73c-.47,1.78-1.37,3.33-2.7,4.64,1.29,1.07,2.85,1.88,4.69,2.42ZM290.4,287.55h-1.37v-1.01h-3.87v1.06h-1.36v-6.73h6.6v6.68ZM289.03,285.22v-3.04h-3.87v3.04h3.87ZM288.91,274.56h-3.16c.38.84.87,1.63,1.46,2.36.63-.69,1.2-1.48,1.71-2.36Z"/>
      </g>
      <g>
        <path d="M56.81,229.37c-.14,1.75-.37,2.93-.69,3.53s-.84.91-1.56.91c-.62,0-1.37-.12-2.23-.36l-.16-1.4c1.02.35,1.8.52,2.34.52.22,0,.42-.28.59-.83s.25-.91.25-1.06h-4.59v4.46h-1.42v-4.52c-1.09,1.85-3.38,3.11-6.86,3.8l-.69-1.37c2.77-.38,4.7-1.17,5.79-2.37h-2.7l-.16.62-1.41-.11.92-4.57h5.09v-1.33h-5.79v-1.32h12.52v3.96h-5.31v1.44h6.05ZM50.11,221.94h-2.48c.41.47.73.91.95,1.33l-1.2.69c-.39-.84-.83-1.51-1.34-2.01h-1.06c-.42.71-1.08,1.48-1.96,2.3l-1.19-.69c1.58-1.41,2.58-2.92,3.01-4.54l1.27.34c-.03.26-.19.68-.48,1.26h4.48v1.32ZM49.34,229.37v-1.44h-3.94l-.33,1.44h4.26ZM57.46,221.88h-2.83c.52.67.83,1.1.92,1.31l-1.32.62c-.21-.65-.61-1.29-1.19-1.92h-1.1c-.23.43-.76,1.1-1.58,2.01l-1.2-.72c1.41-1.41,2.26-2.8,2.55-4.16l1.28.45c-.15.59-.26.96-.33,1.1h4.79v1.32ZM54.7,226.61v-1.33h-3.94v1.33h3.94Z"/>
        <path d="M75.19,233.45h-14.62v-1.36h14.62v1.36ZM74.15,222.62h-12.6v-1.42h12.6v1.42ZM73.1,227.8h-10.53v-1.36h10.53v1.36Z"/>
        <path d="M93.75,223.33h-9.05c0,.73-.04,1.72-.11,2.97h6.78c-.04,1.87-.2,3.57-.47,5.11s-.61,2.47-1,2.79-.82.49-1.27.49c-.6,0-1.69-.2-3.27-.6l-.27-1.6c1.58.57,2.66.86,3.23.86.23,0,.43-.09.59-.28.17-.18.34-.78.53-1.78s.3-2.23.33-3.68h-5.29c-.42,2.21-1.1,3.9-2.05,5.05s-2.17,2.01-3.66,2.56l-.94-1.29c1.6-.58,2.75-1.3,3.45-2.18.7-.87,1.2-1.81,1.49-2.81s.44-2.88.44-5.62h-4.5v-1.31h6.5v-2.79h1.37v2.79h7.16v1.31Z"/>
        <path d="M97.81,229.42c-.11,1.44-.46,2.84-1.05,4.21l-1.08-.12c.64-1.34,1.04-2.75,1.2-4.25l.93.17ZM112.32,224.58l-.95.95c-.94-.72-1.68-1.35-2.2-1.89v.65h-4.19v-.47h-.04c-.14.23-.85.83-2.12,1.82l-.2-.22-.02.56h-1.62v1.33h1.8c0,1.47-.07,2.98-.2,4.54s-.34,2.48-.63,2.79-.68.47-1.17.47c-.22,0-.71-.08-1.49-.24l-.19-1.36c.83.21,1.39.32,1.69.32.15,0,.27-.23.36-.69l.25-1.3-.74.2c-.09-.97-.27-1.88-.54-2.72l.93-.26c.27.9.41,1.49.43,1.78h.04c.04-.66.04-1.39.02-2.21h-4.75v-8.74h6.66v1.3h-2.47v1.12h1.78v1.22h-1.78v1.17h1.13l-.12-.09c2.17-1.53,3.67-3.46,4.5-5.8l1.33.54-.18.38c1.27,2.1,2.83,3.72,4.68,4.86ZM98.99,229.42c0,1.34-.13,2.54-.4,3.61h-1.13c.33-1.16.5-2.36.52-3.61h1.01ZM99.71,222.3v-1.12h-1.57v1.12h1.57ZM99.71,224.69v-1.17h-1.57v1.17h1.57ZM99.71,227.31v-1.33h-1.57v1.33h1.57ZM100.25,232.43l-1.05.21c.01-.37.02-.69.02-.97,0-.85-.06-1.6-.18-2.25l.97-.15c.2.94.28,2,.24,3.16ZM107.22,232.79l-.74.98c-.46-.18-.93-.56-1.42-1.13-.47,1.12-1.08,2.01-1.8,2.65l-.91-.79c1.05-1.02,1.78-2.49,2.17-4.41l1.17.36c0,.33-.07.67-.21.99.5.54,1.09,1,1.75,1.35ZM106.69,229.82h-3.44v-4.48h3.44v4.48ZM105.5,228.6v-2.04h-1.03v2.04h1.03ZM108.54,223l-1.58-2.07c-.46.89-.93,1.58-1.41,2.07h2.99ZM111.95,234.17l-.86.96c-1.03-.75-1.75-1.45-2.18-2.11-.4.83-.97,1.56-1.69,2.21l-.89-.83c1.28-1.29,2-2.79,2.16-4.48l1.24.33c-.06.5-.18,1.03-.36,1.56.9,1.1,1.76,1.89,2.58,2.36ZM110.85,229.82h-3.44v-4.48h3.44v4.48ZM109.64,228.6v-2.04h-1.05v2.04h1.05Z"/>
        <path d="M130.22,226.44l-1.13.91c-.16-.09-.55-.4-1.17-.93v3.92h-6.5v-3.96c-.28.3-.67.65-1.15,1.05l-.54-.5v.65h-4.97v-1.3h4.75c.76-.63,1.37-1.26,1.84-1.89-.39-.58-.88-1.03-1.49-1.36l.17-.05v-.04h-5.94v-1.29h6.1v1.15l.72-.57c.36.25.74.61,1.15,1.09.36-.54.63-1.19.81-1.92h-2.94v-1.29h4.41c-.09,1.39-.48,2.7-1.17,3.92h2.92c-.74-1.35-1.25-2.87-1.53-4.55l1.29-.38c.05.79.22,1.53.49,2.21.62-.53,1.12-1.06,1.51-1.6l.95.79c-.49.71-1.18,1.36-2.07,1.94.13.36.25.61.36.76.4-.24.93-.79,1.6-1.63l.93.83c-.79.92-1.44,1.51-1.94,1.78.62.96,1.46,1.71,2.54,2.27ZM119.71,225.23h-4.95v-1.3h4.95v1.3ZM119.74,220.71h-4.81v-1.31h4.81v1.31ZM119.6,234.93h-1.3v-1.19h-1.89v1.25h-1.29v-6.07h4.48v6.01ZM118.3,232.45v-2.23h-1.89v2.23h1.89ZM129.43,234.53h-9.41v-1.29h3.31c-.09-.54-.62-1.3-1.59-2.29l1.27-.49c.8.71,1.35,1.5,1.63,2.36l-.91.38v.04h.86c.86-.98,1.38-1.92,1.58-2.81l1.3.6c-.4.94-.83,1.68-1.27,2.21h3.23v1.29ZM127.73,226.29c-.28-.28-.66-.74-1.15-1.38l.02.41h-3.9v-.6h-.04c-.33.6-.72,1.12-1.17,1.56h6.24ZM126.54,229.05v-1.42h-3.76v1.42h3.76Z"/>
      </g>
      <g>
        <path d="M53.77,124.76l-1,.91c-.63-.99-1.57-1.8-2.81-2.44l.88-.91c1.25.6,2.23,1.42,2.94,2.44ZM54.09,127.06c-.27,2.27-1.15,4.46-2.65,6.59l-1.17-.63c1.36-1.99,2.23-4.13,2.61-6.42l1.2.47ZM54.47,120.72l-.95.92c-.65-.94-1.58-1.67-2.79-2.18l.92-.9c1.12.5,2.07,1.22,2.82,2.15ZM57.22,130.41c-.84,1.72-1.77,2.95-2.79,3.71l-1.08-.88c1.2-.87,2.11-2.03,2.73-3.47l1.13.64ZM60.14,129.55h-5.4v-10.7h5.4v10.7ZM58.78,121.75v-1.58h-2.67v1.58h2.67ZM58.78,124.84v-1.78h-2.67v1.78h2.67ZM58.78,128.23v-2.07h-2.67v2.07h2.67ZM60.93,133.29l-1.24.7c-.29-1.18-1.03-2.33-2.2-3.45l1.17-.76c.9.91,1.66,2.08,2.27,3.51ZM62.7,130.18h-1.37v-10.2h1.37v10.2ZM65.17,132.62c0,.44-.15.8-.46,1.08s-.69.42-1.15.42h-1.51l-.61-1.53,1.85.09c.33.02.5-.18.5-.59v-14.01h1.37v14.55Z"/>
        <path d="M74.67,121.9h-6.68v-1.32h6.68v1.32ZM74.09,119.55h-5.41v-1.31h5.41v1.31ZM74.09,124.33h-5.41v-1.34h5.41v1.34ZM74.09,126.78h-5.41v-1.32h5.41v1.32ZM73.91,134.05h-1.37v-1.24h-2.52v1.24h-1.34v-5.99h5.24v5.99ZM72.54,131.51v-2.16h-2.52v2.16h2.52ZM80.17,131.35l-5.5,1.62c-.29-.52-.5-.95-.63-1.27.73-.14,1.52-.33,2.37-.58v-4.16h-1.76v-1.31h4.98v1.31h-1.85v3.76l2.39-.67v1.3ZM84.24,130.25c-.24,2.53-.72,3.8-1.44,3.8s-1.33-.73-1.9-2.2-1.02-4.33-1.33-8.6h-5.08v-1.31h4.97l-.07-3.91h1.37l.09,3.91h2.88v1.31h-2.79c.18,2.73.44,4.87.79,6.45s.63,2.36.86,2.36c.06,0,.13-.25.22-.76s.13-1.05.13-1.64c.66.29,1.1.49,1.33.6ZM83.92,121.12l-1.17.54c-.45-.93-1.09-1.74-1.91-2.43l1.13-.62c.95.83,1.6,1.66,1.94,2.51Z"/>
        <path d="M92.68,132.57c0,.29-.16.56-.47.81s-.67.37-1.06.37h-1.6l-.52-1.39,1.27.04c.67.02,1.01-.18,1.01-.58v-3.4h-2.43c-.11,2.51-.7,4.44-1.79,5.79l-1.12-.84c.42-.54.79-1.26,1.1-2.16s.47-2.25.47-4.06v-8.31h5.14v13.72ZM91.32,122.94v-2.77h-2.42v2.77h2.42ZM91.34,124.26h-2.43v2.86h2.4l.04-2.86ZM102.12,133.04l-.82,1.03c-1.09-.64-1.99-1.33-2.7-2.07-.52.65-1.31,1.42-2.37,2.31l-.94-.99c1.05-.82,1.85-1.61,2.4-2.37-.91-1.32-1.51-2.92-1.82-4.79h-.67v8.02l-1.36.04v-15.35h7.22c-.18,2.31-.42,3.73-.73,4.26s-.85.79-1.64.79c-.46,0-1-.05-1.63-.15l-.4-1.43c1.15.2,1.9.3,2.23.3.28,0,.49-.81.62-2.44h-4.31v4.66h5.87c-.16,2.09-.75,4.07-1.77,5.96.46.59,1.4,1.34,2.81,2.25ZM99.61,126.15h-2.39c.16,1.12.55,2.26,1.19,3.44.45-.89.85-2.04,1.2-3.44Z"/>
        <path d="M120.61,126.36l-.76,1.27c-1.81-.51-3.33-1.26-4.56-2.25-.36.18-.96.53-1.79,1.06s-1.62.92-2.36,1.17l-.9-1.12.76-.25v-.04l-.77-.14c.03-.21.11-.54.25-.99h-.85v7.42c0,1.14-.59,1.71-1.78,1.71h-1.27l-.48-1.46,1.33.06c.56.02.83-.15.83-.53v-7.2h-.05c-.39,2.81-1.51,5.01-3.37,6.61l-1.05-.94c1.67-1.71,2.7-3.6,3.08-5.67h-2.41v-1.32h4.04c-.62-.58-1.52-1.17-2.72-1.78l.99-.92c.38.16.8.39,1.27.69.94-.83,1.47-1.35,1.6-1.56h-4.54v-1.32h6.2v1.21c0,.18-.24.53-.72,1.06s-.97.99-1.46,1.4l.91.87-.38.35h2.47l-.45,2.18c1-.4,1.88-.91,2.66-1.51-.46-.48-.9-1.21-1.32-2.22-.36.49-.76.93-1.22,1.34-.17-.08-.4-.22-.68-.4s-.47-.31-.58-.37c1.39-1,2.43-2.67,3.11-5.01l1.24.42c-.05.39-.19.86-.43,1.42h5.15v1.32h-1.46c-.36,1.41-.99,2.59-1.87,3.52.93.83,2.37,1.47,4.31,1.92ZM118.7,127.53c0,.64-.07,1.63-.21,2.97s-.39,2.22-.76,2.62-.85.58-1.46.52l-1.67-.15c-.08-.53-.2-1.01-.34-1.45.96.19,1.54.28,1.74.28.51,0,.82-.25.93-.74s.25-1.41.42-2.75h-2c-.43,2.79-1.98,4.58-4.67,5.38l-.77-1.29c2.16-.38,3.51-1.74,4.05-4.09h-2.59v-1.31h2.79v-1.28h1.44c0,.59-.02,1.01-.07,1.28h3.17ZM116.73,120.91h-2.68c.22.89.66,1.75,1.34,2.59.59-.76,1.04-1.62,1.34-2.59Z"/>
      </g>
      <g>
        <path d="M312.61,86.83l-.79,1.24c-.53-.2-1.31-.52-2.34-.98v.72h-4.24v2.49h3.73v1.32h-3.73v2.65h6.5v1.31h-14.27v-1.31h6.41v-2.65h-3.73v-1.32h3.73v-2.49h-4.32v-.64c-.18.14-.93.47-2.25.98l-.81-1.22c3.47-1.18,6.11-3.26,7.9-6.23l1.31.6-.32.54c1.36,2.17,3.76,3.83,7.22,4.99ZM308.72,86.52c-1.71-.78-3.12-1.94-4.24-3.49-.98,1.38-2.29,2.54-3.92,3.49h8.16Z"/>
        <path d="M330.73,84.47h-9.05c0,.73-.04,1.72-.11,2.97h6.78c-.04,1.87-.2,3.57-.47,5.11-.27,1.54-.61,2.47-1,2.79-.4.33-.82.49-1.27.49-.6,0-1.69-.2-3.27-.6l-.27-1.6c1.58.57,2.66.86,3.23.86.23,0,.43-.09.59-.28.17-.18.34-.78.53-1.78s.3-2.23.33-3.68h-5.29c-.42,2.21-1.1,3.9-2.05,5.05s-2.17,2.01-3.66,2.56l-.94-1.29c1.6-.58,2.75-1.31,3.45-2.18s1.2-1.81,1.49-2.81.44-2.88.44-5.62h-4.5v-1.31h6.5v-2.79h1.37v2.79h7.16v1.31Z"/>
        <path d="M338.28,80.91c-.1.42-.37,1.19-.8,2.29l-.64,1.61v11.63h-1.37v-9.26c-.34.5-.84,1.12-1.51,1.84l-1.22-.89c1.79-1.76,3.21-4.37,4.25-7.85l1.3.63ZM349.03,95.32h-11.27v-1.31h4.86c1.78-3.11,2.72-5.93,2.85-8.48l1.44.38c-.31,2.47-1.23,5.17-2.76,8.1h4.88v1.31ZM348.19,85.25h-10.03v-1.3h4.24v-3.56h1.4v3.56h4.39v1.3ZM342.59,92.75l-1.46.28c-.05-2.35-.7-4.55-1.94-6.6l1.44-.31c1.13,1.99,1.78,4.2,1.96,6.63Z"/>
        <path d="M367.14,93.12h-3.78v2.07c0,.38-.16.67-.49.88s-1.02.31-2.07.31c-.32,0-.76-.01-1.3-.04l-.43-1.29,1.67.02c.84,0,1.27-.18,1.27-.53v-1.42h-6.7v.05c1.24.18,2.34.64,3.3,1.38l-.79,1.01c-.94-.65-2.17-1.15-3.69-1.51l.66-.93h-3.65v-1.25h10.87v-.77h1.36v.77h3.78v1.25ZM366.88,90.95c-.64.45-.98.69-1.03.72-.14-.25-.41-.56-.81-.94l-13.02.63c-.34-.65-.56-1.08-.65-1.3l7-.23v-.87h-5.38v-5.27h5.38v-.68h-6.94v-1.25h6.94v-1.48h1.37v1.48h7.08v1.25h-7.08v.68h5.45v5.27h-.57v.03c.94.49,1.69,1.14,2.25,1.96ZM358.38,85.7v-.76h-4.02v.76h4.02ZM358.38,87.73v-.79h-4.02v.79h4.02ZM363.84,85.7v-.76h-4.09v.76h4.09ZM363.84,87.73v-.79h-4.09v.79h4.09ZM363.44,89.62l-.69-.4.34-.23v-.03h-3.35v.82l3.69-.17Z"/>
        <path d="M385.47,94.44c-.37.63-.62,1.02-.74,1.17-2.98-.54-5.24-1.7-6.8-3.49v4.28h-1.36v-4.28c-1.58,1.65-3.84,2.82-6.79,3.52l-.74-1.17c2.15-.41,4.02-1.23,5.62-2.46v-.04h-4.83v-1.32h6.75v-.86h-5.39v-1.25h5.37l-.04-.79h-6.17v-1.31h3.94c-.24-.26-.76-.61-1.55-1.06l.69-.45v-.07h-3.8v-1.25h5.4v-3.38h1.37v3.38h1.68v-3.38h1.36v3.38h5.46l-.04,1.25h-4.25l.62.32c-.42.56-.81.97-1.17,1.23v.04h3.94v1.31h-6.05v.79h5.15v1.25h-5.15v.86h6.84v1.24h-5.26c1.45,1.28,3.44,2.13,5.96,2.54ZM374.15,82.85l-1.05.76c-.56-.76-1.29-1.46-2.21-2.1l.99-.77c.9.54,1.66,1.25,2.27,2.12ZM379.68,84.87h-5.26v.04c.66.49,1.19,1,1.58,1.55h2.27c.62-.51,1.09-1.04,1.41-1.58ZM383.47,81.28c-.64.96-1.36,1.72-2.16,2.29l-1.17-.76c.81-.53,1.58-1.27,2.29-2.21l1.05.69Z"/>
        <path d="M393.33,84.17h-6.28v-1.32h6.28v1.32ZM392.88,86.56h-5.31v-1.31h5.31v1.31ZM392.88,88.93h-5.31v-1.31h5.31v1.31ZM392.94,81.77h-5.27v-1.31h5.27v1.31ZM392.63,96.14h-1.36v-1.2h-2.2v1.25h-1.3v-6.01h4.86v5.96ZM391.27,93.63v-2.14h-2.2v2.14h2.2ZM396.49,86.06c-.88,1.18-1.73,1.98-2.52,2.41l-.96-.95c.89-.4,1.75-1.19,2.59-2.38l.89.92ZM396.25,83.57c-.44.25-.83.45-1.19.62-.64-1.25-1.32-2.16-2.04-2.72l1.08-.73c.68.53,1.39,1.48,2.14,2.84ZM403.47,89.05l-.88,1.04c-1.57-.68-2.71-1.54-3.42-2.58-.74,1.2-2.24,2.08-4.5,2.63l-.81-1.25c1.13-.18,2.1-.51,2.91-.98s1.3-1.1,1.46-1.88.23-1.58.22-2.4l1.37.38c-.06.9-.13,1.51-.2,1.84.57,1.33,1.85,2.4,3.85,3.21ZM401.67,96.3h-1.37v-1.05h-4.75v1.06l-1.36-.02v-6.12h7.49v6.12ZM400.3,93.99v-2.56h-4.75v2.56h4.75ZM402.88,81.99c-.15,1.38-.47,2.56-.96,3.56l-1.22-.47c.36-.77.57-1.39.65-1.84h-3.12c-.28.81-.75,1.57-1.42,2.29l-1.25-.76c1.06-.84,1.8-2.45,2.21-4.83l1.19.42c-.04.36-.14.9-.33,1.62h4.24Z"/>
        <path d="M411.9,84.41h-6.68v-1.31h6.68v1.31ZM420.48,82.31l-.34,7.56c-.13,2.75-.37,4.5-.7,5.25-.33.75-.95,1.12-1.86,1.12-.25,0-.74-.04-1.46-.12l-.54-1.46c.94.16,1.56.25,1.87.25s.56-.14.71-.43c.15-.29.29-1.33.41-3.14.12-1.8.22-4.38.29-7.72h-4.86c-.38.94-.64,1.52-.79,1.73h4.46v7.73h-5.27v-6.35l-.67.98c-.42-.19-.83-.43-1.24-.72.09-.06.19-.17.31-.33h-4.81v-1.31h5.04v1.06h.04c1.28-1.71,2.09-3.82,2.43-6.32l1.3.34-.38,1.85h6.05ZM411.19,89.12h-5.19v-1.32h5.19v1.32ZM411.1,95.95h-1.3v-1.2h-2.08v1.2h-1.37v-6.01h4.75v6.01ZM410.85,82.2h-4.43v-1.31h4.43v1.31ZM409.8,93.43v-2.17h-2.08v2.17h2.08ZM416.33,88.48v-1.77h-2.49v1.77h2.49ZM416.33,91.74v-1.94h-2.49v1.94h2.49Z"/>
      </g>
      <g>
        <path d="M337.38,172.18c-.02.47-.14,1.26-.34,2.37s-.43,1.81-.67,2.09c-.24.28-.59.42-1.03.42-.38,0-.84-.06-1.39-.18l-.43-1.49c.78.28,1.28.41,1.49.41.19,0,.33-.11.43-.34s.24-.89.41-1.98h-2.01c-.3,2.1-1.36,3.53-3.16,4.3l-.6-.79v8.75c0,.53-.16.91-.47,1.16s-.64.37-.97.37h-.86l-.45-1.29h.95c.29.05.43-.11.43-.48v-2.16h-3.78c-.25,1.9-.88,3.31-1.89,4.25l-1.03-.93c.56-.65.96-1.32,1.21-2,.24-.68.36-1.26.36-1.75v-5.63l-.43.55-1.1-.9c1.47-1.41,2.44-3.26,2.91-5.56l1.28.45c-.17.7-.27,1.09-.31,1.15h3.18c-.26,1.06-.57,2.02-.93,2.87h1.89v.83c1.52-.71,2.35-1.77,2.47-3.16h-1.99v-1.3h6.82ZM327.45,174.26h-2c-.16.48-.4,1-.74,1.56h2.01c.32-.53.56-1.05.72-1.56ZM326.13,178.88v-1.77h-1.19v1.77h1.19ZM326.13,182.03v-1.85h-1.19v1.85h1.19ZM328.71,178.88v-1.77h-1.2v1.77h1.2ZM328.71,182.03v-1.85h-1.2v1.85h1.2ZM338.17,183.58h-3.03v3.94h-1.36v-3.94h-3.3v-1.3h3.3v-1.91h-1.41c-.15.55-.44,1.11-.86,1.67l-1.22-.81c.86-1.01,1.26-2.26,1.22-3.73l1.34.29c-.01.49-.05.91-.12,1.28h1.05v-1.8h1.36v1.8h2.09v1.29h-2.09v1.91h3.03v1.3Z"/>
        <path d="M344.86,181.11c-.54,2.03-1.72,4.07-3.52,6.12l-1.13-.77c1.68-2.02,2.84-4.03,3.49-6.01l1.17.67ZM344.39,178.54l-1.05.99c-1.07-1.24-2.12-2.13-3.13-2.68l.98-.94c.91.52,1.97,1.39,3.19,2.63ZM345.27,174.22l-1,1c-1.15-1.23-2.18-2.08-3.1-2.56.47-.5.79-.82.98-.95,1,.54,2.04,1.38,3.13,2.5ZM356.65,186.42l-.91,1.1c-1.08-.46-2.1-1.1-3.06-1.92s-1.83-2.43-2.61-4.82h-.16c-.25,1.63-.93,2.99-2.03,4.08s-2.36,2.02-3.79,2.79l-1.03-1.31c3.2-1.35,5.02-3.2,5.46-5.56h-3.49v-1.31h3.68c.07-.54.11-1.16.12-1.83.01-.68.03-1.27.06-1.77h-3.11v-1.31h3.08v-3.24h1.36v3.24h4.25v4.91h1.46v1.31h-4.46c.78,2.73,2.5,4.61,5.17,5.63ZM353.12,179.48v-3.6h-2.88c.02,1.14-.03,2.34-.14,3.6h3.02Z"/>
        <path d="M365.88,178.41l-5.08.04v9.19h-1.36v-15.39h6.44v6.16ZM364.51,174.71v-1.13h-3.71v1.13h3.71ZM364.51,177.15v-1.13h-3.71v1.13h3.71ZM369.7,184.84h-6.71v-5.17h6.71v5.17ZM368.33,183.52v-2.53h-3.92v2.53h3.92ZM373.3,186.11c0,.84-.64,1.27-1.91,1.27h-1.41l-.51-1.37,1.28.04c.49,0,.81-.02.95-.06.14-.04.22-.18.22-.43v-7.09h-5.1v-6.21h6.47v13.86ZM371.86,174.71v-1.13h-3.66v1.13h3.66ZM371.93,177.15v-1.13h-3.73v1.13h3.73Z"/>
        <path d="M392.61,185.39c-.26.62-.47,1.1-.65,1.42h-7.92c-.84,0-1.78-.17-2.82-.52s-1.92-.8-2.64-1.35c-.32.94-.76,1.78-1.31,2.5l-1.17-.7c1.05-1.21,1.58-3.14,1.58-5.81h1.37c0,.66-.07,1.51-.2,2.55.35.45.82.79,1.41,1.05v-4.26h-3.71v-1.3h8.05v1.3h-2.97v1.49h2.23v1.29h-2.23v2.02c.84.3,2.13.45,3.87.45,2.48,0,4.85-.04,7.11-.13ZM383.68,178.28h-6.05v-6.08h6.05v6.08ZM382.31,174.56v-1.06h-3.3v1.06h3.3ZM382.31,176.99v-1.13h-3.3v1.13h3.3ZM387.48,183.43c-.9.8-1.91,1.46-3.02,1.98l-.86-1.02c1.35-.66,2.36-1.29,3.02-1.89l.86.93ZM392.01,173.47l-3.08.04c-.04.25-.14.62-.29,1.12h2.65v7.87h-6.41v-7.87h2.4c.16-.38.26-.75.3-1.12h-3.3v-1.3h7.73v1.27ZM389.93,176.77v-.86h-3.67v.86h3.67ZM389.93,178.92v-.84h-3.67v.84h3.67ZM389.93,181.18v-.97h-3.67v.97h3.67ZM392.01,184.24l-.79.98c-.35-.36-1.3-.92-2.86-1.68l.76-.95c1.27.48,2.24,1.03,2.89,1.65Z"/>
      </g>
    </g>
    <path class="cls-1" d="M269,221.4c-.02-1.55.03-35.4.01-35.54-.93-25.57-22.41-45.54-47.98-44.6l.92,25.24c12.27-.49,22.5,9.87,21.81,22.12h-.02v32.78h-12.62l25.25,34.66,25.26-34.66h-12.63Z"/>
    <path class="cls-2" d="M171.36,86.39c.02,1.55-.03,35.4-.01,35.54.93,25.57,22.41,45.54,47.98,44.6l-.92-25.24c-12.27.49-22.5-9.87-21.81-22.12h.02v-32.78h12.62l-25.25-34.66-25.26,34.66h12.63Z"/>
    <path class="cls-1" d="M334.33,132.95c0-12.53,10.15-22.68,22.68-22.68s22.68,10.15,22.68,22.68-10.15,22.68-22.68,22.68-22.68-10.15-22.68-22.68h0Z"/>
    <path class="cls-2" d="M62.17,177.47c0-12.53,10.15-22.68,22.68-22.68s22.68,10.15,22.68,22.68-10.15,22.68-22.68,22.68-22.68-10.15-22.68-22.68h0Z"/>
  </g>
  <g id="LOGO">
    <g id="LOGO-2" data-name="LOGO">
      <rect class="cls-6" x="368.92" y="298.16" width="7.3" height="7.3"/>
      <rect class="cls-7" x="376.85" y="298.16" width="7.3" height="7.3"/>
      <rect class="cls-8" x="368.92" y="290.28" width="7.3" height="7.3"/>
      <circle class="cls-5" cx="380.35" cy="293.93" r="7.5"/>
      <path class="cls-4" d="M383.52,300.69c-.38-.17-.89-.42-1.44-.74"/>
      <path class="cls-4" d="M376.15,287.76c-.08.68-.15,1.8-.02,3.11"/>
      <path class="cls-4" d="M376.12,290.87c.08.79.23,1.66.5,2.53"/>
      <path class="cls-4" d="M379.55,298.06c-.65-.62-1.29-1.35-1.81-2.21"/>
      <path class="cls-4" d="M377.73,295.85c-.05-.08-.11-.17-.16-.26-.41-.72-.72-1.47-.95-2.2"/>
      <path class="cls-4" d="M382.08,299.95c-.78-.46-1.68-1.08-2.53-1.89"/>
      <path class="cls-4" d="M376.93,298.66c1.05,1.08,2.2,1.69,3.3,2.04"/>
      <path class="cls-4" d="M375.26,296.3c-.43-.84-.69-1.65-.84-2.41"/>
      <path class="cls-4" d="M382.46,301.11c-.65-.04-1.42-.14-2.23-.41"/>
      <path class="cls-4" d="M374.36,291.43c-.1.75-.09,1.58.07,2.46"/>
      <path class="cls-4" d="M375.37,288.35c-.42.76-.86,1.81-1.02,3.08"/>
      <path class="cls-4" d="M375.26,296.3c.08.16.17.32.26.48.43.74.91,1.37,1.41,1.88"/>
      <path class="cls-4" d="M383.17,292.72c.47.88.79,1.79,1,2.67"/>
      <path class="cls-4" d="M379.67,288.84c-1.08-.77-2.08-1.27-2.72-1.55"/>
      <path class="cls-4" d="M383.17,292.72c-.05-.09-.1-.19-.15-.28-.41-.71-.9-1.35-1.41-1.9"/>
      <path class="cls-4" d="M384.17,295.39c.27,1.12.36,2.2.37,3.09"/>
      <path class="cls-4" d="M384.54,298.49c0,.66-.03,1.23-.08,1.66"/>
      <path class="cls-4" d="M379.67,288.84c.65.47,1.32,1.03,1.93,1.7"/>
      <path class="cls-4" d="M386.16,297.13c.21-1.08.23-2.33-.15-3.7"/>
      <path class="cls-4" d="M386.16,297.13c-.18.91-.49,1.69-.81,2.32"/>
      <path class="cls-4" d="M386.01,293.43c-.2-.7-.5-1.42-.93-2.17-.08-.15-.17-.29-.26-.43"/>
      <path class="cls-4" d="M377.83,286.92c.89.02,2.05.17,3.25.68"/>
      <path class="cls-4" d="M383.16,288.9c.59.5,1.14,1.14,1.65,1.93"/>
      <path class="cls-4" d="M383.16,288.9c-.68-.59-1.38-1.01-2.08-1.31"/>
      <line class="cls-4" x1="383.31" y1="299.28" x2="381.95" y2="296.92"/>
      <line class="cls-4" x1="383.31" y1="299.28" x2="383.98" y2="300.45"/>
      <line class="cls-4" x1="380.58" y1="294.55" x2="379.22" y2="292.19"/>
      <line class="cls-4" x1="377.94" y1="289.97" x2="379.22" y2="292.19"/>
      <line class="cls-4" x1="380.58" y1="294.55" x2="381.95" y2="296.92"/>
      <line class="cls-4" x1="377.94" y1="289.97" x2="376.52" y2="287.53"/>
      <line class="cls-4" x1="373.4" y1="291.36" x2="381.68" y2="286.58"/>
      <line class="cls-4" x1="384.92" y1="288.01" x2="372.94" y2="294.92"/>
      <line class="cls-4" x1="386.87" y1="290.17" x2="373.84" y2="297.69"/>
      <line class="cls-4" x1="387.77" y1="292.94" x2="375.79" y2="299.86"/>
      <line class="cls-4" x1="387.39" y1="296.45" x2="379.02" y2="301.28"/>
      <g>
        <path class="cls-9" d="M391.93,300.68h1.29v3.53c0,.3-.17.56-.49.77-.33.21-.72.32-1.18.32h-3.91c-.46,0-.86-.11-1.18-.32-.33-.21-.49-.47-.49-.77v-3.53h1.3v3.47c0,.16.08.29.26.41s.38.17.62.17h2.9c.24,0,.45-.06.62-.17.17-.11.26-.25.26-.41v-3.47h-.02Z"/>
        <path class="cls-9" d="M399.17,302.12c.47,0,.87.11,1.2.32s.5.47.5.77v2.08h-1.3v-2.02c0-.16-.09-.3-.26-.41s-.38-.17-.63-.17h-2.55c-.34,0-.62.08-.87.23s-.35.34-.35.56v1.81h-1.3v-1.95h0c.03-.35.24-.63.62-.87.39-.24.85-.36,1.38-.36h3.57Z"/>
        <path class="cls-9" d="M401.19,300.68h1.3v.85h-1.3s0-.85,0-.85ZM401.19,302.12h1.3v3.18h-1.3s0-3.18,0-3.18Z"/>
        <path class="cls-9" d="M410.53,302.12l-1.97,2.26c-.32.32-.59.55-.8.67-.3.17-.66.26-1.08.26h-.08c-.42,0-.78-.08-1.09-.25-.26-.14-.52-.37-.8-.68l-1.95-2.25h1.39l1.74,2c.5.65,1,.65,1.51,0l1.74-1.99h1.4Z"/>
        <path class="cls-9" d="M416.04,302.12c.56,0,1.03.13,1.42.38s.59.56.59.93v.5h-5.97v.21c0,.16.09.3.26.41.17.11.38.17.63.17h5.06v.58h-5.57c-.47,0-.87-.11-1.2-.32-.33-.21-.49-.47-.49-.77v-.99c0-.3.17-.56.49-.77.33-.22.73-.32,1.2-.32h3.56ZM416.75,303.35c-.03-.16-.17-.3-.4-.44s-.5-.2-.81-.2h-2.55c-.25,0-.46.06-.63.17-.18.11-.26.23-.26.35v.12h4.66,0Z"/>
        <path class="cls-9" d="M418.32,303.21c0-.3.17-.56.49-.77.33-.21.72-.32,1.18-.32h4.15v.59h-3.66c-.24,0-.45.05-.62.17s-.26.25-.26.41v2.02h-1.3v-2.09h.02Z"/>
        <path class="cls-9" d="M430,303.41c.52,0,.93.1,1.24.29.28.18.42.4.42.65s-.14.47-.42.65c-.32.2-.73.29-1.24.29h-5.58v-.58h5.08c.28,0,.5-.05.65-.14.14-.08.21-.16.21-.23s-.07-.15-.21-.23c-.16-.09-.38-.14-.65-.14h-3.41c-.52,0-.93-.1-1.24-.29-.29-.17-.43-.4-.43-.68,0-.24.14-.45.43-.62.31-.19.72-.29,1.24-.29h4.9v.59h-4.39c-.29,0-.5.04-.66.12-.14.08-.21.15-.21.23s.07.16.21.23c.16.08.38.12.66.12h3.41,0Z"/>
        <path class="cls-9" d="M439.19,304.32c0,.3-.16.54-.46.72-.31.18-.71.27-1.23.27h-3.88c-.5,0-.91-.08-1.23-.26-.31-.17-.47-.41-.47-.68v-.05c0-.29.16-.51.47-.68s.71-.26,1.23-.26h3.38c.33,0,.63.04.9.12v-.26c0-.14-.08-.26-.26-.36-.18-.11-.39-.17-.64-.17h-4.51v-.59h5.01c.46,0,.85.11,1.19.32.33.2.5.45.5.74v1.14h0ZM437,304.76c.59,0,.9-.15.9-.44,0-.14-.11-.25-.35-.32-.15-.05-.33-.07-.55-.07h-2.87c-.22,0-.4.02-.55.07-.23.08-.35.18-.35.32v.05c0,.14.11.26.35.32.15.05.33.07.55.07h2.87Z"/>
        <path class="cls-9" d="M440.76,304.35c0,.16.09.3.26.41.18.11.39.17.64.17h2.46v.58h-2.96c-.47,0-.87-.11-1.2-.32-.33-.21-.5-.47-.5-.77v-3.73h1.3v3.66h-.02Z"/>
      </g>
      <g>
        <path class="cls-9" d="M393.6,307.45c0-.14.05-.25.14-.35.09-.1.2-.14.34-.14h1.08v.22h-.96c-.08,0-.15.03-.2.09s-.08.13-.08.21v.17c0,.08.03.15.08.21s.13.09.2.09h.96v.22h-1.08c-.14,0-.24-.05-.34-.14-.09-.1-.14-.21-.14-.35v-.23Z"/>
        <path class="cls-9" d="M396.71,306.97c.13,0,.24.05.34.14.09.1.14.21.14.35v.19h-1.41v.08c0,.06.02.11.06.15.04.05.09.07.15.07h1.2v.22h-1.32c-.11,0-.2-.04-.29-.12-.08-.08-.11-.18-.11-.29v-.37c0-.11.04-.21.11-.29.08-.08.17-.12.29-.12h.84,0ZM396.89,307.42c0-.06-.04-.11-.09-.17s-.12-.08-.2-.08h-.6c-.06,0-.11.02-.15.06-.05.05-.06.08-.06.13v.05h1.11,0Z"/>
        <path class="cls-9" d="M397.5,307.37c0-.11.04-.21.11-.29.08-.08.17-.12.28-.12h.99v.22h-.87c-.06,0-.11.02-.15.06-.04.05-.06.09-.06.15v.76h-.31v-.78h0Z"/>
        <path class="cls-9" d="M399.57,306.97h.29v.22h-.29v.56c0,.06.02.11.06.15.05.05.09.07.15.07h.2v.2h-.32c-.11,0-.2-.04-.29-.12-.08-.08-.12-.18-.12-.29v-.56h-.2v-.22h.2v-.54h.31v.54h0Z"/>
        <path class="cls-9" d="M400.17,306.42h.31v.32h-.31v-.32ZM400.17,306.97h.31v1.19h-.31v-1.19Z"/>
        <path class="cls-9" d="M400.81,306.84c0-.11.04-.21.12-.29.08-.08.17-.12.29-.12h.39v.22h-.27c-.06,0-.11.02-.15.07-.04.05-.06.09-.06.15v.11h.49v.22h-.49v.97h-.31v-1.32h0Z"/>
        <path class="cls-9" d="M401.93,306.42h.31v.32h-.31s0-.32,0-.32ZM401.93,306.97h.31v1.19h-.31s0-1.19,0-1.19Z"/>
        <path class="cls-9" d="M402.55,307.45c0-.14.05-.25.14-.35.09-.1.2-.14.34-.14h1.08v.22h-.96c-.08,0-.15.03-.2.09s-.08.13-.08.21v.17c0,.08.03.15.08.21s.13.09.2.09h.96v.22h-1.08c-.14,0-.24-.05-.34-.14-.09-.1-.14-.21-.14-.35v-.23Z"/>
        <path class="cls-9" d="M406.11,307.79c0,.11-.04.2-.11.27s-.17.1-.29.1h-.92c-.12,0-.22-.03-.29-.1s-.11-.15-.11-.26v-.02c0-.11.04-.19.11-.26s.17-.1.29-.1h.8c.08,0,.15.02.21.05v-.1c0-.05-.02-.1-.06-.14-.05-.05-.09-.07-.15-.07h-1.07v-.22h1.19c.11,0,.2.04.28.12.08.08.12.17.12.28,0,0,0,.43,0,.43ZM405.59,307.95c.14,0,.21-.05.21-.17,0-.05-.03-.1-.08-.12-.04-.02-.08-.02-.13-.02h-.68c-.05,0-.1,0-.13.02-.05.03-.08.07-.08.12v.02c0,.05.03.1.08.12.04.02.08.02.13.02h.68Z"/>
        <path class="cls-9" d="M406.9,306.97h.29v.22h-.29v.56c0,.06.02.11.06.15.05.05.09.07.15.07h.2v.2h-.32c-.11,0-.2-.04-.29-.12-.08-.08-.12-.18-.12-.29v-.56h-.2v-.22h.2v-.54h.31v.54h0Z"/>
        <path class="cls-9" d="M407.51,306.42h.31v.32h-.31v-.32ZM407.51,306.97h.31v1.19h-.31v-1.19Z"/>
        <path class="cls-9" d="M409.47,306.97c.11,0,.2.04.28.12.08.08.12.17.12.29v.38c0,.11-.04.21-.12.29-.08.08-.17.12-.28.12h-.93c-.11,0-.2-.04-.28-.12-.08-.08-.11-.17-.11-.29v-.38c0-.11.04-.21.11-.29.08-.08.17-.12.28-.12h.93ZM409.56,307.4c0-.06-.02-.11-.06-.15-.04-.05-.09-.06-.15-.06h-.69c-.06,0-.11.02-.15.06-.04.05-.06.09-.06.15v.32c0,.06.02.11.06.15.04.05.09.06.15.06h.69c.06,0,.11-.02.15-.06.04-.05.06-.09.06-.15v-.32Z"/>
        <path class="cls-9" d="M411.5,306.97c.11,0,.2.04.29.12.08.08.12.18.12.29v.78h-.31v-.75c0-.06-.02-.11-.06-.15-.04-.05-.09-.06-.15-.06h-.6c-.08,0-.15.03-.2.09s-.08.13-.08.21v.68h-.31v-.73h0c0-.13.06-.24.15-.32.09-.09.2-.14.33-.14h.84l-.02-.02Z"/>
        <path class="cls-9" d="M413.55,306.97h.29v.22h-.29v.56c0,.06.02.11.06.15.05.05.09.07.15.07h.2v.2h-.32c-.11,0-.2-.04-.29-.12-.08-.08-.12-.18-.12-.29v-.56h-.2v-.22h.2v-.54h.31v.54h0Z"/>
        <path class="cls-9" d="M415.39,306.97c.13,0,.24.05.34.14.09.1.14.21.14.35v.19h-1.41v.08c0,.06.02.11.06.15.04.05.09.07.15.07h1.2v.22h-1.32c-.11,0-.2-.04-.29-.12-.08-.08-.11-.18-.11-.29v-.37c0-.11.04-.21.11-.29.08-.08.17-.12.29-.12h.84,0ZM415.56,307.42c0-.06-.04-.11-.09-.17s-.12-.08-.2-.08h-.6c-.06,0-.11.02-.15.06-.05.05-.06.08-.06.13v.05h1.11,0Z"/>
        <path class="cls-9" d="M416.18,307.45c0-.14.05-.25.14-.35.09-.1.2-.14.34-.14h1.08v.22h-.96c-.08,0-.15.03-.2.09s-.08.13-.08.21v.17c0,.08.03.15.08.21s.13.09.2.09h.96v.22h-1.08c-.14,0-.24-.05-.34-.14-.09-.1-.14-.21-.14-.35v-.23Z"/>
        <path class="cls-9" d="M419.37,306.97c.11,0,.2.04.29.12s.12.18.12.29v.78h-.31v-.75c0-.06-.02-.11-.06-.15-.04-.05-.09-.06-.15-.06h-.6c-.08,0-.15.03-.2.09s-.08.13-.08.21v.68h-.31v-1.73h.31v.64c.08-.07.18-.1.29-.1h.72v-.02Z"/>
        <path class="cls-9" d="M421.4,306.97c.11,0,.2.04.29.12.08.08.12.18.12.29v.78h-.31v-.75c0-.06-.02-.11-.06-.15-.04-.05-.09-.06-.15-.06h-.6c-.08,0-.15.03-.2.09s-.08.13-.08.21v.68h-.31v-.73h0c0-.13.06-.24.15-.32.09-.09.2-.14.33-.14h.84l-.02-.02Z"/>
        <path class="cls-9" d="M423.44,306.97c.11,0,.2.04.28.12.08.08.12.17.12.29v.38c0,.11-.04.21-.12.29-.08.08-.17.12-.28.12h-.93c-.11,0-.2-.04-.28-.12-.08-.08-.11-.17-.11-.29v-.38c0-.11.04-.21.11-.29.08-.08.17-.12.28-.12h.93ZM423.53,307.4c0-.06-.02-.11-.06-.15-.04-.05-.09-.06-.15-.06h-.69c-.06,0-.11.02-.15.06-.04.05-.06.09-.06.15v.32c0,.06.02.11.06.15.04.05.09.06.15.06h.69c.06,0,.11-.02.15-.06.04-.05.06-.09.06-.15v-.32Z"/>
        <path class="cls-9" d="M424.48,307.73c0,.06.02.11.06.15.05.05.09.07.15.07h.2v.22h-.32c-.11,0-.2-.04-.29-.12-.08-.08-.12-.18-.12-.29v-1.32h.31v1.29h0Z"/>
        <path class="cls-9" d="M426.38,306.97c.11,0,.2.04.28.12.08.08.12.17.12.29v.38c0,.11-.04.21-.12.29-.08.08-.17.12-.28.12h-.93c-.11,0-.2-.04-.28-.12-.08-.08-.11-.17-.11-.29v-.38c0-.11.04-.21.11-.29.08-.08.17-.12.28-.12h.93ZM426.47,307.4c0-.06-.02-.11-.06-.15-.04-.05-.09-.06-.15-.06h-.69c-.06,0-.11.02-.15.06-.04.05-.06.09-.06.15v.32c0,.06.02.11.06.15.04.05.09.06.15.06h.69c.06,0,.11-.02.15-.06.04-.05.06-.09.06-.15v-.32Z"/>
        <path class="cls-9" d="M428.33,306.97c.13,0,.24.05.34.14.09.1.14.21.14.35v.83c0,.11-.04.21-.12.29-.08.08-.17.12-.29.12h-1.23v-.22h1.11c.06,0,.11-.02.15-.07.04-.05.06-.09.06-.15v-.2c-.08.07-.18.1-.29.1h-.72c-.11,0-.2-.04-.29-.12-.08-.08-.12-.17-.12-.29v-.37c0-.11.04-.21.12-.29.08-.08.17-.12.29-.12h.84,0ZM428.21,307.94c.08,0,.15-.03.2-.09s.08-.13.08-.21v-.17c0-.08-.03-.15-.08-.21s-.13-.09-.2-.09h-.6c-.06,0-.11.02-.15.06-.05.05-.06.09-.06.15v.32c0,.06.02.11.06.15.04.05.09.07.15.07h.6v.02Z"/>
        <path class="cls-9" d="M430.53,306.97h.31v1.32c0,.11-.04.21-.12.29-.08.08-.17.12-.29.12h-1.23v-.22h1.11c.06,0,.11-.02.15-.07.04-.05.06-.09.06-.15v-.2c-.08.07-.18.1-.29.1h-.72c-.11,0-.2-.04-.29-.12-.08-.08-.12-.17-.12-.29v-.78h.31v.75c0,.06.02.11.06.15.04.05.09.07.15.07h.6c.08,0,.15-.03.2-.09s.08-.13.08-.21v-.68l.02.02Z"/>
        <path class="cls-9" d="M431.98,307.45c0-.14.05-.25.14-.35.09-.1.2-.14.34-.14h1.08v.22h-.96c-.08,0-.15.03-.2.09s-.08.13-.08.21v.17c0,.08.03.15.08.21s.13.09.2.09h.96v.22h-1.08c-.14,0-.24-.05-.34-.14-.09-.1-.14-.21-.14-.35v-.23Z"/>
        <path class="cls-9" d="M435.18,306.97c.11,0,.2.04.28.12.08.08.12.17.12.29v.38c0,.11-.04.21-.12.29-.08.08-.17.12-.28.12h-.93c-.11,0-.2-.04-.28-.12-.08-.08-.11-.17-.11-.29v-.38c0-.11.04-.21.11-.29.08-.08.17-.12.28-.12h.93ZM435.27,307.4c0-.06-.02-.11-.06-.15-.04-.05-.09-.06-.15-.06h-.69c-.06,0-.11.02-.15.06-.04.05-.06.09-.06.15v.32c0,.06.02.11.06.15.04.05.09.06.15.06h.69c.06,0,.11-.02.15-.06.04-.05.06-.09.06-.15v-.32Z"/>
        <path class="cls-9" d="M435.89,307.9h.31v.26h-.31v-.26Z"/>
        <path class="cls-9" d="M436.67,308.16h-.17v-.26h.32v.49h-.13c0-.09,0-.17-.02-.23h0Z"/>
        <path class="cls-9" d="M438.27,307.79s0,.06.03.08.05.04.08.04h1.05v.26h-1.17c-.08,0-.16-.03-.22-.09s-.09-.14-.09-.23v-1.41h.31v1.35h0Z"/>
        <path class="cls-9" d="M439.75,306.43h1.61v.26h-.65v1.47h-.29v-1.47h-.66v-.26Z"/>
        <path class="cls-9" d="M443.06,306.43c.14,0,.27.05.37.16.11.11.15.23.15.38v.65c0,.15-.05.28-.15.38-.11.11-.23.16-.37.16h-1.38v-1.41c0-.09.03-.16.09-.23.06-.06.14-.09.22-.09h1.08,0ZM443.27,307.03c0-.1-.03-.17-.1-.24s-.14-.1-.23-.1h-.84s-.06.02-.08.04-.04.05-.04.08v1.1h.96c.09,0,.17-.04.23-.1.07-.07.1-.15.1-.24v-.53h0Z"/>
        <path class="cls-9" d="M443.89,307.9h.31v.26h-.31v-.26Z"/>
      </g>
      <rect class="cls-7" x="393.6" y="309.64" width="84.93" height=".5"/>
    </g>
  </g>
</svg>