<?xml version="1.0" encoding="UTF-8"?>
<svg id="_圖層_1" data-name="圖層 1" xmlns="http://www.w3.org/2000/svg" xmlns:xlink="http://www.w3.org/1999/xlink" viewBox="0 0 223.87 58.96">
  <defs>
    <style>
      .cls-1 {
        fill: #182a88;
      }

      .cls-2 {
        fill: #595857;
      }

      .cls-3 {
        fill: none;
        stroke: #fff;
        stroke-linecap: round;
        stroke-miterlimit: 10;
        stroke-width: .09px;
      }

      .cls-4 {
        fill: url(#_未命名漸層_3);
      }

      .cls-5 {
        fill: #9fa0a0;
      }

      .cls-6 {
        fill: #e60013;
      }
    </style>
    <radialGradient id="_未命名漸層_3" data-name="未命名漸層 3" cx="23.4" cy="12.98" fx="23.4" fy="12.98" r="23.27" gradientTransform="translate(21.36 -15.28) rotate(45)" gradientUnits="userSpaceOnUse">
      <stop offset="0" stop-color="#fff"/>
      <stop offset=".06" stop-color="#fffef9"/>
      <stop offset=".13" stop-color="#fffce9"/>
      <stop offset=".21" stop-color="#fff9ce"/>
      <stop offset=".3" stop-color="#fff5a9"/>
      <stop offset=".4" stop-color="#fff079"/>
      <stop offset=".49" stop-color="#ffe93f"/>
      <stop offset=".59" stop-color="#ffe300"/>
      <stop offset=".75" stop-color="#ffe100"/>
      <stop offset=".86" stop-color="#ffe000"/>
      <stop offset=".93" stop-color="#fff794"/>
    </radialGradient>
  </defs>
  <rect class="cls-1" x="6.44" y="26.54" width="14.49" height="14.49"/>
  <rect class="cls-6" x="22.16" y="26.54" width="14.49" height="14.49"/>
  <rect class="cls-5" x="6.44" y="10.9" width="14.49" height="14.49"/>
  <circle class="cls-4" cx="29.12" cy="18.15" r="14.88" transform="translate(-4.3 25.91) rotate(-45)"/>
  <path class="cls-3" d="M35.41,31.56c-.77-.34-1.76-.83-2.86-1.48"/>
  <path class="cls-3" d="M20.77,5.91c-.15,1.36-.29,3.57-.04,6.16"/>
  <path class="cls-3" d="M20.74,12.06c.16,1.57.46,3.28,1,5.01"/>
  <path class="cls-3" d="M27.53,26.34c-1.3-1.24-2.55-2.69-3.6-4.39"/>
  <path class="cls-3" d="M23.93,21.95c-.1-.17-.21-.34-.31-.51-.83-1.43-1.44-2.91-1.89-4.36"/>
  <path class="cls-3" d="M32.55,30.08c-1.55-.91-3.33-2.14-5.02-3.74"/>
  <path class="cls-3" d="M22.33,27.53c2.08,2.13,4.38,3.36,6.53,4.05"/>
  <path class="cls-3" d="M19.01,22.84c-.85-1.66-1.37-3.26-1.65-4.78"/>
  <path class="cls-3" d="M33.29,32.39c-1.29-.07-2.82-.29-4.43-.8"/>
  <path class="cls-3" d="M17.22,13.19c-.19,1.49-.19,3.13.14,4.88"/>
  <path class="cls-3" d="M19.24,7.08c-.83,1.51-1.7,3.6-2.02,6.11"/>
  <path class="cls-3" d="M19.01,22.84c.16.32.33.64.52.96.85,1.48,1.8,2.71,2.8,3.73"/>
  <path class="cls-3" d="M34.71,15.76c.94,1.75,1.57,3.55,1.99,5.29"/>
  <path class="cls-3" d="M27.77,8.05c-2.13-1.53-4.13-2.53-5.4-3.08"/>
  <path class="cls-3" d="M34.71,15.76c-.1-.18-.2-.37-.3-.55-.82-1.42-1.78-2.67-2.8-3.78"/>
  <path class="cls-3" d="M36.7,21.05c.53,2.23.71,4.35.73,6.14"/>
  <path class="cls-3" d="M37.43,27.19c.01,1.32-.06,2.45-.15,3.3"/>
  <path class="cls-3" d="M27.77,8.05c1.28.92,2.61,2.04,3.84,3.38"/>
  <path class="cls-3" d="M40.64,24.51c.42-2.14.46-4.63-.3-7.35"/>
  <path class="cls-3" d="M40.64,24.51c-.35,1.81-.97,3.36-1.6,4.6"/>
  <path class="cls-3" d="M40.34,17.16c-.39-1.38-.98-2.83-1.84-4.32-.17-.29-.34-.58-.52-.85"/>
  <path class="cls-3" d="M24.12,4.24c1.75.03,4.06.33,6.45,1.35"/>
  <path class="cls-3" d="M34.71,8.18c1.16,1.01,2.27,2.26,3.27,3.81"/>
  <path class="cls-3" d="M34.71,8.18c-1.34-1.16-2.75-2-4.13-2.59"/>
  <line class="cls-3" x1="34.99" y1="28.76" x2="32.28" y2="24.08"/>
  <line class="cls-3" x1="34.99" y1="28.76" x2="36.32" y2="31.08"/>
  <line class="cls-3" x1="29.57" y1="19.39" x2="26.86" y2="14.7"/>
  <line class="cls-3" x1="24.32" y1="10.3" x2="26.86" y2="14.7"/>
  <line class="cls-3" x1="29.57" y1="19.39" x2="32.28" y2="24.08"/>
  <line class="cls-3" x1="24.32" y1="10.3" x2="21.52" y2="5.44"/>
  <line class="cls-3" x1="15.33" y1="13.05" x2="31.77" y2="3.56"/>
  <line class="cls-3" x1="38.17" y1="6.39" x2="14.42" y2="20.11"/>
  <line class="cls-3" x1="42.04" y1="10.69" x2="16.21" y2="25.6"/>
  <line class="cls-3" x1="43.83" y1="16.18" x2="20.07" y2="29.9"/>
  <line class="cls-3" x1="43.07" y1="23.14" x2="26.48" y2="32.73"/>
  <g>
    <path class="cls-2" d="M52.09,31.55h2.57v7c0,.6-.32,1.11-.97,1.53-.65.42-1.43.63-2.35.63h-7.76c-.91,0-1.7-.21-2.35-.63-.65-.42-.97-.93-.97-1.53v-7h2.58v6.87c0,.32.17.58.51.8.34.22.76.34,1.23.34h5.77c.48,0,.89-.11,1.23-.34.34-.22.52-.49.52-.8v-6.87Z"/>
    <path class="cls-2" d="M66.45,34.4c.92,0,1.71.21,2.37.64s.98.94.98,1.54v4.13h-2.58v-4c0-.32-.17-.59-.52-.82-.34-.22-.76-.34-1.25-.34h-5.06c-.67,0-1.24.15-1.71.46-.47.31-.71.68-.71,1.11v3.59h-2.58v-3.87h0c.06-.68.47-1.26,1.24-1.73.77-.47,1.68-.71,2.74-.71h7.05Z"/>
    <path class="cls-2" d="M70.46,31.55h2.59v1.68h-2.59v-1.68ZM70.46,34.4h2.58v6.31h-2.58v-6.31Z"/>
    <path class="cls-2" d="M88.98,34.4l-3.91,4.48c-.63.65-1.16,1.09-1.59,1.33-.6.34-1.31.51-2.13.51h-.17c-.83,0-1.55-.17-2.16-.5-.5-.28-1.03-.73-1.59-1.35l-3.86-4.46h2.75l3.44,3.97c.99,1.29,1.99,1.28,3-.01l3.45-3.96h2.75Z"/>
    <path class="cls-2" d="M99.91,34.4c1.1,0,2.04.25,2.82.76.78.51,1.17,1.12,1.17,1.83v.98h-11.83v.42c0,.32.18.59.53.82.34.23.76.34,1.25.34h10.04v1.15h-11.04c-.93,0-1.72-.21-2.38-.64-.65-.42-.97-.94-.97-1.54v-1.95c0-.6.32-1.11.97-1.54.66-.43,1.45-.64,2.38-.64h7.05ZM101.32,36.82c-.07-.31-.33-.59-.79-.86-.46-.27-.99-.4-1.61-.4h-5.06c-.49,0-.91.11-1.25.34-.35.22-.53.45-.53.69v.24h9.24Z"/>
    <path class="cls-2" d="M104.44,36.56c0-.6.32-1.11.97-1.53.65-.42,1.43-.63,2.35-.63h8.24v1.16h-7.25c-.48,0-.89.11-1.23.33-.34.22-.51.49-.51.8v4.02h-2.58v-4.15Z"/>
    <path class="cls-2" d="M127.61,36.97c1.03,0,1.85.2,2.47.59.56.35.84.78.84,1.29s-.28.93-.84,1.29c-.62.39-1.45.58-2.47.58h-11.07v-1.15h10.07c.56,0,.99-.09,1.3-.27.28-.16.42-.31.42-.45s-.14-.3-.42-.45c-.31-.18-.75-.27-1.3-.27h-6.76c-1.03,0-1.85-.19-2.47-.56-.56-.34-.85-.79-.85-1.36,0-.48.28-.9.85-1.24.62-.38,1.44-.56,2.47-.56h9.72v1.16h-8.72c-.56,0-1,.08-1.31.24-.28.14-.42.3-.42.47s.14.32.42.46c.31.16.75.24,1.31.24h6.76Z"/>
    <path class="cls-2" d="M145.84,38.75c0,.6-.31,1.07-.91,1.43-.61.35-1.42.53-2.44.53h-7.7c-1,0-1.81-.17-2.43-.51-.62-.35-.92-.8-.92-1.36v-.09c0-.56.31-1.01.92-1.36.62-.35,1.43-.52,2.43-.52h6.7c.66,0,1.25.08,1.77.25v-.51c0-.26-.17-.5-.51-.71-.36-.23-.78-.34-1.26-.34h-8.95v-1.16h9.94c.91,0,1.69.21,2.36.62.66.41.99.9.99,1.46v2.27ZM141.5,39.63c1.18,0,1.77-.29,1.77-.88,0-.28-.23-.5-.69-.64-.3-.09-.66-.14-1.08-.14h-5.71c-.43,0-.79.05-1.08.14-.46.14-.69.36-.69.65v.09c0,.29.23.51.69.65.3.09.66.14,1.08.14h5.71Z"/>
    <path class="cls-2" d="M148.95,38.82c0,.32.17.59.52.82.35.23.77.34,1.26.34h4.88v1.15h-5.87c-.93,0-1.72-.21-2.38-.64-.66-.42-.98-.94-.98-1.54v-7.4h2.58v7.27Z"/>
  </g>
  <g>
    <path class="cls-2" d="M55.4,44.98c0-.27.09-.5.28-.69.19-.19.41-.29.67-.29h2.15v.43h-1.91c-.16,0-.29.06-.41.17-.11.11-.17.25-.17.41v.32c0,.16.06.3.17.41.11.12.25.17.41.17h1.91v.43h-2.15c-.26,0-.48-.09-.67-.28-.19-.19-.28-.42-.28-.69v-.42Z"/>
    <path class="cls-2" d="M61.58,44.01c.26,0,.48.1.67.29.19.19.28.42.28.69v.37h-2.81v.16c0,.12.04.22.13.31.08.09.18.13.3.13h2.38v.43h-2.62c-.22,0-.41-.08-.56-.24-.15-.16-.23-.35-.23-.58v-.73c0-.22.08-.42.23-.58.16-.16.34-.24.56-.24h1.67ZM61.92,44.91c-.02-.11-.08-.22-.19-.32-.11-.1-.24-.15-.38-.15h-1.2c-.12,0-.22.04-.3.13-.08.08-.13.17-.13.26v.09h2.19Z"/>
    <path class="cls-2" d="M63.14,44.82c0-.22.08-.41.23-.57.15-.16.34-.24.56-.24h1.96v.43h-1.72c-.11,0-.21.04-.29.12-.08.08-.12.18-.12.3v1.51h-.61v-1.55Z"/>
    <path class="cls-2" d="M67.24,44.01h.58v.43h-.58v1.11c0,.12.04.22.12.31.08.09.18.13.3.13h.39v.38h-.63c-.22,0-.41-.08-.56-.24-.16-.16-.23-.35-.23-.58v-1.11h-.41v-.43h.41v-1.07h.61v1.07Z"/>
    <path class="cls-2" d="M68.45,42.94h.61v.63h-.61v-.63ZM68.45,44.01h.61v2.36h-.61v-2.36Z"/>
    <path class="cls-2" d="M69.7,43.76c0-.23.08-.42.23-.58.16-.16.34-.24.56-.24h.77v.43h-.54c-.11,0-.21.04-.3.13-.08.08-.12.19-.12.31v.21h.97v.43h-.97v1.93h-.61v-2.61Z"/>
    <path class="cls-2" d="M71.91,42.94h.61v.63h-.61v-.63ZM71.91,44.01h.61v2.36h-.61v-2.36Z"/>
    <path class="cls-2" d="M73.16,44.98c0-.27.09-.5.28-.69.19-.19.41-.29.67-.29h2.15v.43h-1.91c-.16,0-.29.06-.41.17-.11.11-.17.25-.17.41v.32c0,.16.06.3.17.41.11.12.25.17.41.17h1.91v.43h-2.15c-.26,0-.48-.09-.67-.28-.19-.19-.28-.42-.28-.69v-.42Z"/>
    <path class="cls-2" d="M80.22,45.64c0,.22-.07.4-.22.54-.15.13-.34.2-.58.2h-1.83c-.24,0-.43-.06-.58-.19-.15-.13-.22-.3-.22-.51v-.03c0-.21.07-.38.22-.51.15-.13.34-.19.58-.19h1.59c.16,0,.3.03.42.09v-.19c0-.1-.04-.19-.12-.27-.09-.09-.19-.13-.3-.13h-2.12v-.43h2.36c.22,0,.4.08.56.23.16.15.24.34.24.55v.85ZM79.19,45.96c.28,0,.42-.11.42-.33,0-.11-.05-.19-.16-.24-.07-.03-.16-.05-.26-.05h-1.35c-.1,0-.19.02-.26.05-.11.05-.16.13-.16.24v.03c0,.11.05.19.16.24.07.03.16.05.26.05h1.35Z"/>
    <path class="cls-2" d="M81.78,44.01h.58v.43h-.58v1.11c0,.12.04.22.12.31.08.09.18.13.3.13h.39v.38h-.63c-.22,0-.41-.08-.56-.24-.16-.16-.23-.35-.23-.58v-1.11h-.41v-.43h.41v-1.07h.61v1.07Z"/>
    <path class="cls-2" d="M83,42.94h.61v.63h-.61v-.63ZM83,44.01h.61v2.36h-.61v-2.36Z"/>
    <path class="cls-2" d="M86.88,44.01c.22,0,.4.08.56.24.15.16.23.35.23.57v.74c0,.22-.08.41-.23.57-.15.16-.34.24-.56.24h-1.84c-.22,0-.4-.08-.56-.24-.15-.16-.23-.35-.23-.57v-.74c0-.22.08-.41.23-.57.15-.16.34-.24.56-.24h1.84ZM87.05,44.87c0-.12-.04-.22-.12-.3-.08-.08-.18-.12-.29-.12h-1.37c-.11,0-.21.04-.29.12-.08.08-.12.18-.12.3v.65c0,.12.04.22.12.3.08.08.18.13.29.13h1.37c.11,0,.21-.04.29-.13.08-.08.12-.18.12-.3v-.65Z"/>
    <path class="cls-2" d="M90.9,44.01c.22,0,.41.08.56.24.16.16.23.35.23.58v1.55h-.61v-1.5c0-.12-.04-.22-.12-.31-.08-.08-.18-.13-.3-.13h-1.2c-.16,0-.29.06-.41.17-.11.11-.17.25-.17.41v1.34h-.61v-1.45h0c.01-.26.11-.47.29-.65.18-.18.4-.27.65-.27h1.67Z"/>
    <path class="cls-2" d="M94.97,44.01h.58v.43h-.58v1.11c0,.12.04.22.12.31.08.09.18.13.3.13h.39v.38h-.63c-.22,0-.41-.08-.56-.24-.16-.16-.23-.35-.23-.58v-1.11h-.41v-.43h.41v-1.07h.61v1.07Z"/>
    <path class="cls-2" d="M98.63,44.01c.26,0,.48.1.67.29.19.19.28.42.28.69v.37h-2.81v.16c0,.12.04.22.13.31.08.09.18.13.3.13h2.38v.43h-2.62c-.22,0-.41-.08-.56-.24-.15-.16-.23-.35-.23-.58v-.73c0-.22.08-.42.23-.58.16-.16.34-.24.56-.24h1.67ZM98.97,44.91c-.02-.11-.08-.22-.19-.32-.11-.1-.24-.15-.38-.15h-1.2c-.12,0-.22.04-.3.13-.08.08-.13.17-.13.26v.09h2.19Z"/>
    <path class="cls-2" d="M100.2,44.98c0-.27.09-.5.28-.69.19-.19.41-.29.67-.29h2.15v.43h-1.91c-.16,0-.29.06-.41.17-.11.11-.17.25-.17.41v.32c0,.16.06.3.17.41.11.12.25.17.41.17h1.91v.43h-2.15c-.26,0-.48-.09-.67-.28-.19-.19-.28-.42-.28-.69v-.42Z"/>
    <path class="cls-2" d="M106.53,44.01c.22,0,.41.08.56.24s.23.35.23.58v1.55h-.61v-1.5c0-.12-.04-.22-.12-.31-.08-.08-.18-.13-.3-.13h-1.2c-.16,0-.29.06-.41.17-.11.11-.17.25-.17.41v1.34h-.61v-3.43h.61v1.27c.17-.13.36-.2.57-.2h1.44Z"/>
    <path class="cls-2" d="M110.56,44.01c.22,0,.41.08.56.24.16.16.23.35.23.58v1.55h-.61v-1.5c0-.12-.04-.22-.12-.31-.08-.08-.18-.13-.3-.13h-1.2c-.16,0-.29.06-.41.17-.11.11-.17.25-.17.41v1.34h-.61v-1.45h0c.01-.26.11-.47.29-.65.18-.18.4-.27.65-.27h1.67Z"/>
    <path class="cls-2" d="M114.6,44.01c.22,0,.4.08.56.24.15.16.23.35.23.57v.74c0,.22-.08.41-.23.57-.15.16-.34.24-.56.24h-1.84c-.22,0-.4-.08-.56-.24-.15-.16-.23-.35-.23-.57v-.74c0-.22.08-.41.23-.57.15-.16.34-.24.56-.24h1.84ZM114.77,44.87c0-.12-.04-.22-.12-.3-.08-.08-.18-.12-.29-.12h-1.37c-.12,0-.21.04-.29.12-.08.08-.12.18-.12.3v.65c0,.12.04.22.12.3.08.08.18.13.29.13h1.37c.11,0,.21-.04.29-.13.08-.08.12-.18.12-.3v-.65Z"/>
    <path class="cls-2" d="M116.66,45.51c0,.12.04.22.12.31.08.09.18.13.3.13h.39v.43h-.63c-.22,0-.41-.08-.56-.24-.16-.16-.23-.35-.23-.58v-2.61h.61v2.57Z"/>
    <path class="cls-2" d="M120.43,44.01c.22,0,.4.08.56.24.15.16.23.35.23.57v.74c0,.22-.08.41-.23.57-.15.16-.34.24-.56.24h-1.84c-.22,0-.4-.08-.56-.24-.15-.16-.23-.35-.23-.57v-.74c0-.22.08-.41.23-.57.15-.16.34-.24.56-.24h1.84ZM120.6,44.87c0-.12-.04-.22-.12-.3-.08-.08-.18-.12-.29-.12h-1.37c-.11,0-.21.04-.29.12-.08.08-.12.18-.12.3v.65c0,.12.04.22.12.3.08.08.18.13.29.13h1.37c.11,0,.21-.04.29-.13.08-.08.12-.18.12-.3v-.65Z"/>
    <path class="cls-2" d="M124.3,44.01c.26,0,.48.1.67.29.19.19.28.42.28.69v1.64c0,.23-.08.42-.23.58-.16.16-.34.24-.56.24h-2.44v-.43h2.2c.11,0,.21-.04.3-.13.08-.08.12-.19.12-.31v-.4c-.17.13-.36.2-.57.2h-1.44c-.22,0-.41-.08-.56-.24-.16-.16-.23-.35-.23-.58v-.73c0-.22.08-.42.23-.58.16-.16.34-.24.56-.24h1.67ZM124.06,45.94c.16,0,.29-.06.41-.17.11-.11.17-.25.17-.41v-.32c0-.16-.06-.3-.17-.41-.11-.11-.25-.17-.41-.17h-1.2c-.12,0-.22.04-.3.13-.08.08-.13.19-.13.31v.63c0,.12.04.22.13.31.08.09.18.13.3.13h1.2Z"/>
    <path class="cls-2" d="M128.66,44.01h.61v2.61c0,.23-.08.42-.23.58-.16.16-.34.24-.56.24h-2.43v-.43h2.2c.12,0,.21-.04.3-.13.08-.08.12-.19.12-.31v-.4c-.17.13-.36.2-.57.2h-1.44c-.22,0-.41-.08-.56-.24-.16-.16-.23-.35-.23-.58v-1.54h.61v1.5c0,.12.04.22.13.31.08.09.18.13.3.13h1.2c.16,0,.29-.06.41-.17.11-.11.17-.25.17-.41v-1.34Z"/>
    <path class="cls-2" d="M131.54,44.98c0-.27.09-.5.28-.69.19-.19.41-.29.67-.29h2.15v.43h-1.91c-.16,0-.29.06-.41.17-.11.11-.17.25-.17.41v.32c0,.16.06.3.17.41.11.12.25.17.41.17h1.91v.43h-2.15c-.26,0-.48-.09-.67-.28-.19-.19-.28-.42-.28-.69v-.42Z"/>
    <path class="cls-2" d="M137.88,44.01c.22,0,.4.08.56.24.15.16.23.35.23.57v.74c0,.22-.08.41-.23.57-.15.16-.34.24-.56.24h-1.84c-.22,0-.4-.08-.56-.24-.15-.16-.23-.35-.23-.57v-.74c0-.22.08-.41.23-.57.15-.16.34-.24.56-.24h1.84ZM138.06,44.87c0-.12-.04-.22-.12-.3-.08-.08-.18-.12-.29-.12h-1.37c-.11,0-.21.04-.29.12-.08.08-.12.18-.12.3v.65c0,.12.04.22.12.3.08.08.18.13.29.13h1.37c.11,0,.21-.04.29-.13.08-.08.12-.18.12-.3v-.65Z"/>
    <path class="cls-2" d="M139.28,45.86h.61v.51h-.61v-.51Z"/>
    <path class="cls-2" d="M140.84,46.37h-.33v-.51h.64v.97h-.26c0-.18-.02-.33-.05-.46Z"/>
    <path class="cls-2" d="M144.02,45.63c0,.07.02.12.07.17.05.05.1.07.17.07h2.09v.5h-2.33c-.17,0-.31-.06-.43-.18-.12-.12-.18-.27-.18-.44v-2.81h.61v2.69Z"/>
    <path class="cls-2" d="M146.96,42.94h3.19v.5h-1.29v2.93h-.59v-2.93h-1.31v-.5Z"/>
    <path class="cls-2" d="M153.51,42.94c.29,0,.53.1.74.31.2.21.3.46.3.76v1.3c0,.29-.1.55-.3.75-.2.21-.45.31-.74.31h-2.75v-2.81c0-.17.06-.32.18-.44.12-.12.26-.18.43-.18h2.14ZM153.94,44.13c0-.19-.07-.35-.2-.48-.13-.13-.29-.2-.47-.2h-1.67c-.06,0-.12.02-.16.07-.05.05-.07.1-.07.17v2.18h1.9c.18,0,.34-.07.47-.2.13-.13.2-.3.2-.48v-1.05Z"/>
    <path class="cls-2" d="M155.16,45.86h.61v.51h-.61v-.51Z"/>
  </g>
  <rect class="cls-6" x="55.4" y="49.32" width="168.47" height="1"/>
</svg>